SplineFontDB: 3.0
FontName: Muli-ExtraLight
FullName: Muli ExtraLight
FamilyName: Muli
Weight: ExtraLight
Copyright: Digitized data Copyright (c) 2011-2014, vernon adams.
Version: 2
ItalicAngle: 0
UnderlinePosition: 0
UnderlineWidth: 0
Ascent: 1638
Descent: 410
sfntRevision: 0x00000000
UFOAscent: 1560
UFODescent: -556
LayerCount: 2
Layer: 0 0 "Back"  1
Layer: 1 0 "Fore"  0
FSType: 0
OS2Version: 0
OS2_WeightWidthSlopeOnly: 0
OS2_UseTypoMetrics: 1
CreationTime: 1391666064
ModificationTime: 1391666153
PfmFamily: 17
TTFWeight: 200
TTFWidth: 5
LineGap: 0
VLineGap: 0
OS2TypoAscent: 2364
OS2TypoAOffset: 0
OS2TypoDescent: -582
OS2TypoDOffset: 0
OS2TypoLinegap: 0
OS2WinAscent: 2364
OS2WinAOffset: 0
OS2WinDescent: 582
OS2WinDOffset: 0
HheadAscent: 2364
HheadAOffset: 0
HheadDescent: -582
HheadDOffset: 0
OS2Vendor: 'NeWT'
Lookup: 258 0 0 "kernHorizontalKerninginLatinloo"  {"kernHorizontalKerninginLatinloo subtable"  } ['kern' ('latn' <'dflt' > ) ]
MarkAttachClasses: 1
DEI: 91125
LangName: 1033 "" "" "" "" "" "Version 2" "" "Muli is a trademark of Vernon Adams and may be registered in certain jurisdictions." "newtypography" "Vernon Adams" "" "newtypography.co.uk" "newtypography.co.uk" "Copyright (c) 2014, vernon adams.+AAoACgAA-This Font Software is licensed under the SIL Open Font License, Version 1.1.+AAoA-This license is available with a FAQ at:+AAoA-http://scripts.sil.org/OFL+AAoA" "http://scripts.sil.org/OFL" "" "Muli" "Bold" 
PickledData: "(dp1
S'com.typemytype.robofont.foreground.layerStrokeColor'
p2
(F0.5
F0
F0.5
F0.69999999999999996
tp3
sS'com.schriftgestaltung.fontMasterID'
p4
S'CAA31E91-2985-420A-82BA-6B4D8404D924'
p5
sS'GSDimensionPlugin.Dimensions'
p6
(dp7
S'CAA31E91-2985-420A-82BA-6B4D8404D924'
p8
(dp9
ssS'com.superpolator.editor.generateInfo'
p10
S'Generated with LTR Superpolator version 120823_1018_beta_'
p11
sS'com.typemytype.robofont.b.layerStrokeColor'
p12
(F1
F0.75
F0
F0.69999999999999996
tp13
sS'com.schriftgestaltung.useNiceNames'
p14
I01

StartChar: A
Encoding: 65 65 0
Width: 1329
VWidth: 0
GlyphClass: 2
Flags: W
PickledData: "(dp1
S'org.robofab.postScriptHintData'
p2
(dp3
s."
AnchorPoint: "top" 666 1456 basechar 0
LayerCount: 2
Fore
SplineSet
359 473 m 257
 978 473 l 257
 823 920 l 257
 667 1366 l 257
 513 920 l 257
 359 473 l 257
68 0 m 257
 598 1456 l 257
 732 1456 l 257
 1261 0 l 257
 1149 0 l 257
 1006 399 l 257
 332 399 l 257
 189 0 l 257
 68 0 l 257
EndSplineSet
EndChar

StartChar: AE
Encoding: 198 198 1
Width: 1860
VWidth: 0
GlyphClass: 2
Flags: W
PickledData: "(dp1
S'org.robofab.postScriptHintData'
p2
(dp3
sS'com.typemytype.robofont.layerData'
p4
(dp5
S'b'
(dp6
S'name'
p7
S'AE'
p8
sS'lib'
p9
(dp10
sS'unicodes'
p11
(tsS'width'
p12
F2073.5500000000002
sS'contours'
p13
(tsS'components'
p14
(tsS'anchors'
p15
(tsss."
AnchorPoint: "top" 1265 1456 basechar 0
LayerCount: 2
Fore
SplineSet
422 536 m 257
 1027 536 l 257
 961 1369 l 257
 895 1369 l 257
 422 536 l 257
35 0 m 257
 869 1456 l 257
 1777 1456 l 257
 1777 1369 l 257
 1044 1369 l 257
 1092 796 l 257
 1707 796 l 257
 1707 719 l 257
 1090 719 l 257
 1147 83 l 257
 1801 83 l 257
 1801 0 l 257
 1080 0 l 257
 1037 459 l 257
 387 459 l 257
 124 0 l 257
 35 0 l 257
EndSplineSet
EndChar

StartChar: B
Encoding: 66 66 18
Width: 1352
VWidth: 0
GlyphClass: 2
Flags: W
PickledData: "(dp1
S'org.robofab.postScriptHintData'
p2
(dp3
sS'com.typemytype.robofont.layerData'
p4
(dp5
S'b'
(dp6
S'name'
p7
S'B'
sS'lib'
p8
(dp9
sS'unicodes'
p10
(tsS'width'
p11
F1346.45
sS'contours'
p12
(tsS'components'
p13
(tsS'anchors'
p14
(tsss."
AnchorPoint: "top" 649 1456 basechar 0
LayerCount: 2
Fore
SplineSet
334 794 m 257
 683 794 l 258
 948 794 1042 899 1042 1099 c 256
 1042 1276 911 1370 637 1370 c 258
 334 1370 l 257
 334 794 l 257
332 86 m 257
 724 86 l 258
 979 86 1113 189 1113 385 c 256
 1113 597 1000 708 683 708 c 258
 332 708 l 257
 332 86 l 257
224 0 m 257
 224 1456 l 257
 637 1456 l 258
 982 1456 1150 1333 1150 1099 c 256
 1150 886 1048 776 867 757 c 257
 1086 739 1223 612 1223 385 c 256
 1223 133 1050 0 724 0 c 258
 224 0 l 257
EndSplineSet
EndChar

StartChar: C
Encoding: 67 67 20
Width: 1389
VWidth: 0
GlyphClass: 2
Flags: W
PickledData: "(dp1
S'org.robofab.postScriptHintData'
p2
(dp3
sS'com.typemytype.robofont.layerData'
p4
(dp5
S'b'
(dp6
S'name'
p7
S'C'
sS'lib'
p8
(dp9
sS'unicodes'
p10
(tsS'width'
p11
F1394.1500000000001
sS'contours'
p12
((dp13
S'points'
p14
((dp15
S'segmentType'
p16
S'curve'
p17
sS'x'
F785
sS'smooth'
p18
I01
sS'y'
F-23
s(dp19
S'y'
F-23
sS'x'
F346
sg18
I00
s(dp20
S'y'
F309
sS'x'
F108
sg18
I00
s(dp21
g16
S'curve'
p22
sS'x'
F108
sg18
I01
sS'y'
F713
s(dp23
S'y'
F1125
sS'x'
F108
sg18
I00
s(dp24
S'y'
F1483
sS'x'
F371
sg18
I00
s(dp25
g16
S'curve'
p26
sS'x'
F814
sg18
I01
sS'y'
F1483
s(dp27
S'y'
F1483
sS'x'
F995
sg18
I00
s(dp28
S'y'
F1437
sS'x'
F1144
sg18
I00
s(dp29
g16
S'curve'
p30
sS'x'
F1265
sg18
I00
sS'y'
F1329
s(dp31
g16
S'line'
p32
sS'x'
F1200
sg18
I00
sS'y'
F1219
s(dp33
S'y'
F1295
sS'x'
F1099
sg18
I00
s(dp34
S'y'
F1334
sS'x'
F969
sg18
I00
s(dp35
g16
S'curve'
p36
sS'x'
F833
sg18
I01
sS'y'
F1334
s(dp37
S'y'
F1334
sS'x'
F464
sg18
I00
s(dp38
S'y'
F1022
sS'x'
F291
sg18
I00
s(dp39
g16
S'curve'
p40
sS'x'
F291
sg18
I01
sS'y'
F712
s(dp41
S'y'
F398
sS'x'
F291
sg18
I00
s(dp42
S'y'
F125
sS'x'
F453
sg18
I00
s(dp43
g16
S'curve'
p44
sS'x'
F811
sg18
I01
sS'y'
F125
s(dp45
S'y'
F125
sS'x'
F974
sg18
I00
s(dp46
S'y'
F172
sS'x'
F1134
sg18
I00
s(dp47
g16
S'curve'
p48
sS'x'
F1243
sg18
I00
sS'y'
F268
s(dp49
g16
S'line'
p50
sS'x'
F1301
sg18
I00
sS'y'
F127
s(dp51
S'y'
F28
sS'x'
F1178
sg18
I00
s(dp52
S'y'
F-23
sS'x'
F996
sg18
I00
stp53
stp54
sS'components'
p55
(tsS'anchors'
p56
(tsss."
AnchorPoint: "top" 807 1456 basechar 0
LayerCount: 2
Fore
SplineSet
810 -22 m 256
 384 -22 110 261 110 701 c 256
 110 1176 389 1481 824 1481 c 256
 991 1481 1136 1433 1243 1342 c 257
 1199 1274 l 257
 1098 1353 968 1395 824 1395 c 256
 456 1395 220 1123 220 701 c 256
 220 314 451 65 810 65 c 256
 966 65 1114 108 1238 190 c 257
 1273 115 l 257
 1135 25 975 -22 810 -22 c 256
EndSplineSet
EndChar

StartChar: D
Encoding: 68 68 27
Width: 1523
VWidth: 0
GlyphClass: 2
Flags: W
PickledData: "(dp1
S'org.robofab.postScriptHintData'
p2
(dp3
sS'com.typemytype.robofont.layerData'
p4
(dp5
S'b'
(dp6
S'name'
p7
S'D'
sS'lib'
p8
(dp9
sS'unicodes'
p10
(tsS'width'
p11
F1526.5999999999999
sS'contours'
p12
(tsS'components'
p13
(tsS'anchors'
p14
(tsss."
AnchorPoint: "top" 739 1456 basechar 0
LayerCount: 2
Fore
SplineSet
224 0 m 257
 224 1456 l 257
 598 1456 l 258
 1114 1456 1387 1199 1387 712 c 256
 1387 246 1122 0 620 0 c 258
 224 0 l 257
332 86 m 257
 620 86 l 258
 1050 86 1277 302 1277 712 c 256
 1277 1143 1042 1370 598 1370 c 258
 332 1370 l 257
 332 86 l 257
EndSplineSet
EndChar

StartChar: DEL
Encoding: 127 127 28
Width: 1521
VWidth: 0
GlyphClass: 2
Flags: W
PickledData: "(dp1
S'org.robofab.postScriptHintData'
p2
(dp3
s."
LayerCount: 2
Fore
SplineSet
188 0 m 257
 188 1456 l 257
 1333 1456 l 257
 1333 0 l 257
 188 0 l 257
360 124 m 257
 1161 124 l 257
 1161 1330 l 257
 360 1330 l 257
 360 124 l 257
EndSplineSet
EndChar

StartChar: Delta
Encoding: 916 916 32
Width: 1298
VWidth: 0
GlyphClass: 2
Flags: W
PickledData: "(dp1
S'org.robofab.postScriptHintData'
p2
(dp3
s."
LayerCount: 2
Fore
SplineSet
138 77 m 257
 1155 77 l 257
 646 1295 l 257
 138 77 l 257
41 0 m 257
 41 48 l 257
 634 1451 l 257
 665 1451 l 257
 1257 48 l 257
 1257 0 l 257
 41 0 l 257
EndSplineSet
EndChar

StartChar: E
Encoding: 69 69 35
Width: 1219
VWidth: 0
GlyphClass: 2
Flags: W
PickledData: "(dp1
S'org.robofab.postScriptHintData'
p2
(dp3
s."
AnchorPoint: "top" 639 1456 basechar 0
LayerCount: 2
Fore
SplineSet
224 0 m 257
 224 1456 l 257
 1034 1456 l 257
 1034 1370 l 257
 332 1370 l 257
 332 787 l 257
 995 787 l 257
 995 701 l 257
 330 701 l 257
 330 86 l 257
 1064 86 l 257
 1064 0 l 257
 224 0 l 257
EndSplineSet
EndChar

StartChar: Eng
Encoding: 330 330 46
Width: 1503
VWidth: 0
GlyphClass: 2
Flags: W
PickledData: "(dp1
S'org.robofab.postScriptHintData'
p2
(dp3
s."
LayerCount: 2
Fore
SplineSet
1365 1456 m 257
 1365 0 l 258
 1363 -231 1339 -428 971 -428 c 257
 971 -346 l 257
 1170 -346 1259 -260 1259 -84 c 258
 1259 1 l 257
 457 1137 l 257
 348 1303 l 257
 348 0 l 257
 242 0 l 257
 242 1456 l 257
 348 1456 l 257
 1132 335 l 257
 1259 142 l 257
 1259 1456 l 257
 1365 1456 l 257
EndSplineSet
EndChar

StartChar: Euro
Encoding: 8364 8364 50
Width: 1334
VWidth: 0
GlyphClass: 2
Flags: W
PickledData: "(dp1
S'org.robofab.postScriptHintData'
p2
(dp3
sS'com.typemytype.robofont.layerData'
p4
(dp5
S'b'
(dp6
S'name'
p7
S'Euro'
p8
sS'lib'
p9
(dp10
sS'unicodes'
p11
(tsS'width'
p12
I1190
sS'contours'
p13
(tsS'components'
p14
(tsS'anchors'
p15
(tsss."
LayerCount: 2
Fore
SplineSet
810 -22 m 256
 975 -22 1135 25 1273 115 c 257
 1238 190 l 257
 1114 108 966 65 810 65 c 256
 502.95 65 289.535 247.15 234.2 542 c 257
 813 542 l 257
 820 614 l 257
 224.072 614 l 257
 221.373 642.146 220 671.163 220 701 c 256
 220 748.637 223.007 794.362 228.872 838 c 257
 849 838 l 257
 856 916 l 257
 242.877 916 l 257
 310.386 1213.09 523.053 1395 824 1395 c 256
 968 1395 1098 1353 1199 1274 c 257
 1243 1342 l 257
 1136 1433 991 1481 824 1481 c 256
 458.812 1481 203.57 1266.04 131.049 916 c 257
 -58 916 l 257
 -63 838 l 257
 118.214 838 l 257
 112.779 794.116 110 748.405 110 701 c 256
 110 671.27 111.251 642.257 113.715 614 c 257
 -57 614 l 257
 -62 542 l 257
 122.875 542 l 257
 181.662 194.007 437.822 -22 810 -22 c 256
EndSplineSet
EndChar

StartChar: F
Encoding: 70 70 51
Width: 1090
VWidth: 0
GlyphClass: 2
Flags: W
PickledData: "(dp1
S'org.robofab.postScriptHintData'
p2
(dp3
s."
AnchorPoint: "top" 629 1456 basechar 0
LayerCount: 2
Fore
SplineSet
224 0 m 257
 224 1456 l 257
 1001 1456 l 257
 1001 1370 l 257
 332 1370 l 257
 332 779 l 257
 944 779 l 257
 944 693 l 257
 332 693 l 257
 332 0 l 257
 224 0 l 257
EndSplineSet
EndChar

StartChar: G
Encoding: 71 71 53
Width: 1513
VWidth: 0
GlyphClass: 2
Flags: W
PickledData: "(dp1
S'org.robofab.postScriptHintData'
p2
(dp3
sS'com.typemytype.robofont.layerData'
p4
(dp5
S'b'
(dp6
S'name'
p7
S'G'
sS'lib'
p8
(dp9
sS'unicodes'
p10
(tsS'width'
p11
F1528.2
sS'contours'
p12
((dp13
S'points'
p14
((dp15
S'segmentType'
p16
S'curve'
p17
sS'x'
F841
sS'smooth'
p18
I01
sS'y'
F-23
s(dp19
S'y'
F-23
sS'x'
F361
sg18
I00
s(dp20
S'y'
F267
sS'x'
F108
sg18
I00
s(dp21
g16
S'curve'
p22
sS'x'
F108
sg18
I01
sS'y'
F701
s(dp23
S'y'
F1129
sS'x'
F108
sg18
I00
s(dp24
S'y'
F1483
sS'x'
F382
sg18
I00
s(dp25
g16
S'curve'
p26
sS'x'
F852
sg18
I01
sS'y'
F1483
s(dp27
S'y'
F1483
sS'x'
F1059
sg18
I00
s(dp28
S'y'
F1415
sS'x'
F1233
sg18
I00
s(dp29
g16
S'curve'
p30
sS'x'
F1334
sg18
I00
sS'y'
F1308
s(dp31
g16
S'line'
p32
sS'x'
F1262
sg18
I00
sS'y'
F1196
s(dp33
S'y'
F1291
sS'x'
F1164
sg18
I00
s(dp34
S'y'
F1334
sS'x'
F1034
sg18
I00
s(dp35
g16
S'curve'
p36
sS'x'
F848
sg18
I01
sS'y'
F1334
s(dp37
S'y'
F1334
sS'x'
F477
sg18
I00
s(dp38
S'y'
F1033
sS'x'
F286
sg18
I00
s(dp39
g16
S'curve'
p40
sS'x'
F286
sg18
I01
sS'y'
F714
s(dp41
S'y'
F365
sS'x'
F286
sg18
I00
s(dp42
S'y'
F125
sS'x'
F472
sg18
I00
s(dp43
g16
S'curve'
p44
sS'x'
F855
sg18
I01
sS'y'
F125
s(dp45
S'y'
F125
sS'x'
F968
sg18
I00
s(dp46
S'y'
F143
sS'x'
F1088
sg18
I00
s(dp47
g16
S'curve'
p48
sS'x'
F1184
sg18
I00
sS'y'
F182
s(dp49
g16
S'line'
p50
sS'x'
F1184
sg18
I00
sS'y'
F608
s(dp51
g16
S'line'
p52
sS'x'
F811
sg18
I00
sS'y'
F608
s(dp53
g16
S'line'
p54
sS'x'
F811
sg18
I00
sS'y'
F757
s(dp55
g16
S'line'
p56
sS'x'
F1356
sg18
I00
sS'y'
F757
s(dp57
g16
S'line'
p58
sS'x'
F1356
sg18
I00
sS'y'
F81
s(dp59
S'y'
F6
sS'x'
F1195
sg18
I00
s(dp60
S'y'
F-23
sS'x'
F1012
sg18
I00
stp61
stp62
sS'components'
p63
(tsS'anchors'
p64
(tsss."
AnchorPoint: "top" 857 1456 basechar 0
LayerCount: 2
Fore
SplineSet
833 -21 m 256
 385 -21 110 264 110 706 c 256
 110 1178 396 1481 841 1481 c 256
 899 1481 1090 1494 1309 1334 c 257
 1263 1257 l 257
 1075 1382 926 1395 841 1395 c 256
 464 1395 220 1125 220 706 c 256
 220 317 454 65 835 65 c 256
 971 65 1141 85 1249 135 c 257
 1249 645 l 257
 840 645 l 257
 840 731 l 257
 1345 731 l 257
 1345 80 l 257
 1201 10 1007 -21 833 -21 c 256
EndSplineSet
EndChar

StartChar: H
Encoding: 72 72 60
Width: 1558
VWidth: 0
GlyphClass: 2
Flags: W
PickledData: "(dp1
S'org.robofab.postScriptHintData'
p2
(dp3
sS'com.typemytype.robofont.layerData'
p4
(dp5
S'b'
(dp6
S'name'
p7
S'H'
sS'lib'
p8
(dp9
sS'unicodes'
p10
(tsS'width'
p11
F1576.45
sS'contours'
p12
(tsS'components'
p13
(tsS'anchors'
p14
(tsss."
AnchorPoint: "top" 790 1456 basechar 0
LayerCount: 2
Fore
SplineSet
224 0 m 257
 224 1456 l 257
 336 1456 l 257
 336 786 l 257
 1230 786 l 257
 1230 1456 l 257
 1334 1456 l 257
 1334 0 l 257
 1226 0 l 257
 1226 700 l 257
 332 700 l 257
 332 0 l 257
 224 0 l 257
EndSplineSet
EndChar

StartChar: Hbar
Encoding: 294 294 61
Width: 1594
VWidth: 0
GlyphClass: 2
Flags: W
PickledData: "(dp1
S'org.robofab.postScriptHintData'
p2
(dp3
sS'com.typemytype.robofont.layerData'
p4
(dp5
S'b'
(dp6
S'name'
p7
S'Hbar'
p8
sS'lib'
p9
(dp10
sS'unicodes'
p11
(tsS'width'
p12
F1532.55
sS'contours'
p13
(tsS'components'
p14
(tsS'anchors'
p15
(tsss."
LayerCount: 2
Fore
SplineSet
137 1223 m 257
 135 1280 l 257
 1452 1280 l 257
 1452 1223 l 257
 137 1223 l 257
EndSplineSet
Refer: 60 72 N 1 0 0 1 0 0 2
EndChar

StartChar: I
Encoding: 73 73 63
Width: 592
VWidth: 0
GlyphClass: 2
Flags: W
PickledData: "(dp1
S'org.robofab.postScriptHintData'
p2
(dp3
s."
AnchorPoint: "top" 298 1456 basechar 0
LayerCount: 2
Fore
SplineSet
242 0 m 257
 242 1456 l 257
 350 1456 l 257
 350 0 l 257
 242 0 l 257
EndSplineSet
EndChar

StartChar: J
Encoding: 74 74 77
Width: 667
VWidth: 0
GlyphClass: 2
Flags: W
PickledData: "(dp1
S'org.robofab.postScriptHintData'
p2
(dp3
sS'com.typemytype.robofont.layerData'
p4
(dp5
S'b'
(dp6
S'name'
p7
S'J'
sS'lib'
p8
(dp9
sS'unicodes'
p10
(tsS'width'
p11
F731.54999999999995
sS'contours'
p12
(tsS'components'
p13
(tsS'anchors'
p14
(tsss."
AnchorPoint: "top" 334 1456 basechar 0
LayerCount: 2
Fore
SplineSet
93 -312 m 256
 64 -312 33 -311 0 -310 c 257
 2 -223 l 257
 37 -225 69 -226 97 -226 c 256
 285 -226 335 -171 335 132 c 258
 335 1456 l 257
 443 1456 l 257
 443 132 l 258
 443 -250 329 -312 93 -312 c 256
EndSplineSet
EndChar

StartChar: K
Encoding: 75 75 79
Width: 1232
VWidth: 0
GlyphClass: 2
Flags: W
PickledData: "(dp1
S'org.robofab.postScriptHintData'
p2
(dp3
sS'com.typemytype.robofont.layerData'
p4
(dp5
S'b'
(dp6
S'name'
p7
S'K'
sS'lib'
p8
(dp9
sS'unicodes'
p10
(tsS'width'
p11
F1289.95
sS'contours'
p12
(tsS'components'
p13
(tsS'anchors'
p14
(tsss."
AnchorPoint: "top" 647 1456 basechar 0
LayerCount: 2
Fore
SplineSet
224 0 m 257
 224 1456 l 257
 332 1456 l 257
 332 774 l 257
 1046 1456 l 257
 1178 1456 l 257
 449 758 l 257
 1223 0 l 257
 1097 0 l 257
 330 745 l 257
 330 0 l 257
 224 0 l 257
EndSplineSet
EndChar

StartChar: L
Encoding: 76 76 82
Width: 1045
VWidth: 0
GlyphClass: 2
Flags: W
PickledData: "(dp1
S'org.robofab.postScriptHintData'
p2
(dp3
s."
AnchorPoint: "caron.alt" 301 1026 basechar 0
AnchorPoint: "top" 289 1456 basechar 0
LayerCount: 2
Fore
SplineSet
224 0 m 257
 224 1456 l 257
 332 1456 l 257
 332 86 l 257
 1013 86 l 257
 1013 0 l 257
 224 0 l 257
EndSplineSet
EndChar

StartChar: Lslash
Encoding: 321 321 88
Width: 1086
VWidth: 0
GlyphClass: 2
Flags: W
PickledData: "(dp1
S'org.robofab.postScriptHintData'
p2
(dp3
s."
LayerCount: 2
Fore
SplineSet
64 537 m 257
 64 612 l 257
 617 947 l 257
 617 873 l 257
 64 537 l 257
EndSplineSet
Refer: 82 76 N 1 0 0 1 0 0 2
EndChar

StartChar: M
Encoding: 77 77 89
Width: 1849
VWidth: 0
GlyphClass: 2
Flags: W
PickledData: "(dp1
S'org.robofab.postScriptHintData'
p2
(dp3
sS'com.typemytype.robofont.layerData'
p4
(dp5
S'b'
(dp6
S'name'
p7
S'M'
sS'lib'
p8
(dp9
sS'unicodes'
p10
(tsS'width'
p11
F1905.0999999999999
sS'contours'
p12
(tsS'components'
p13
(tsS'anchors'
p14
(tsss."
AnchorPoint: "top" 934 1456 basechar 0
LayerCount: 2
Fore
SplineSet
224 0 m 257
 224 1456 l 257
 362 1456 l 257
 835 359 l 257
 924 141 l 257
 1016 359 l 257
 1507 1456 l 257
 1625 1456 l 257
 1625 0 l 257
 1521 0 l 257
 1521 1279 l 257
 1467 1134 l 257
 954 0 l 257
 891 0 l 257
 396 1134 l 257
 328 1320 l 257
 328 0 l 257
 224 0 l 257
EndSplineSet
EndChar

StartChar: N
Encoding: 78 78 91
Width: 1571
VWidth: 0
GlyphClass: 2
Flags: W
PickledData: "(dp1
S'org.robofab.postScriptHintData'
p2
(dp3
sS'com.typemytype.robofont.layerData'
p4
(dp5
S'b'
(dp6
S'name'
p7
S'N'
sS'lib'
p8
(dp9
sS'unicodes'
p10
(tsS'width'
p11
F1578.1500000000001
sS'contours'
p12
(tsS'components'
p13
(tsS'anchors'
p14
(tsss."
AnchorPoint: "top" 819 1456 basechar 0
LayerCount: 2
Fore
SplineSet
224 0 m 257
 224 1456 l 257
 330 1456 l 257
 1114 335 l 257
 1241 142 l 257
 1241 1456 l 257
 1347 1456 l 257
 1347 0 l 257
 1242 0 l 257
 439 1137 l 257
 330 1303 l 257
 330 0 l 257
 224 0 l 257
EndSplineSet
EndChar

StartChar: O
Encoding: 79 79 98
Width: 1572
VWidth: 0
GlyphClass: 2
Flags: W
PickledData: "(dp1
S'org.robofab.postScriptHintData'
p2
(dp3
sS'com.typemytype.robofont.guides'
p4
((dp5
S'y'
I727
sS'x'
I231
sS'magnetic'
p6
I5
sS'angle'
p7
I0
sS'isGlobal'
p8
I00
s(dp9
S'y'
I1254
sS'x'
I804
sg6
I5
sg7
F90
sg8
I00
stp10
sS'com.typemytype.robofont.layerData'
p11
(dp12
S'b'
(dp13
S'name'
p14
S'O'
sS'lib'
p15
(dp16
sS'unicodes'
p17
(tsS'width'
p18
F1630.8
sS'contours'
p19
(tsS'components'
p20
(tsS'anchors'
p21
(tsss."
AnchorPoint: "top" 787 1456 basechar 0
LayerCount: 2
Fore
SplineSet
788 -21 m 256
 375 -21 110 270 110 723 c 256
 110 1184 373 1481 788 1481 c 256
 1196 1481 1462 1184 1462 723 c 256
 1462 270 1197 -21 788 -21 c 256
788 65 m 256
 1132 65 1352 323 1352 723 c 256
 1352 1132 1131 1395 788 1395 c 256
 442 1395 220 1132 220 723 c 256
 220 323 444 65 788 65 c 256
EndSplineSet
EndChar

StartChar: OE
Encoding: 338 338 99
Width: 2038
VWidth: 0
GlyphClass: 2
Flags: W
PickledData: "(dp1
S'org.robofab.postScriptHintData'
p2
(dp3
sS'com.typemytype.robofont.layerData'
p4
(dp5
S'b'
(dp6
S'name'
p7
S'OE'
p8
sS'lib'
p9
(dp10
sS'unicodes'
p11
(tsS'width'
p12
F2049.1500000000001
sS'contours'
p13
(tsS'components'
p14
(tsS'anchors'
p15
(tsss."
LayerCount: 2
Fore
SplineSet
826 66 m 256
 981 66 1112 129 1193 238 c 257
 1193 1239 l 257
 1122 1320 995 1395 826 1395 c 256
 377 1395 220 1006 220 726 c 256
 220 410 360 66 826 66 c 256
826 -20 m 256
 324 -26 110 321 110 726 c 256
 110 1143 360 1481 826 1481 c 256
 920 1481 1078 1454 1193 1344 c 257
 1193 1456 l 257
 1971 1456 l 257
 1971 1357 l 257
 1303 1357 l 257
 1303 796 l 257
 1932 796 l 257
 1932 698 l 257
 1301 698 l 257
 1301 99 l 257
 2002 99 l 257
 2002 0 l 257
 1193 0 l 257
 1193 135 l 257
 1120 47 984 -18 826 -20 c 256
EndSplineSet
EndChar

StartChar: Omega
Encoding: 937 937 111
Width: 1603
VWidth: 0
GlyphClass: 2
Flags: W
PickledData: "(dp1
S'org.robofab.postScriptHintData'
p2
(dp3
s."
LayerCount: 2
Fore
SplineSet
144 0 m 257
 134 90 l 257
 525 90 l 257
 302 227 139 439 139 747 c 256
 139 1159 435 1423 830 1423 c 256
 1240 1423 1496 1130 1496 748 c 256
 1496 431 1297 226 1106 90 c 257
 1505 90 l 257
 1495 0 l 257
 1015 0 l 257
 1013 86 l 257
 1227 228 1384 433 1384 725 c 256
 1384 1048 1195 1331 822 1331 c 256
 484 1331 252 1089 252 732 c 256
 252 440 399 228 619 86 c 257
 620 0 l 257
 144 0 l 257
EndSplineSet
EndChar

StartChar: Oslash
Encoding: 216 216 113
Width: 1572
VWidth: 0
GlyphClass: 2
Flags: W
PickledData: "(dp1
S'org.robofab.postScriptHintData'
p2
(dp3
sS'com.typemytype.robofont.layerData'
p4
(dp5
S'b'
(dp6
S'name'
p7
S'Oslash'
p8
sS'lib'
p9
(dp10
sS'unicodes'
p11
(tsS'width'
p12
F1663
sS'contours'
p13
(tsS'components'
p14
(tsS'anchors'
p15
(tsss."
LayerCount: 2
Fore
SplineSet
788 -21 m 256
 1197 -21 1462 270 1462 723 c 256
 1462 1007.27 1360.86 1229.17 1187.65 1357.54 c 257
 1305 1572 l 257
 1245 1605 l 257
 1129.85 1395.35 l 257
 1032.88 1451.03 917.605 1481 788 1481 c 256
 373 1481 110 1184 110 723 c 256
 110 430.876 220.2 206.121 409.225 83.3259 c 257
 297 -121 l 257
 360 -155 l 257
 471.16 48.1462 l 257
 562.675 3.07178 669.216 -21 788 -21 c 256
1140.48 1271.35 m 257
 1274.66 1155.8 1352 964.946 1352 723 c 256
 1352 323 1132 65 788 65 c 256
 685.866 65 594.311 87.7426 516.055 130.192 c 257
 1140.48 1271.35 l 257
1084.61 1312.99 m 257
 456.024 168.532 l 257
 307.077 279.41 220 473.605 220 723 c 256
 220 1132 442 1395 788 1395 c 256
 901.399 1395 1001.46 1366.25 1084.61 1312.99 c 257
EndSplineSet
EndChar

StartChar: P
Encoding: 80 80 116
Width: 1219
VWidth: 0
GlyphClass: 2
Flags: W
PickledData: "(dp1
S'org.robofab.postScriptHintData'
p2
(dp3
sS'com.typemytype.robofont.layerData'
p4
(dp5
S'b'
(dp6
S'name'
p7
S'P'
sS'lib'
p8
(dp9
sS'unicodes'
p10
(tsS'width'
p11
F1252.6500000000001
sS'contours'
p12
((dp13
S'points'
p14
((dp15
S'segmentType'
p16
S'line'
p17
sS'x'
F360
sS'smooth'
p18
I00
sS'y'
F828
s(dp19
g16
S'line'
p20
sS'x'
F580
sg18
I01
sS'y'
F828
s(dp21
S'y'
F828
sS'x'
F775
sg18
I00
s(dp22
S'y'
F881
sS'x'
F973
sg18
I00
s(dp23
g16
S'curve'
p24
sS'x'
F973
sg18
I01
sS'y'
F1077
s(dp25
S'y'
F1272
sS'x'
F973
sg18
I00
s(dp26
S'y'
F1308
sS'x'
F807
sg18
I00
s(dp27
g16
S'curve'
p28
sS'x'
F592
sg18
I01
sS'y'
F1308
s(dp29
g16
S'line'
p30
sS'x'
F360
sg18
I00
sS'y'
F1308
stp31
s(dp32
g14
((dp33
g16
S'line'
p34
sS'x'
F360
sg18
I00
sS'y'
F148
s(dp35
g16
S'line'
p36
sS'x'
F667
sg18
I01
sS'y'
F148
s(dp37
S'y'
F148
sS'x'
F906
sg18
I00
s(dp38
S'y'
F230
sS'x'
F1041
sg18
I00
s(dp39
g16
S'curve'
p40
sS'x'
F1041
sg18
I01
sS'y'
F406
s(dp41
S'y'
F617
sS'x'
F1041
sg18
I00
s(dp42
S'y'
F680
sS'x'
F889
sg18
I00
s(dp43
g16
S'curve'
p44
sS'x'
F610
sg18
I01
sS'y'
F680
s(dp45
g16
S'line'
p46
sS'x'
F360
sg18
I00
sS'y'
F680
stp47
s(dp48
g14
((dp49
g16
S'line'
p50
sS'x'
F188
sg18
I00
sS'y'
F0
s(dp51
g16
S'line'
p52
sS'x'
F188
sg18
I00
sS'y'
F1456
s(dp53
g16
S'line'
p54
sS'x'
F502
sg18
I01
sS'y'
F1456
s(dp55
S'y'
F1456
sS'x'
F765
sg18
I00
s(dp56
S'y'
F1443
sS'x'
F1154
sg18
I00
s(dp57
g16
S'curve'
p58
sS'x'
F1154
sg18
I01
sS'y'
F1105
s(dp59
S'y'
F944
sS'x'
F1154
sg18
I00
s(dp60
S'y'
F814
sS'x'
F1045
sg18
I00
s(dp61
g16
S'curve'
p62
sS'x'
F889
sg18
I00
sS'y'
F769
s(dp63
S'y'
F734
sS'x'
F1086
sg18
I00
s(dp64
S'y'
F605
sS'x'
F1223
sg18
I00
s(dp65
g16
S'curve'
p66
sS'x'
F1223
sg18
I01
sS'y'
F403
s(dp67
S'y'
F189
sS'x'
F1223
sg18
I00
s(dp68
S'y'
F0
sS'x'
F1059
sg18
I00
s(dp69
g16
S'curve'
p70
sS'x'
F739
sg18
I01
sS'y'
F0
stp71
stp72
sS'components'
p73
(tsS'anchors'
p74
(tsss."
AnchorPoint: "top" 649 1456 basechar 0
LayerCount: 2
Fore
SplineSet
332 787 m 257
 655 787 l 258
 947 787 1044 875 1044 1079 c 256
 1044 1292 927 1380 655 1370 c 257
 332 1370 l 257
 332 787 l 257
224 0 m 257
 224 1456 l 257
 655 1456 l 258
 999 1456 1147 1343 1147 1079 c 256
 1147 814 999 701 655 701 c 258
 332 701 l 257
 332 0 l 257
 224 0 l 257
EndSplineSet
EndChar

StartChar: Q
Encoding: 81 81 118
Width: 1572
VWidth: 0
GlyphClass: 2
Flags: W
PickledData: "(dp1
S'org.robofab.postScriptHintData'
p2
(dp3
sS'com.typemytype.robofont.layerData'
p4
(dp5
S'b'
(dp6
S'name'
p7
S'Q'
sS'lib'
p8
(dp9
sS'unicodes'
p10
(tsS'width'
p11
F1628.2
sS'contours'
p12
(tsS'components'
p13
(tsS'anchors'
p14
(tsss."
LayerCount: 2
Fore
SplineSet
1171 -405 m 257
 1233 -346 l 257
 1233 -346 1066.74 -179.74 966.492 -0.71408 c 257
 1272.43 72.5989 1462 339.854 1462 723 c 256
 1462 1184 1196 1481 788 1481 c 256
 373 1481 110 1184 110 723 c 256
 110 270 375 -21 788 -21 c 256
 820.128 -21 851.368 -19.2044 881.66 -15.6756 c 257
 977.018 -206.589 1171 -405 1171 -405 c 257
788 65 m 256
 444 65 220 323 220 723 c 256
 220 1132 442 1395 788 1395 c 256
 1131 1395 1352 1132 1352 723 c 256
 1352 323 1132 65 788 65 c 256
EndSplineSet
EndChar

StartChar: R
Encoding: 82 82 119
Width: 1373
VWidth: 0
GlyphClass: 2
Flags: W
PickledData: "(dp1
S'org.robofab.postScriptHintData'
p2
(dp3
sS'com.typemytype.robofont.layerData'
p4
(dp5
S'b'
(dp6
S'name'
p7
S'R'
sS'lib'
p8
(dp9
sS'unicodes'
p10
(tsS'width'
p11
F1341
sS'contours'
p12
((dp13
S'points'
p14
((dp15
S'segmentType'
p16
S'line'
p17
sS'x'
F360
sS'smooth'
p18
I00
sS'y'
F799
s(dp19
g16
S'line'
p20
sS'x'
F615
sg18
I01
sS'y'
F799
s(dp21
S'y'
F799
sS'x'
F795
sg18
I00
s(dp22
S'y'
F854
sS'x'
F932
sg18
I00
s(dp23
g16
S'curve'
p24
sS'x'
F932
sg18
I01
sS'y'
F1058
s(dp25
S'y'
F1259
sS'x'
F932
sg18
I00
s(dp26
S'y'
F1308
sS'x'
F833
sg18
I00
s(dp27
g16
S'curve'
p28
sS'x'
F626
sg18
I01
sS'y'
F1308
s(dp29
g16
S'line'
p30
sS'x'
F360
sg18
I00
sS'y'
F1308
stp31
s(dp32
g14
((dp33
g16
S'line'
p34
sS'x'
F188
sg18
I00
sS'y'
F0
s(dp35
g16
S'line'
p36
sS'x'
F188
sg18
I00
sS'y'
F1456
s(dp37
g16
S'line'
p38
sS'x'
F533
sg18
I01
sS'y'
F1456
s(dp39
S'y'
F1456
sS'x'
F771
sg18
I00
s(dp40
S'y'
F1452
sS'x'
F1114
sg18
I00
s(dp41
g16
S'curve'
p42
sS'x'
F1114
sg18
I01
sS'y'
F1074
s(dp43
S'y'
F890
sS'x'
F1114
sg18
I00
s(dp44
S'y'
F762
sS'x'
F1035
sg18
I00
s(dp45
g16
S'curve'
p46
sS'x'
F847
sg18
I00
sS'y'
F715
s(dp47
g16
S'line'
p48
sS'x'
F848
sg18
I00
sS'y'
F715
s(dp49
S'y'
F662
sS'x'
F1012
sg18
I00
s(dp50
S'y'
F510
sS'x'
F1039
sg18
I00
s(dp51
g16
S'curve'
p52
sS'x'
F1159
sg18
I01
sS'y'
F214
s(dp53
g16
S'line'
p54
sS'x'
F1246
sg18
I00
sS'y'
F0
s(dp55
g16
S'line'
p56
sS'x'
F1061
sg18
I00
sS'y'
F0
s(dp57
g16
S'line'
p58
sS'x'
F896
sg18
I01
sS'y'
F419
s(dp59
S'y'
F600
sS'x'
F825
sg18
I00
s(dp60
S'y'
F652
sS'x'
F797
sg18
I00
s(dp61
g16
S'curve'
p62
sS'x'
F619
sg18
I01
sS'y'
F652
s(dp63
g16
S'line'
p64
sS'x'
F360
sg18
I00
sS'y'
F652
s(dp65
g16
S'line'
p66
sS'x'
F360
sg18
I00
sS'y'
F0
stp67
stp68
sS'components'
p69
(tsS'anchors'
p70
(tsss."
AnchorPoint: "top" 592 1456 basechar 0
LayerCount: 2
Fore
SplineSet
335 758 m 257
 689 758 l 258
 931 758 1038 868 1038 1077 c 256
 1038 1292 921 1380 659 1370 c 257
 335 1370 l 257
 335 758 l 257
224 0 m 257
 224 1456 l 257
 659 1456 l 258
 996 1456 1141 1342 1141 1077 c 256
 1141 880 1044 731 843 714 c 257
 1009 686 1032 627 1101 431 c 258
 1252 0 l 257
 1151 0 l 257
 1007 408 l 258
 932 619 901 672 718 672 c 258
 332 672 l 257
 332 0 l 257
 224 0 l 257
EndSplineSet
EndChar

StartChar: S
Encoding: 83 83 125
Width: 1130
VWidth: 0
GlyphClass: 2
Flags: W
PickledData: "(dp1
S'org.robofab.postScriptHintData'
p2
(dp3
sS'com.typemytype.robofont.layerData'
p4
(dp5
S'b'
(dp6
S'name'
p7
S'S'
sS'lib'
p8
(dp9
sS'unicodes'
p10
(tsS'width'
p11
F1211
sS'contours'
p12
((dp13
S'points'
p14
((dp15
S'segmentType'
p16
S'curve'
p17
sS'x'
F596
sS'smooth'
p18
I01
sS'y'
F-23
s(dp19
S'y'
F-23
sS'x'
F321
sg18
I00
s(dp20
S'y'
F120
sS'x'
F158
sg18
I00
s(dp21
g16
S'curve'
p22
sS'x'
F140
sg18
I00
sS'y'
F141
s(dp23
g16
S'line'
p24
sS'x'
F219
sg18
I00
sS'y'
F271
s(dp25
S'y'
F243
sS'x'
F256
sg18
I00
s(dp26
S'y'
F125
sS'x'
F393
sg18
I00
s(dp27
g16
S'curve'
p28
sS'x'
F595
sg18
I01
sS'y'
F125
s(dp29
S'y'
F125
sS'x'
F797
sg18
I00
s(dp30
S'y'
F204
sS'x'
F898
sg18
I00
s(dp31
g16
S'curve'
p32
sS'x'
F898
sg18
I01
sS'y'
F360
s(dp33
S'y'
F536
sS'x'
F898
sg18
I00
s(dp34
S'y'
F601
sS'x'
F709
sg18
I00
s(dp35
g16
S'curve'
p36
sS'x'
F521
sg18
I01
sS'y'
F681
s(dp37
S'y'
F761
sS'x'
F333
sg18
I00
s(dp38
S'y'
F857
sS'x'
F145
sg18
I00
s(dp39
g16
S'curve'
p40
sS'x'
F145
sg18
I01
sS'y'
F1095
s(dp41
S'y'
F1350
sS'x'
F145
sg18
I00
s(dp42
S'y'
F1483
sS'x'
F357
sg18
I00
s(dp43
g16
S'curve'
p44
sS'x'
F620
sg18
I01
sS'y'
F1483
s(dp45
S'y'
F1483
sS'x'
F891
sg18
I00
s(dp46
S'y'
F1362
sS'x'
F1009
sg18
I00
s(dp47
g16
S'curve'
p48
sS'x'
F1034
sg18
I00
sS'y'
F1335
s(dp49
g16
S'line'
p50
sS'x'
F951
sg18
I00
sS'y'
F1217
s(dp51
S'y'
F1242
sS'x'
F921
sg18
I00
s(dp52
S'y'
F1334
sS'x'
F819
sg18
I00
s(dp53
g16
S'curve'
p54
sS'x'
F640
sg18
I01
sS'y'
F1334
s(dp55
S'y'
F1334
sS'x'
F478
sg18
I00
s(dp56
S'y'
F1270
sS'x'
F328
sg18
I00
s(dp57
g16
S'curve'
p58
sS'x'
F328
sg18
I01
sS'y'
F1105
s(dp59
S'y'
F934
sS'x'
F328
sg18
I00
s(dp60
S'y'
F868
sS'x'
F515
sg18
I00
s(dp61
g16
S'curve'
p62
sS'x'
F703
sg18
I01
sS'y'
F785
s(dp63
S'y'
F702
sS'x'
F891
sg18
I00
s(dp64
S'y'
F602
sS'x'
F1078
sg18
I00
s(dp65
g16
S'curve'
p66
sS'x'
F1078
sg18
I01
sS'y'
F364
s(dp67
S'y'
F78
sS'x'
F1078
sg18
I00
s(dp68
S'y'
F-23
sS'x'
F868
sg18
I00
stp69
stp70
sS'components'
p71
(tsS'anchors'
p72
(tsss."
AnchorPoint: "top" 607 1456 basechar 0
LayerCount: 2
Fore
SplineSet
586 -21 m 256
 305 -21 178 114 142 142 c 257
 193 216 l 257
 240 175 355 65 586 65 c 256
 800 65 933 186 939 361 c 256
 946 554 881 625 622 693 c 258
 473 732 l 258
 249 791 128 884 128 1113 c 256
 128 1342 296 1481 579 1481 c 256
 848 1481 947 1370 972 1351 c 257
 925 1277 l 257
 894 1309 791 1395 579 1395 c 256
 362 1395 236 1291 236 1113 c 256
 236 940 292 875 497 822 c 258
 645 784 l 258
 981 698 1047 585 1040 362 c 256
 1033 134 866 -21 586 -21 c 256
EndSplineSet
EndChar

StartChar: T
Encoding: 84 84 132
Width: 1097
VWidth: 0
GlyphClass: 2
Flags: W
PickledData: "(dp1
S'org.robofab.postScriptHintData'
p2
(dp3
s."
AnchorPoint: "top" 549 1456 basechar 0
LayerCount: 2
Fore
SplineSet
494 0 m 257
 494 1370 l 257
 8 1370 l 257
 8 1456 l 257
 1088 1456 l 257
 1088 1370 l 257
 602 1370 l 257
 602 0 l 257
 494 0 l 257
EndSplineSet
EndChar

StartChar: Thorn
Encoding: 222 222 137
Width: 1255
VWidth: 0
GlyphClass: 2
Flags: W
PickledData: "(dp1
S'org.robofab.postScriptHintData'
p2
(dp3
s."
LayerCount: 2
Fore
SplineSet
325 460 m 257
 631 460 l 258
 883 460 1067 558 1067 779 c 256
 1067 1043 868 1110 580 1110 c 258
 325 1110 l 257
 325 460 l 257
213 0 m 257
 213 1456 l 257
 324 1456 l 257
 324 1211 l 257
 564 1211 l 258
 902 1211 1184 1132 1184 783 c 256
 1184 486 961 358 643 358 c 258
 325 358 l 257
 325 0 l 257
 213 0 l 257
EndSplineSet
EndChar

StartChar: U
Encoding: 85 85 138
Width: 1480
VWidth: 0
GlyphClass: 2
Flags: W
PickledData: "(dp1
S'org.robofab.postScriptHintData'
p2
(dp3
sS'com.typemytype.robofont.layerData'
p4
(dp5
S'b'
(dp6
S'name'
p7
S'U'
sS'lib'
p8
(dp9
sS'unicodes'
p10
(tsS'width'
p11
F1496.9000000000001
sS'contours'
p12
(tsS'components'
p13
(tsS'anchors'
p14
(tsss."
AnchorPoint: "top" 747 1456 basechar 0
LayerCount: 2
Fore
SplineSet
732 -21 m 256
 368 -21 176 164 176 514 c 258
 176 1456 l 257
 284 1456 l 257
 284 506 l 258
 284 217 439 65 732 65 c 256
 1025 65 1180 217 1180 506 c 258
 1180 1456 l 257
 1288 1456 l 257
 1288 514 l 258
 1285 164 1093 -21 732 -21 c 256
EndSplineSet
EndChar

StartChar: V
Encoding: 86 86 152
Width: 1381
VWidth: 0
GlyphClass: 2
Flags: W
PickledData: "(dp1
S'org.robofab.postScriptHintData'
p2
(dp3
sS'com.typemytype.robofont.layerData'
p4
(dp5
S'b'
(dp6
S'name'
p7
S'V'
sS'lib'
p8
(dp9
sS'unicodes'
p10
(tsS'width'
p11
F1320.1500000000001
sS'contours'
p12
(tsS'components'
p13
(tsS'anchors'
p14
(tsss."
LayerCount: 2
Fore
SplineSet
628 0 m 257
 94 1456 l 257
 205 1456 l 257
 571 435 l 257
 693 90 l 257
 809 433 l 257
 1175 1456 l 257
 1287 1456 l 257
 758 0 l 257
 628 0 l 257
EndSplineSet
EndChar

StartChar: W
Encoding: 87 87 153
Width: 2037
VWidth: 0
GlyphClass: 2
Flags: W
PickledData: "(dp1
S'org.robofab.postScriptHintData'
p2
(dp3
sS'com.typemytype.robofont.layerData'
p4
(dp5
S'b'
(dp6
S'name'
p7
S'W'
sS'lib'
p8
(dp9
sS'unicodes'
p10
(tsS'width'
p11
F1988.8499999999999
sS'contours'
p12
(tsS'components'
p13
(tsS'anchors'
p14
(tsss."
AnchorPoint: "top" 1032 1456 basechar 0
LayerCount: 2
Fore
SplineSet
514 0 m 257
 138 1456 l 257
 252 1456 l 257
 563 214 l 257
 581 103 l 257
 608 214 l 257
 972 1456 l 257
 1081 1456 l 257
 1445 214 l 257
 1470 117 l 257
 1495 214 l 257
 1789 1456 l 257
 1899 1456 l 257
 1537 0 l 257
 1408 0 l 257
 1029 1320 l 257
 642 0 l 257
 514 0 l 257
EndSplineSet
EndChar

StartChar: X
Encoding: 88 88 158
Width: 1317
VWidth: 0
GlyphClass: 2
Flags: W
PickledData: "(dp1
S'org.robofab.postScriptHintData'
p2
(dp3
sS'com.typemytype.robofont.layerData'
p4
(dp5
S'b'
(dp6
S'name'
p7
S'X'
sS'lib'
p8
(dp9
sS'unicodes'
p10
(tsS'width'
p11
F1257.7
sS'contours'
p12
(tsS'components'
p13
(tsS'anchors'
p14
(tsss."
LayerCount: 2
Fore
SplineSet
120 0 m 257
 610 740 l 257
 132 1456 l 257
 251 1456 l 257
 668 814 l 257
 1066 1456 l 257
 1180 1456 l 257
 729 744 l 257
 1197 0 l 257
 1087 0 l 257
 674 664 l 257
 233 0 l 257
 120 0 l 257
EndSplineSet
EndChar

StartChar: Y
Encoding: 89 89 159
Width: 1235
VWidth: 0
GlyphClass: 2
Flags: W
PickledData: "(dp1
S'org.robofab.postScriptHintData'
p2
(dp3
sS'com.typemytype.robofont.layerData'
p4
(dp5
S'b'
(dp6
S'name'
p7
S'Y'
sS'lib'
p8
(dp9
sS'unicodes'
p10
(tsS'width'
p11
F1225.45
sS'contours'
p12
(tsS'components'
p13
(tsS'anchors'
p14
(tsss."
AnchorPoint: "top" 613 1456 basechar 0
LayerCount: 2
Fore
SplineSet
560 0 m 257
 560 591 l 257
 80 1456 l 257
 189 1456 l 257
 616 683 l 257
 1050 1456 l 257
 1155 1456 l 257
 668 594 l 257
 668 0 l 257
 560 0 l 257
EndSplineSet
EndChar

StartChar: Z
Encoding: 90 90 166
Width: 1182
VWidth: 0
GlyphClass: 2
Flags: W
PickledData: "(dp1
S'org.robofab.postScriptHintData'
p2
(dp3
sS'com.typemytype.robofont.layerData'
p4
(dp5
S'b'
(dp6
S'name'
p7
S'Z'
sS'lib'
p8
(dp9
sS'unicodes'
p10
(tsS'width'
p11
F1179.45
sS'contours'
p12
(tsS'components'
p13
(tsS'anchors'
p14
(tsss."
AnchorPoint: "top" 623 1456 basechar 0
LayerCount: 2
Fore
SplineSet
134 0 m 257
 134 61 l 257
 940 1370 l 257
 170 1370 l 257
 170 1456 l 257
 1070 1456 l 257
 1070 1399 l 257
 261 86 l 257
 1066 86 l 257
 1066 0 l 257
 134 0 l 257
EndSplineSet
EndChar

StartChar: a
Encoding: 97 97 170
Width: 1253
VWidth: 0
GlyphClass: 2
Flags: W
PickledData: "(dp1
S'org.robofab.postScriptHintData'
p2
(dp3
sS'com.typemytype.robofont.layerData'
p4
(dp5
S'b'
(dp6
S'name'
p7
S'a'
sS'lib'
p8
(dp9
sS'unicodes'
p10
(tsS'width'
p11
I1268
sS'contours'
p12
((dp13
S'points'
p14
((dp15
S'segmentType'
p16
S'curve'
p17
sS'x'
F595
sS'smooth'
p18
I01
sS'y'
F-22
s(dp19
S'y'
F-22
sS'x'
F262
sg18
I00
s(dp20
S'y'
F221
sS'x'
F100
sg18
I00
s(dp21
g16
S'curve'
p22
sS'x'
F100
sg18
I01
sS'y'
F518
s(dp23
S'y'
F824
sS'x'
F100
sg18
I00
s(dp24
S'y'
F1052
sS'x'
F287
sg18
I00
s(dp25
g16
S'curve'
p26
sS'x'
F603
sg18
I01
sS'y'
F1052
s(dp27
S'y'
F1052
sS'x'
F816
sg18
I00
s(dp28
S'y'
F903
sS'x'
F905
sg18
I00
s(dp29
g16
S'curve'
p30
sS'x'
F928
sg18
I00
sS'y'
F847
s(dp31
g16
S'line'
p32
sS'x'
F928
sg18
I00
sS'y'
F1026
s(dp33
g16
S'line'
p34
sS'x'
F1092
sg18
I00
sS'y'
F1026
s(dp35
g16
S'line'
p36
sS'x'
F1092
sg18
I00
sS'y'
F0
s(dp37
g16
S'line'
p38
sS'x'
F928
sg18
I00
sS'y'
F0
s(dp39
g16
S'line'
p40
sS'x'
F928
sg18
I00
sS'y'
F185
s(dp41
S'y'
F82
sS'x'
F881
sg18
I00
s(dp42
S'y'
F-22
sS'x'
F769
sg18
I00
stp43
s(dp44
g14
((dp45
g16
S'curve'
p46
sS'x'
F608
sg18
I01
sS'y'
F918
s(dp47
S'y'
F918
sS'x'
F359
sg18
I00
s(dp48
S'y'
F725
sS'x'
F270
sg18
I00
s(dp49
g16
S'curve'
p50
sS'x'
F270
sg18
I01
sS'y'
F516
s(dp51
S'y'
F308
sS'x'
F270
sg18
I00
s(dp52
S'y'
F112
sS'x'
F364
sg18
I00
s(dp53
g16
S'curve'
p54
sS'x'
F609
sg18
I01
sS'y'
F112
s(dp55
S'y'
F112
sS'x'
F813
sg18
I00
s(dp56
S'y'
F277
sS'x'
F934
sg18
I00
s(dp57
g16
S'curve'
p58
sS'x'
F934
sg18
I01
sS'y'
F526
s(dp59
S'y'
F734
sS'x'
F934
sg18
I00
s(dp60
S'y'
F918
sS'x'
F826
sg18
I00
stp61
stp62
sS'components'
p63
(tsS'anchors'
p64
(tsss."
AnchorPoint: "top" 588 1026 basechar 0
LayerCount: 2
Fore
SplineSet
581 61 m 256
 814 61 947 242 947 524 c 256
 947 795 804 970 581 970 c 256
 347 970 196 795 196 524 c 256
 196 242 347 61 581 61 c 256
577 -21 m 256
 284 -21 96 192 96 524 c 256
 96 845 286 1052 581 1052 c 256
 757 1052 890 957 947 825 c 257
 947 1026 l 257
 1045 1026 l 257
 1045 0 l 257
 947 0 l 257
 947 215 l 257
 886 77 761 -21 577 -21 c 256
EndSplineSet
EndChar

StartChar: acute
Encoding: 180 180 175
Width: 607
VWidth: 0
GlyphClass: 4
Flags: W
PickledData: "(dp1
S'org.robofab.postScriptHintData'
p2
(dp3
s."
AnchorPoint: "top" 145 1026 mark 0
LayerCount: 2
Fore
SplineSet
119 1174 m 257
 315 1456 l 257
 447 1456 l 257
 174 1174 l 257
 119 1174 l 257
EndSplineSet
EndChar

StartChar: ae
Encoding: 230 230 179
Width: 1811
VWidth: 0
GlyphClass: 2
Flags: W
PickledData: "(dp1
S'org.robofab.postScriptHintData'
p2
(dp3
sS'com.typemytype.robofont.layerData'
p4
(dp5
S'b'
(dp6
S'name'
p7
S'ae'
p8
sS'lib'
p9
(dp10
sS'unicodes'
p11
(tsS'width'
p12
F1790.05
sS'contours'
p13
(tsS'components'
p14
((dp15
S'transformation'
p16
(I1
I0
I0
I1
I642
I0
tp17
sS'baseGlyph'
p18
S'e'
stp19
sS'anchors'
p20
(tsss."
AnchorPoint: "top" 920 1026 basechar 0
LayerCount: 2
Fore
SplineSet
963 578 m 257
 1640 578 l 257
 1639 608 l 258
 1634 762 1543 970 1307 970 c 256
 1092 970 963 760 963 578 c 257
471 61 m 256
 729 61 851 250 849 507 c 257
 627 507 l 258
 306 507 196 471 196 280 c 256
 196 122 325 61 471 61 c 256
471 -20 m 256
 252 -20 100 91 100 274 c 256
 100 538 291 578 643 578 c 258
 845 578 l 257
 846 801 733 970 530 970 c 256
 341 970 228 911 178 885 c 257
 144 964 l 257
 179 981 303 1052 530 1052 c 256
 729 1052 872 941 907 767 c 257
 969 933 1119 1052 1307 1052 c 256
 1552 1052 1727 873 1727 527 c 258
 1727 509 l 257
 963 509 l 257
 963 474 l 258
 963 270 1061 61 1313 61 c 256
 1515 61 1642 177 1642 177 c 257
 1678 108 l 257
 1678 108 1543 -21 1313 -21 c 256
 1108 -21 957 105 903 279 c 257
 865 137 733 -20 471 -20 c 256
EndSplineSet
EndChar

StartChar: ampersand
Encoding: 38 38 185
Width: 1470
VWidth: 0
GlyphClass: 2
Flags: W
PickledData: "(dp1
S'org.robofab.postScriptHintData'
p2
(dp3
sS'com.typemytype.robofont.layerData'
p4
(dp5
S'b'
(dp6
S'name'
p7
S'ampersand'
p8
sS'lib'
p9
(dp10
sS'unicodes'
p11
(tsS'width'
p12
F1539.95
sS'contours'
p13
(tsS'components'
p14
(tsS'anchors'
p15
(tsss."
LayerCount: 2
Fore
SplineSet
571 870 m 257
 697 942 846 1066 846 1204 c 256
 846 1342 731 1400 629 1400 c 256
 511 1400 412 1333 412 1206 c 256
 412 1084 471 967 571 870 c 257
623 75 m 256
 815 75 921 147 1025 264 c 257
 553 770 l 257
 396 685 267 597 267 399 c 256
 267 212 403 75 623 75 c 256
630 -18 m 256
 356 -18 154 133 154 396 c 256
 154 626 328 728 501 832 c 257
 407 936 325 1055 325 1209 c 256
 325 1389 458 1484 626 1484 c 256
 779 1484 937 1398 937 1214 c 256
 937 1048 780 910 625 825 c 257
 1065 347 l 257
 1155 468 1232 685 1232 850 c 257
 1324 849 l 257
 1309 649 1243 432 1131 278 c 257
 1124 287 1250 103 1446 65 c 257
 1373 1 l 257
 1276 16 1061 217 1076 197 c 257
 969 66 837 -18 630 -18 c 256
EndSplineSet
EndChar

StartChar: approxequal
Encoding: 8776 8776 187
Width: 1351
VWidth: 0
GlyphClass: 2
Flags: W
PickledData: "(dp1
S'org.robofab.postScriptHintData'
p2
(dp3
s."
LayerCount: 2
Fore
SplineSet
237 285 m 257
 190 294 l 257
 221 436 317 520 462 520 c 256
 551 520 630 479 706 435 c 256
 784 385 859 345 937 345 c 256
 1044 345 1104 407 1144 512 c 257
 1190 500 l 257
 1165 365 1076 275 930 275 c 256
 852 275 784 305 666 372 c 256
 588 420 529 448 455 448 c 256
 333 448 270 382 237 285 c 257
234 673 m 257
 187 688 l 257
 220 827 318 911 459 911 c 256
 540 911 614 876 705 824 c 256
 803 765 866 739 935 739 c 256
 1042 739 1105 796 1141 906 c 257
 1188 890 l 257
 1163 757 1075 665 927 665 c 256
 851 665 773 703 662 766 c 256
 586 810 522 839 454 839 c 256
 328 839 262 777 234 673 c 257
EndSplineSet
EndChar

StartChar: asciicircum
Encoding: 94 94 190
Width: 1721
VWidth: 0
GlyphClass: 2
Flags: W
PickledData: "(dp1
S'org.robofab.postScriptHintData'
p2
(dp3
sS'com.typemytype.robofont.layerData'
p4
(dp5
S'b'
(dp6
S'name'
p7
S'asciicircum'
p8
sS'lib'
p9
(dp10
sS'unicodes'
p11
(tsS'width'
p12
F1623.3499999999999
sS'contours'
p13
(tsS'components'
p14
(tsS'anchors'
p15
(tsss."
LayerCount: 2
Fore
SplineSet
388 604 m 257
 827 1456 l 257
 884 1456 l 257
 1333 604 l 257
 1250 604 l 257
 855 1362 l 257
 469 604 l 257
 388 604 l 257
EndSplineSet
EndChar

StartChar: asciitilde
Encoding: 126 126 191
Width: 917
VWidth: 0
GlyphClass: 2
Flags: W
PickledData: "(dp1
S'org.robofab.postScriptHintData'
p2
(dp3
s."
LayerCount: 2
Fore
SplineSet
30 420 m 257
 -25 447 l 257
 3 574 60 633 217 633 c 256
 283 633 356 615 433 591 c 257
 590 533 625 519 690 519 c 256
 800 519 860 606 883 697 c 257
 942 677 l 257
 908 533 830 432 686 432 c 256
 629 432 550 461 468 487 c 257
 314 547 296 546 217 546 c 256
 91 546 50 513 30 420 c 257
EndSplineSet
EndChar

StartChar: asterisk
Encoding: 42 42 192
Width: 1190
VWidth: 0
GlyphClass: 2
Flags: W
PickledData: "(dp1
S'org.robofab.postScriptHintData'
p2
(dp3
sS'com.typemytype.robofont.guides'
p4
((dp5
S'y'
I1149
sS'x'
I567
sS'magnetic'
p6
I5
sS'angle'
p7
I0
sS'isGlobal'
p8
I00
stp9
sS'com.typemytype.robofont.layerData'
p10
(dp11
S'b'
(dp12
S'name'
p13
S'asterisk'
p14
sS'lib'
p15
(dp16
sS'unicodes'
p17
(tsS'width'
p18
F1107.9000000000001
sS'contours'
p19
(tsS'components'
p20
(tsS'anchors'
p21
(tsss."
LayerCount: 2
Fore
SplineSet
776 799 m 257
 622 1083 l 257
 478 814 l 257
 399 852 l 257
 563 1099 l 257
 303 1165 l 257
 317 1260 l 257
 585 1146 l 257
 555 1460 l 257
 639 1460 l 257
 647 1146 l 257
 867 1260 l 257
 917 1165 l 257
 676 1099 l 257
 859 834 l 257
 776 799 l 257
EndSplineSet
EndChar

StartChar: at
Encoding: 64 64 193
Width: 1707
VWidth: 0
GlyphClass: 2
Flags: W
PickledData: "(dp1
S'org.robofab.postScriptHintData'
p2
(dp3
sS'com.typemytype.robofont.layerData'
p4
(dp5
S'b'
(dp6
S'name'
p7
S'at'
p8
sS'lib'
p9
(dp10
sS'unicodes'
p11
(tsS'width'
p12
F1771.2
sS'contours'
p13
(tsS'components'
p14
(tsS'anchors'
p15
(tsss."
LayerCount: 2
Fore
SplineSet
771 345 m 256
 958 345 1090 519 1109 789 c 256
 1121 966 1047 1071 921 1080 c 256
 702 1096 561 898 561 614 c 256
 561 450 643 345 771 345 c 256
899 -66 m 256
 419 -66 110 212 110 681 c 256
 110 1152 414 1471 887 1471 c 256
 1319 1471 1584 1213 1584 806 c 256
 1584 469 1402 276 1198 276 c 256
 1104 276 1032 341 1062 470 c 257
 1015 356 903 280 767 280 c 256
 593 280 481 409 481 609 c 256
 481 937 655 1164 926 1148 c 256
 1058 1140 1145 1053 1152 923 c 257
 1198 1108 l 257
 1271 1108 l 257
 1135 556 l 258
 1118 487 1110 439 1110 408 c 256
 1110 360 1147 330 1204 330 c 256
 1388 330 1511 522 1511 806 c 256
 1511 1164 1264 1405 887 1405 c 256
 468 1405 199 1103 199 681 c 256
 199 258 473 0 899 0 c 256
 1132 0 1338 83 1425 202 c 257
 1482 166 l 257
 1402 22 1174 -66 899 -66 c 256
EndSplineSet
EndChar

StartChar: b
Encoding: 98 98 195
Width: 1259
VWidth: 0
GlyphClass: 2
Flags: W
PickledData: "(dp1
S'org.robofab.postScriptHintData'
p2
(dp3
sS'com.typemytype.robofont.layerData'
p4
(dp5
S'b'
(dp6
S'name'
p7
S'b'
sS'lib'
p8
(dp9
sS'unicodes'
p10
(tsS'width'
p11
F1270.0999999999999
sS'contours'
p12
(tsS'components'
p13
(tsS'anchors'
p14
(tsss."
AnchorPoint: "top" 675 1026 basechar 0
LayerCount: 2
Fore
SplineSet
696 61 m 256
 930 61 1062 241 1062 520 c 256
 1062 794 930 970 696 970 c 256
 451 970 294 794 294 520 c 256
 294 241 451 61 696 61 c 256
696 -21 m 256
 508 -21 350 81 293 239 c 257
 288 0 l 257
 189 0 l 258
 189 2 196 162 196 268 c 258
 196 1516 l 257
 294 1516 l 257
 294 799 l 257
 357 953 515 1052 696 1052 c 256
 978 1052 1160 844 1160 520 c 256
 1160 191 978 -21 696 -21 c 256
EndSplineSet
EndChar

StartChar: backslash
Encoding: 92 92 196
Width: 791
VWidth: 0
GlyphClass: 2
Flags: W
PickledData: "(dp1
S'org.robofab.postScriptHintData'
p2
(dp3
s."
LayerCount: 2
Fore
SplineSet
574 66 m 257
 138 1456 l 257
 234 1456 l 257
 670 66 l 257
 574 66 l 257
EndSplineSet
EndChar

StartChar: bar
Encoding: 124 124 197
Width: 1685
VWidth: 0
GlyphClass: 2
Flags: W
PickledData: "(dp1
S'org.robofab.postScriptHintData'
p2
(dp3
s."
LayerCount: 2
Fore
SplineSet
794 -517 m 257
 794 1572 l 257
 891 1572 l 257
 891 -517 l 257
 794 -517 l 257
EndSplineSet
EndChar

StartChar: braceleft
Encoding: 123 123 199
Width: 908
VWidth: 0
GlyphClass: 2
Flags: W
PickledData: "(dp1
S'org.robofab.postScriptHintData'
p2
(dp3
s."
LayerCount: 2
Fore
SplineSet
462 1159 m 258
 462 870 l 258
 462 696 407 592 284 555 c 257
 407 519 462 415 462 241 c 258
 462 -48 l 258
 462 -153 462 -217 744 -213 c 257
 744 -290 l 257
 374 -290 366 -175 366 -48 c 258
 366 241 l 258
 366 418 327 507 102 535 c 257
 102 576 l 257
 327 604 366 693 366 870 c 258
 366 1159 l 258
 366 1286 374 1401 744 1401 c 257
 744 1324 l 257
 462 1328 462 1264 462 1159 c 258
EndSplineSet
EndChar

StartChar: braceright
Encoding: 125 125 200
Width: 846
VWidth: 0
GlyphClass: 2
Flags: W
PickledData: "(dp1
S'org.robofab.postScriptHintData'
p2
(dp3
s."
LayerCount: 2
Fore
SplineSet
105 -290 m 257
 105 -213 l 257
 387 -217 387 -153 387 -48 c 258
 387 241 l 258
 387 415 442 519 565 555 c 257
 442 592 387 696 387 870 c 258
 387 1159 l 258
 387 1264 387 1328 105 1324 c 257
 105 1401 l 257
 475 1401 483 1286 483 1159 c 258
 483 870 l 258
 483 693 522 604 747 576 c 257
 747 535 l 257
 522 507 483 418 483 241 c 258
 483 -48 l 258
 483 -175 475 -290 105 -290 c 257
EndSplineSet
EndChar

StartChar: bracketleft
Encoding: 91 91 201
Width: 715
VWidth: 0
GlyphClass: 2
Flags: W
PickledData: "(dp1
S'org.robofab.postScriptHintData'
p2
(dp3
s."
LayerCount: 2
Fore
SplineSet
212 -322 m 257
 212 1423 l 257
 608 1423 l 257
 608 1349 l 257
 309 1349 l 257
 309 -248 l 257
 609 -248 l 257
 609 -322 l 257
 212 -322 l 257
EndSplineSet
EndChar

StartChar: bracketright
Encoding: 93 93 202
Width: 715
VWidth: 0
GlyphClass: 2
Flags: W
PickledData: "(dp1
S'org.robofab.postScriptHintData'
p2
(dp3
s."
LayerCount: 2
Fore
SplineSet
174 -322 m 257
 174 -248 l 257
 478 -248 l 257
 478 1349 l 257
 172 1349 l 257
 172 1423 l 257
 574 1423 l 257
 574 -322 l 257
 174 -322 l 257
EndSplineSet
EndChar

StartChar: breve
Encoding: 728 728 203
Width: 503
VWidth: 0
GlyphClass: 4
Flags: W
PickledData: "(dp1
S'org.robofab.postScriptHintData'
p2
(dp3
sS'com.typemytype.robofont.layerData'
p4
(dp5
S'b'
(dp6
S'name'
p7
S'breve'
p8
sS'lib'
p9
(dp10
sS'unicodes'
p11
(tsS'width'
p12
F621.60000000000002
sS'contours'
p13
(tsS'components'
p14
(tsS'anchors'
p15
(tsss."
AnchorPoint: "top" 255 1026 mark 0
LayerCount: 2
Fore
SplineSet
253 1162 m 256
 107 1162 46 1233 34 1376 c 257
 109 1376 l 257
 113 1287 151 1238 253 1238 c 256
 356 1238 382 1297 396 1376 c 257
 469 1376 l 257
 459 1239 385 1162 253 1162 c 256
EndSplineSet
EndChar

StartChar: brokenbar
Encoding: 166 166 204
Width: 500
VWidth: 0
GlyphClass: 2
Flags: W
PickledData: "(dp1
S'org.robofab.postScriptHintData'
p2
(dp3
s."
LayerCount: 2
Fore
SplineSet
209 756 m 257
 209 1572 l 257
 305 1572 l 257
 305 756 l 257
 209 756 l 257
208 -517 m 257
 208 377 l 257
 303 377 l 257
 303 -517 l 257
 208 -517 l 257
EndSplineSet
EndChar

StartChar: bullet
Encoding: 8226 8226 205
Width: 991
VWidth: 0
GlyphClass: 2
Flags: W
PickledData: "(dp1
S'org.robofab.postScriptHintData'
p2
(dp3
sS'com.typemytype.robofont.layerData'
p4
(dp5
S'b'
(dp6
S'name'
p7
S'bullet'
p8
sS'lib'
p9
(dp10
sS'unicodes'
p11
(tsS'width'
p12
F989.64999999999998
sS'contours'
p13
(tsS'components'
p14
(tsS'anchors'
p15
(tsss."
LayerCount: 2
Fore
SplineSet
493 404 m 256
 320 404 186 538 186 702 c 256
 186 871 317 1010 493 1010 c 256
 665 1010 805 867 805 702 c 256
 805 533 671 404 493 404 c 256
EndSplineSet
EndChar

StartChar: c
Encoding: 99 99 207
Width: 1022
VWidth: 0
GlyphClass: 2
Flags: W
PickledData: "(dp1
S'org.robofab.postScriptHintData'
p2
(dp3
sS'com.typemytype.robofont.layerData'
p4
(dp5
S'b'
(dp6
S'name'
p7
S'c'
sS'lib'
p8
(dp9
sS'unicodes'
p10
(tsS'width'
p11
F1035.55
sS'contours'
p12
((dp13
S'points'
p14
((dp15
S'segmentType'
p16
S'curve'
p17
sS'x'
F605
sS'smooth'
p18
I01
sS'y'
F-22
s(dp19
S'y'
F-22
sS'x'
F302
sg18
I00
s(dp20
S'y'
F180
sS'x'
F98
sg18
I00
s(dp21
g16
S'curve'
p22
sS'x'
F98
sg18
I01
sS'y'
F503
s(dp23
S'y'
F840
sS'x'
F98
sg18
I00
s(dp24
S'y'
F1052
sS'x'
F301
sg18
I00
s(dp25
g16
S'curve'
p26
sS'x'
F624
sg18
I01
sS'y'
F1052
s(dp27
S'y'
F1052
sS'x'
F750
sg18
I00
s(dp28
S'y'
F1001
sS'x'
F871
sg18
I00
s(dp29
g16
S'curve'
p30
sS'x'
F938
sg18
I00
sS'y'
F922
s(dp31
g16
S'line'
p32
sS'x'
F890
sg18
I00
sS'y'
F805
s(dp33
S'y'
F874
sS'x'
F825
sg18
I00
s(dp34
S'y'
F918
sS'x'
F721
sg18
I00
s(dp35
g16
S'curve'
p36
sS'x'
F619
sg18
I01
sS'y'
F918
s(dp37
S'y'
F918
sS'x'
F406
sg18
I00
s(dp38
S'y'
F756
sS'x'
F268
sg18
I00
s(dp39
g16
S'curve'
p40
sS'x'
F268
sg18
I01
sS'y'
F505
s(dp41
S'y'
F260
sS'x'
F268
sg18
I00
s(dp42
S'y'
F112
sS'x'
F407
sg18
I00
s(dp43
g16
S'curve'
p44
sS'x'
F611
sg18
I01
sS'y'
F112
s(dp45
S'y'
F112
sS'x'
F716
sg18
I00
s(dp46
S'y'
F145
sS'x'
F827
sg18
I00
s(dp47
g16
S'curve'
p48
sS'x'
F901
sg18
I00
sS'y'
F202
s(dp49
g16
S'line'
p50
sS'x'
F953
sg18
I00
sS'y'
F87
s(dp51
S'y'
F19
sS'x'
F873
sg18
I00
s(dp52
S'y'
F-22
sS'x'
F747
sg18
I00
stp53
stp54
sS'components'
p55
(tsS'anchors'
p56
(tsss."
AnchorPoint: "top" 580 1026 basechar 0
LayerCount: 2
Fore
SplineSet
612 -21 m 256
 298 -21 96 184 96 502 c 256
 96 837 302 1052 622 1052 c 256
 741 1052 863 1013 933 952 c 257
 900 880 l 257
 835 937 737 970 622 970 c 256
 363 970 196 787 196 502 c 256
 196 234 359 61 612 61 c 256
 742 61 847 102 930 167 c 257
 964 100 l 257
 889 26 752 -21 612 -21 c 256
EndSplineSet
EndChar

StartChar: caron
Encoding: 711 711 209
Width: 699
VWidth: 0
GlyphClass: 4
Flags: W
PickledData: "(dp1
S'org.robofab.postScriptHintData'
p2
(dp3
s."
AnchorPoint: "top" 345 1026 mark 0
LayerCount: 2
Fore
SplineSet
287 1215 m 257
 77 1483 l 257
 155 1483 l 257
 341 1262 l 257
 535 1483 l 257
 622 1483 l 257
 412 1215 l 257
 287 1215 l 257
EndSplineSet
EndChar

StartChar: caron.alt
Encoding: 65537 -1 210
Width: 600
VWidth: 0
GlyphClass: 4
Flags: W
PickledData: "(dp1
S'org.robofab.postScriptHintData'
p2
(dp3
s."
AnchorPoint: "caron.alt" 79 1026 mark 0
LayerCount: 2
Fore
SplineSet
327 1082 m 257
 430 1515 l 257
 547 1515 l 257
 397 1082 l 257
 327 1082 l 257
EndSplineSet
EndChar

StartChar: cedilla
Encoding: 184 184 215
Width: 529
VWidth: 0
GlyphClass: 2
Flags: W
PickledData: "(dp1
S'org.robofab.postScriptHintData'
p2
(dp3
sS'com.typemytype.robofont.layerData'
p4
(dp5
S'b'
(dp6
S'name'
p7
S'cedilla'
p8
sS'lib'
p9
(dp10
sS'unicodes'
p11
(tsS'width'
p12
I529
sS'contours'
p13
(tsS'components'
p14
(tsS'anchors'
p15
(tsss."
LayerCount: 2
Fore
SplineSet
240 -389 m 256
 158 -386 99 -356 86 -350 c 257
 98 -292 l 257
 121 -303 183 -319 231 -321 c 256
 326 -325 349 -301 349 -254 c 256
 349 -201 270 -189 173 -189 c 258
 167 -189 l 257
 201 5 l 257
 260 5 l 257
 236 -139 l 257
 317 -142 438 -154 438 -261 c 256
 438 -375 325 -392 240 -389 c 256
EndSplineSet
EndChar

StartChar: cent
Encoding: 162 162 216
Width: 969
VWidth: 0
GlyphClass: 2
Flags: W
PickledData: "(dp1
S'org.robofab.postScriptHintData'
p2
(dp3
sS'com.typemytype.robofont.layerData'
p4
(dp5
S'b'
(dp6
S'name'
p7
S'cent'
p8
sS'lib'
p9
(dp10
sS'unicodes'
p11
(tsS'width'
p12
F1033.2
sS'contours'
p13
(tsS'components'
p14
(tsS'anchors'
p15
(tsss."
LayerCount: 2
Fore
SplineSet
561 -178 m 257
 636 -178 l 257
 636 -20.5418 l 257
 767.48 -15.531 893.293 30.2357 964 100 c 257
 930 167 l 257
 852.169 106.048 754.994 66.2003 636 61.473 c 257
 636 969.836 l 257
 744.948 967.265 837.654 934.673 900 880 c 257
 933 952 l 257
 865.743 1010.61 750.482 1048.91 636 1051.82 c 257
 636 1254 l 257
 561 1254 l 257
 561 1049.29 l 257
 276.061 1023.51 96 815.199 96 502 c 256
 96 201.568 276.298 1.99526 561 -19.1385 c 257
 561 -178 l 257
561 966.451 m 257
 561 63.4393 l 257
 337.308 85.2956 196 252.469 196 502 c 256
 196 763.949 337.078 939.73 561 966.451 c 257
EndSplineSet
EndChar

StartChar: circumflex
Encoding: 710 710 217
Width: 699
VWidth: 0
GlyphClass: 4
Flags: W
PickledData: "(dp1
S'org.robofab.postScriptHintData'
p2
(dp3
sS'com.typemytype.robofont.layerData'
p4
(dp5
S'b'
(dp6
S'name'
p7
S'circumflex'
p8
sS'lib'
p9
(dp10
sS'unicodes'
p11
(tsS'width'
p12
I699
sS'contours'
p13
(tsS'components'
p14
(tsS'anchors'
p15
(tsss."
AnchorPoint: "top" 345 1026 mark 0
LayerCount: 2
Fore
SplineSet
116 1215 m 257
 322 1487 l 257
 379 1487 l 257
 580 1215 l 257
 524 1215 l 257
 344 1400 l 257
 166 1215 l 257
 116 1215 l 257
EndSplineSet
EndChar

StartChar: colon
Encoding: 58 58 218
Width: 476
VWidth: 0
GlyphClass: 2
Flags: W
PickledData: "(dp1
S'org.robofab.postScriptHintData'
p2
(dp3
sS'com.typemytype.robofont.layerData'
p4
(dp5
S'b'
(dp6
S'name'
p7
S'colon'
p8
sS'lib'
p9
(dp10
sS'unicodes'
p11
(tsS'width'
p12
F544.60000000000002
sS'contours'
p13
(tsS'components'
p14
(tsS'anchors'
p15
(tsss."
LayerCount: 2
Fore
SplineSet
161 857 m 257
 161 1024 l 257
 315 1024 l 257
 315 857 l 257
 161 857 l 257
161 7 m 257
 161 175 l 257
 315 175 l 257
 315 7 l 257
 161 7 l 257
EndSplineSet
EndChar

StartChar: comma
Encoding: 44 44 219
Width: 410
VWidth: 0
GlyphClass: 2
Flags: W
PickledData: "(dp1
S'org.robofab.postScriptHintData'
p2
(dp3
sS'com.typemytype.robofont.layerData'
p4
(dp5
S'b'
(dp6
S'name'
p7
S'comma'
p8
sS'lib'
p9
(dp10
sS'unicodes'
p11
(tsS'width'
p12
F491.10000000000002
sS'contours'
p13
(tsS'components'
p14
(tsS'anchors'
p15
(tsss."
LayerCount: 2
Fore
SplineSet
98 -256 m 257
 201 164 l 257
 319 164 l 257
 168 -256 l 257
 98 -256 l 257
EndSplineSet
EndChar

StartChar: copyright
Encoding: 169 169 220
Width: 1748
VWidth: 0
GlyphClass: 2
Flags: W
PickledData: "(dp1
S'org.robofab.postScriptHintData'
p2
(dp3
sS'com.typemytype.robofont.layerData'
p4
(dp5
S'b'
(dp6
S'name'
p7
S'copyright'
p8
sS'lib'
p9
(dp10
sS'unicodes'
p11
(tsS'width'
p12
I1733
sS'contours'
p13
(tsS'components'
p14
(tsS'anchors'
p15
(tsss."
LayerCount: 2
Fore
SplineSet
873 -38 m 256
 454 -38 110 304 110 724 c 256
 110 1143 454 1487 873 1487 c 256
 1293 1487 1638 1143 1638 724 c 256
 1638 304 1293 -38 873 -38 c 256
876 46 m 256
 1242 46 1541 354 1541 719 c 256
 1541 1086 1242 1393 876 1393 c 256
 508 1393 209 1086 209 719 c 256
 209 354 508 46 876 46 c 256
896 266 m 256
 649 266 472 412 472 714 c 256
 472 1020 671 1185 909 1185 c 256
 993 1185 1087 1155 1145 1100 c 257
 1118 1038 l 257
 1062 1084 973 1108 902 1108 c 256
 767 1108 561 1031 561 716 c 256
 561 486 680 342 881 342 c 256
 957 342 1063 354 1142 414 c 257
 1172 351 l 257
 1122 306 1024 266 896 266 c 256
EndSplineSet
EndChar

StartChar: currency
Encoding: 164 164 221
Width: 1218
VWidth: 0
GlyphClass: 2
Flags: W
PickledData: "(dp1
S'org.robofab.postScriptHintData'
p2
(dp3
s."
LayerCount: 2
Fore
SplineSet
609 714 m 256
 783 714 911 856 911 1030 c 256
 911 1204 783 1335 609 1335 c 256
 435 1335 307 1204 307 1030 c 256
 307 856 435 714 609 714 c 256
171 547 m 257
 120 598 l 257
 307 785 l 257
 252 851 219 935 219 1028 c 256
 219 1125 255 1213 314 1280 c 257
 119 1475 l 257
 170 1526 l 257
 367 1330 l 257
 433 1382 518 1413 610 1413 c 256
 702 1413 786 1382 853 1331 c 257
 1048 1526 l 257
 1099 1475 l 257
 906 1282 l 257
 966 1214 1002 1126 1002 1028 c 256
 1002 935 969 850 913 783 c 257
 1099 598 l 257
 1048 547 l 257
 862 733 l 257
 794 677 706 643 610 643 c 256
 514 643 426 677 358 734 c 257
 171 547 l 257
EndSplineSet
EndChar

StartChar: d
Encoding: 100 100 222
Width: 1256
VWidth: 0
GlyphClass: 2
Flags: W
PickledData: "(dp1
S'org.robofab.postScriptHintData'
p2
(dp3
sS'com.typemytype.robofont.layerData'
p4
(dp5
S'b'
(dp6
S'name'
p7
S'd'
sS'lib'
p8
(dp9
sS'unicodes'
p10
(tsS'width'
p11
F1265.05
sS'contours'
p12
(tsS'components'
p13
(tsS'anchors'
p14
(tsss."
AnchorPoint: "top" 581 1026 basechar 0
AnchorPoint: "caron.alt" 911 1026 basechar 0
LayerCount: 2
Fore
SplineSet
560 61 m 256
 805 61 962 241 962 520 c 256
 962 794 805 970 560 970 c 256
 326 970 194 794 194 520 c 256
 194 241 326 61 560 61 c 256
560 -21 m 256
 278 -21 96 191 96 520 c 256
 96 844 278 1052 560 1052 c 256
 741 1052 899 953 962 799 c 257
 962 1516 l 257
 1060 1516 l 257
 1060 268 l 258
 1060 162 1067 2 1067 0 c 258
 968 0 l 257
 963 239 l 257
 906 81 748 -21 560 -21 c 256
EndSplineSet
EndChar

StartChar: dagger
Encoding: 8224 8224 223
Width: 1022
VWidth: 0
GlyphClass: 2
Flags: W
PickledData: "(dp1
S'org.robofab.postScriptHintData'
p2
(dp3
s."
LayerCount: 2
Fore
SplineSet
453 0 m 257
 453 989 l 257
 118 989 l 257
 118 1068 l 257
 453 1068 l 257
 453 1473 l 257
 561 1473 l 257
 561 1068 l 257
 896 1068 l 257
 896 989 l 257
 561 989 l 257
 561 0 l 257
 453 0 l 257
EndSplineSet
EndChar

StartChar: daggerdbl
Encoding: 8225 8225 224
Width: 971
VWidth: 0
GlyphClass: 2
Flags: W
PickledData: "(dp1
S'org.robofab.postScriptHintData'
p2
(dp3
sS'com.typemytype.robofont.layerData'
p4
(dp5
S'b'
(dp6
S'name'
p7
S'daggerdbl'
p8
sS'lib'
p9
(dp10
sS'unicodes'
p11
(tsS'width'
p12
F1092.6500000000001
sS'contours'
p13
(tsS'components'
p14
(tsS'anchors'
p15
(tsss."
LayerCount: 2
Fore
SplineSet
89 1068 m 257
 424 1068 l 257
 424 1473 l 257
 532 1473 l 257
 532 1068 l 257
 867 1068 l 257
 867 989 l 257
 532 989 l 257
 532 484 l 257
 867 484 l 257
 867 405 l 257
 532 405 l 257
 532 0 l 257
 424 0 l 257
 424 405 l 257
 89 405 l 257
 89 484 l 257
 424 484 l 257
 424 989 l 257
 89 989 l 257
 89 1068 l 257
EndSplineSet
EndChar

StartChar: degree
Encoding: 176 176 228
Width: 812
VWidth: 0
GlyphClass: 2
Flags: W
PickledData: "(dp1
S'org.robofab.postScriptHintData'
p2
(dp3
sS'com.typemytype.robofont.layerData'
p4
(dp5
S'b'
(dp6
S'name'
p7
S'degree'
p8
sS'lib'
p9
(dp10
sS'unicodes'
p11
(tsS'width'
p12
F856.60000000000002
sS'contours'
p13
(tsS'components'
p14
(tsS'anchors'
p15
(tsss."
LayerCount: 2
Fore
SplineSet
406 859 m 256
 233 859 115 991 115 1145 c 256
 115 1300 231 1428 406 1428 c 256
 580 1428 697 1300 697 1145 c 256
 697 991 578 859 406 859 c 256
406 945 m 256
 541 945 601 1044 601 1147 c 256
 601 1250 536 1345 406 1345 c 256
 275 1345 209 1250 209 1147 c 256
 209 1044 270 945 406 945 c 256
EndSplineSet
EndChar

StartChar: dieresis
Encoding: 168 168 229
Width: 743
VWidth: 0
GlyphClass: 4
Flags: W
PickledData: "(dp1
S'org.robofab.postScriptHintData'
p2
(dp3
s."
AnchorPoint: "top" 375 1026 mark 0
LayerCount: 2
Fore
SplineSet
492 1210 m 257
 492 1318 l 257
 591 1318 l 257
 591 1210 l 257
 492 1210 l 257
156 1210 m 257
 156 1318 l 257
 254 1318 l 257
 254 1210 l 257
 156 1210 l 257
EndSplineSet
EndChar

StartChar: divide
Encoding: 247 247 230
Width: 1006
VWidth: 0
GlyphClass: 2
Flags: W
PickledData: "(dp1
S'org.robofab.postScriptHintData'
p2
(dp3
s."
LayerCount: 2
Fore
SplineSet
461 896 m 257
 461 1063 l 257
 616 1063 l 257
 616 896 l 257
 461 896 l 257
128 511 m 257
 128 602 l 257
 933 602 l 257
 933 511 l 257
 128 511 l 257
458 49 m 257
 458 215 l 257
 613 215 l 257
 612 49 l 257
 458 49 l 257
EndSplineSet
EndChar

StartChar: dollar
Encoding: 36 36 232
Width: 1143
VWidth: 0
GlyphClass: 2
Flags: W
PickledData: "(dp1
S'org.robofab.postScriptHintData'
p2
(dp3
sS'com.typemytype.robofont.layerData'
p4
(dp5
S'b'
(dp6
S'name'
p7
S'dollar'
p8
sS'lib'
p9
(dp10
sS'unicodes'
p11
(tsS'width'
p12
F1200.0999999999999
sS'contours'
p13
(tsS'components'
p14
(tsS'anchors'
p15
(tsss."
LayerCount: 2
Fore
SplineSet
558 -193 m 257
 633 -193 l 257
 633 -19.4894 l 257
 884.609 -3.00134 1033.4 147.062 1040 362 c 256
 1047 585 981 698 645 784 c 258
 633 787.081 l 257
 633 1393.06 l 257
 808.75 1380.13 896.757 1306.15 925 1277 c 257
 972 1351 l 257
 948.749 1368.67 861.491 1465.92 633 1479.44 c 257
 633 1622 l 257
 558 1622 l 257
 558 1480.74 l 257
 287.708 1474 128 1336.28 128 1113 c 256
 128 884 249 791 473 732 c 258
 558 709.752 l 257
 558 65.5491 l 257
 345.627 73.9584 238.061 176.691 193 216 c 257
 142 142 l 257
 176.782 114.948 296.509 -11.9859 558 -20.5456 c 257
 558 -193 l 257
633 67.0345 m 257
 633 690.079 l 257
 882.846 622.943 945.9 551.238 939 361 c 256
 933.452 199.193 819.332 83.5515 633 67.0345 c 257
558 1394.67 m 257
 558 806.338 l 257
 497 822 l 258
 292 875 236 940 236 1113 c 256
 236 1285.18 353.892 1388.12 558 1394.67 c 257
EndSplineSet
EndChar

StartChar: dotaccent
Encoding: 729 729 233
Width: 524
VWidth: 0
GlyphClass: 4
Flags: W
PickledData: "(dp1
S'org.robofab.postScriptHintData'
p2
(dp3
sS'com.typemytype.robofont.layerData'
p4
(dp5
S'b'
(dp6
S'name'
p7
S'dotaccent'
p8
sS'lib'
p9
(dp10
sS'unicodes'
p11
(tsS'width'
p12
F524
sS'contours'
p13
(tsS'components'
p14
(tsS'anchors'
p15
(tsss."
AnchorPoint: "top" 263 1026 mark 0
LayerCount: 2
Fore
SplineSet
201 1238 m 257
 201 1364 l 257
 323 1364 l 257
 323 1238 l 257
 201 1238 l 257
EndSplineSet
EndChar

StartChar: dotlessi
Encoding: 305 305 234
Width: 473
VWidth: 0
GlyphClass: 2
Flags: W
PickledData: "(dp1
S'org.robofab.postScriptHintData'
p2
(dp3
s."
AnchorPoint: "top" 238 1026 basechar 0
LayerCount: 2
Fore
SplineSet
187 0 m 257
 185 1026 l 257
 286 1026 l 257
 288 0 l 257
 187 0 l 257
EndSplineSet
EndChar

StartChar: dotlessj
Encoding: 567 567 235
Width: 503
VWidth: 0
GlyphClass: 2
Flags: W
PickledData: "(dp1
S'org.robofab.postScriptHintData'
p2
(dp3
s."
AnchorPoint: "top" 269 1026 basechar 0
LayerCount: 2
Fore
SplineSet
307 23 m 258
 307 -212.392 250.878 -413.788 0.967389 -413.788 c 256
 -23.1723 -413.788 -49.1201 -411.909 -77 -408 c 257
 -79 -331 l 257
 -54.0351 -334.255 -31.0909 -335.898 -10.0235 -335.898 c 256
 162.204 -335.898 209 -226.116 209 10 c 258
 209 1026 l 257
 307 1026 l 257
 307 23 l 258
EndSplineSet
EndChar

StartChar: e
Encoding: 101 101 238
Width: 1133
VWidth: 0
GlyphClass: 2
Flags: W
PickledData: "(dp1
S'org.robofab.postScriptHintData'
p2
(dp3
sS'com.typemytype.robofont.guides'
p4
(tsS'com.typemytype.robofont.layerData'
p5
(dp6
S'b'
(dp7
S'name'
p8
S'e'
sS'lib'
p9
(dp10
sS'unicodes'
p11
(tsS'width'
p12
F1169.75
sS'contours'
p13
(tsS'components'
p14
(tsS'anchors'
p15
(tsss."
AnchorPoint: "top" 586 1026 basechar 0
LayerCount: 2
Fore
SplineSet
202 578 m 257
 963 578 l 257
 950 817 805 970 592 970 c 256
 374 970 221 817 202 578 c 257
616 -21 m 256
 300 -21 96 186 96 508 c 256
 96 839 290 1052 592 1052 c 256
 868 1052 1045 861 1045 565 c 258
 1045 507 l 257
 196 507 l 257
 193 236 357 61 616 61 c 256
 745 61 871 106 962 177 c 257
 998 108 l 257
 903 29 754 -21 616 -21 c 256
EndSplineSet
EndChar

StartChar: eight
Encoding: 56 56 247
Width: 1178
VWidth: 0
GlyphClass: 2
Flags: W
PickledData: "(dp1
S'org.robofab.postScriptHintData'
p2
(dp3
sS'com.typemytype.robofont.layerData'
p4
(dp5
S'b'
(dp6
S'name'
p7
S'eight'
p8
sS'lib'
p9
(dp10
sS'unicodes'
p11
(tsS'width'
p12
F1235.45
sS'contours'
p13
(tsS'components'
p14
(tsS'anchors'
p15
(tsss."
LayerCount: 2
Fore
SplineSet
589 822 m 257
 802 855 916 949 916 1116 c 256
 916 1302 763 1400 590 1400 c 256
 425 1400 266 1299 266 1124 c 256
 266 950 380 857 589 822 c 257
588 71 m 256
 794 71 942 184 942 374 c 256
 942 573 801 657 584 697 c 257
 378 656 234 562 234 376 c 256
 234 177 387 71 588 71 c 256
586 -23 m 256
 362 -23 129 112 129 361 c 256
 129 562 245 707 475 762 c 257
 273 808 166 941 166 1125 c 256
 166 1350 362 1483 591 1483 c 256
 803 1483 1014 1354 1014 1132 c 256
 1014 949 903 817 703 765 c 257
 945 706 1049 571 1049 367 c 256
 1049 118 832 -23 586 -23 c 256
EndSplineSet
EndChar

StartChar: ellipsis
Encoding: 8230 8230 249
Width: 1620
VWidth: 0
GlyphClass: 2
Flags: W
PickledData: "(dp1
S'org.robofab.postScriptHintData'
p2
(dp3
s."
LayerCount: 2
Fore
SplineSet
1301 -11 m 257
 1301 156 l 257
 1456 156 l 257
 1456 -11 l 257
 1301 -11 l 257
747 -11 m 257
 747 156 l 257
 900 156 l 257
 899 -11 l 257
 747 -11 l 257
192 -11 m 257
 192 156 l 257
 346 156 l 257
 345 -11 l 257
 192 -11 l 257
EndSplineSet
EndChar

StartChar: emdash
Encoding: 8212 8212 251
Width: 2171
VWidth: 0
GlyphClass: 2
Flags: W
PickledData: "(dp1
S'org.robofab.postScriptHintData'
p2
(dp3
s."
LayerCount: 2
Fore
SplineSet
-42 515 m 257
 -42 604 l 257
 2183 604 l 257
 2183 515 l 257
 -42 515 l 257
EndSplineSet
EndChar

StartChar: endash
Encoding: 8211 8211 252
Width: 1067
VWidth: 0
GlyphClass: 2
Flags: W
PickledData: "(dp1
S'org.robofab.postScriptHintData'
p2
(dp3
s."
LayerCount: 2
Fore
SplineSet
-13 515 m 257
 -13 604 l 257
 1065 604 l 257
 1065 515 l 257
 -13 515 l 257
EndSplineSet
EndChar

StartChar: eng
Encoding: 331 331 253
Width: 1295
VWidth: 0
GlyphClass: 2
Flags: W
PickledData: "(dp1
S'org.robofab.postScriptHintData'
p2
(dp3
s."
LayerCount: 2
Fore
SplineSet
698 -390 m 257
 698 -306 l 257
 1008 -306 1000 -111 1000 164 c 258
 1000 481 l 258
 1000 750 977 963 695 963 c 256
 415 963 305 724 304 678 c 258
 304 0 l 257
 202 0 l 257
 202 880 l 258
 202 918 206 1026 206 1026 c 257
 300 1026 l 257
 308 888 l 257
 405 997 517 1050 709 1050 c 256
 1063 1050 1103 775 1103 525 c 258
 1103 156 l 258
 1103 -169 1085 -390 698 -390 c 257
EndSplineSet
EndChar

StartChar: equal
Encoding: 61 61 255
Width: 1040
VWidth: 0
GlyphClass: 2
Flags: W
PickledData: "(dp1
S'org.robofab.postScriptHintData'
p2
(dp3
sS'com.typemytype.robofont.layerData'
p4
(dp5
S'b'
(dp6
S'name'
p7
S'equal'
p8
sS'lib'
p9
(dp10
sS'unicodes'
p11
(tsS'width'
p12
I1229
sS'contours'
p13
(tsS'components'
p14
(tsS'anchors'
p15
(tsss."
LayerCount: 2
Fore
SplineSet
110 705 m 257
 110 798 l 257
 930 798 l 257
 930 705 l 257
 110 705 l 257
112 333 m 257
 112 425 l 257
 930 425 l 257
 930 333 l 257
 112 333 l 257
EndSplineSet
EndChar

StartChar: estimated
Encoding: 8494 8494 256
Width: 1184
VWidth: 0
GlyphClass: 2
Flags: W
PickledData: "(dp1
S'org.robofab.postScriptHintData'
p2
(dp3
s."
LayerCount: 2
Fore
SplineSet
276 713 m 257
 918 713 l 257
 918 1037 789 1141 609 1141 c 256
 449 1141 278 1036 276 713 c 257
627 114 m 256
 342 114 146 294 146 652 c 256
 146 1050 378 1199 611 1199 c 256
 846 1199 1024 1075 1024 700 c 256
 1024 689 1023 671 1019 655 c 257
 276 655 l 257
 274 283 452 176 652 176 c 256
 754 176 904 218 1029 299 c 257
 1056 247 l 257
 920 158 769 114 627 114 c 256
EndSplineSet
EndChar

StartChar: eth
Encoding: 240 240 257
Width: 1231
VWidth: 0
GlyphClass: 2
Flags: W
PickledData: "(dp1
S'org.robofab.postScriptHintData'
p2
(dp3
sS'com.typemytype.robofont.layerData'
p4
(dp5
S'b'
(dp6
S'name'
p7
S'eth'
p8
sS'lib'
p9
(dp10
sS'unicodes'
p11
(tsS'width'
p12
F1222.55
sS'contours'
p13
(tsS'components'
p14
(tsS'anchors'
p15
(tsss."
LayerCount: 2
Fore
SplineSet
619 60 m 256
 862 60 993 227 993 485 c 256
 993 676 832 809 602 809 c 256
 362 809 225 661 225 431 c 256
 225 205 372 60 619 60 c 256
619 -22 m 256
 311 -22 125 155 125 431 c 256
 125 711 301 891 602 891 c 256
 821 891 955 778 1014 676 c 257
 1000 935 910 1134 688 1287 c 257
 527 1163 l 257
 477 1230 l 257
 612 1334 l 257
 522 1386 414 1431 286 1472 c 257
 329 1549 l 257
 462 1509 583 1458 689 1393 c 257
 854 1520 l 257
 906 1455 l 257
 762 1344 l 257
 970 1189 1099 959 1099 603 c 256
 1099 211 935 -22 619 -22 c 256
EndSplineSet
EndChar

StartChar: exclam
Encoding: 33 33 259
Width: 442
VWidth: 0
GlyphClass: 2
Flags: W
PickledData: "(dp1
S'org.robofab.postScriptHintData'
p2
(dp3
sS'com.typemytype.robofont.layerData'
p4
(dp5
S'b'
(dp6
S'name'
p7
S'exclam'
p8
sS'lib'
p9
(dp10
sS'unicodes'
p11
(tsS'width'
p12
F590
sS'contours'
p13
(tsS'components'
p14
(tsS'anchors'
p15
(tsss."
LayerCount: 2
Fore
SplineSet
196 363 m 257
 164 1456 l 257
 284 1456 l 257
 252 363 l 257
 196 363 l 257
143 0 m 257
 143 160 l 257
 300 160 l 257
 300 0 l 257
 143 0 l 257
EndSplineSet
EndChar

StartChar: exclamdown
Encoding: 161 161 260
Width: 391
VWidth: 0
GlyphClass: 2
Flags: W
PickledData: "(dp1
S'org.robofab.postScriptHintData'
p2
(dp3
sS'com.typemytype.robofont.layerData'
p4
(dp5
S'b'
(dp6
S'name'
p7
S'exclamdown'
p8
sS'lib'
p9
(dp10
sS'unicodes'
p11
(tsS'width'
p12
F614.5
sS'contours'
p13
(tsS'components'
p14
(tsS'anchors'
p15
(tsss."
LayerCount: 2
Fore
SplineSet
108 1104 m 257
 265 1104 l 257
 265 944 l 257
 108 944 l 257
 108 1104 l 257
161 741 m 257
 217 741 l 257
 249 -352 l 257
 129 -352 l 257
 161 741 l 257
EndSplineSet
EndChar

StartChar: f
Encoding: 102 102 261
Width: 604
VWidth: 0
GlyphClass: 2
Flags: W
PickledData: "(dp1
S'org.robofab.postScriptHintData'
p2
(dp3
sS'com.typemytype.robofont.layerData'
p4
(dp5
S'b'
(dp6
S'name'
p7
S'f'
sS'lib'
p8
(dp9
sS'unicodes'
p10
(tsS'width'
p11
F733.10000000000002
sS'contours'
p12
(tsS'components'
p13
(tsS'anchors'
p14
(tsss."
AnchorPoint: "top" 282 1456 basechar 0
LayerCount: 2
Fore
SplineSet
242 0 m 257
 242 961 l 257
 68 961 l 257
 68 1026 l 257
 242 1026 l 257
 242 1184 l 258
 242 1406 295 1499 581 1499 c 258
 616 1499 l 257
 616 1416 l 257
 348 1416 340 1362 340 1209 c 258
 340 1026 l 257
 603 1026 l 257
 603 961 l 257
 340 961 l 257
 340 0 l 257
 242 0 l 257
EndSplineSet
EndChar

StartChar: f_f
Encoding: 64256 64256 262
Width: 1205
VWidth: 0
GlyphClass: 2
Flags: W
PickledData: "(dp1
S'org.robofab.postScriptHintData'
p2
(dp3
s."
AnchorPoint: "top" 882 1456 basechar 0
LayerCount: 2
Fore
SplineSet
940 961 m 257
 940 0 l 257
 842 0 l 257
 842 961 l 257
 338 961 l 257
 338 0 l 257
 240 0 l 257
 240 961 l 257
 66 961 l 257
 66 1026 l 257
 240 1026 l 257
 240 1172 l 258
 240 1394 293 1499 579 1499 c 258
 620 1499 l 257
 627 1416 l 257
 356 1416 338 1342 338 1209 c 258
 338 1026 l 257
 842 1026 l 257
 842 1172 l 258
 842 1394 895 1499 1181 1499 c 258
 1222 1499 l 257
 1229 1416 l 257
 958 1416 940 1342 940 1209 c 258
 940 1026 l 257
 1203 1026 l 257
 1203 961 l 257
 940 961 l 257
EndSplineSet
EndChar

StartChar: f_f_i
Encoding: 64259 64259 263
Width: 1696
VWidth: 0
GlyphClass: 2
Flags: W
PickledData: "(dp1
S'org.robofab.postScriptHintData'
p2
(dp3
s."
AnchorPoint: "top" 882 1456 basechar 0
LayerCount: 2
Fore
SplineSet
1494 1346 m 257
 1396 1346 l 257
 1396 1456 l 257
 1494 1456 l 257
 1494 1346 l 257
1494 0 m 257
 1396 0 l 257
 1396 961 l 257
 940 961 l 257
 940 0 l 257
 842 0 l 257
 842 961 l 257
 338 961 l 257
 338 0 l 257
 240 0 l 257
 240 961 l 257
 66 961 l 257
 66 1026 l 257
 240 1026 l 257
 240 1172 l 258
 240 1394 293 1499 579 1499 c 258
 620 1499 l 257
 627 1416 l 257
 356 1416 338 1342 338 1209 c 258
 338 1026 l 257
 842 1026 l 257
 842 1172 l 258
 842 1394 895 1499 1181 1499 c 258
 1222 1499 l 257
 1229 1416 l 257
 958 1416 940 1342 940 1209 c 258
 940 1026 l 257
 1494 1026 l 257
 1494 0 l 257
EndSplineSet
EndChar

StartChar: f_f_l
Encoding: 64260 64260 264
Width: 1714
VWidth: 0
GlyphClass: 2
Flags: W
PickledData: "(dp1
S'org.robofab.postScriptHintData'
p2
(dp3
s."
AnchorPoint: "top" 280 1456 basechar 0
LayerCount: 2
Fore
SplineSet
240 0 m 257
 240 961 l 257
 66 961 l 257
 66 1026 l 257
 240 1026 l 257
 240 1172 l 258
 240 1394 293 1499 579 1499 c 258
 620 1499 l 257
 627 1416 l 257
 356 1416 338 1342 338 1209 c 258
 338 1026 l 257
 601 1026 l 257
 601 961 l 257
 338 961 l 257
 338 0 l 257
 240 0 l 257
EndSplineSet
Refer: 269 64258 N 1 0 0 1 505 0 2
EndChar

StartChar: fi
Encoding: 64257 64257 266
Width: 1174
VWidth: 0
GlyphClass: 2
Flags: W
PickledData: "(dp1
S'org.robofab.postScriptHintData'
p2
(dp3
sS'com.typemytype.robofont.layerData'
p4
(dp5
S'b'
(dp6
S'name'
p7
S'fi'
p8
sS'lib'
p9
(dp10
sS'unicodes'
p11
(tsS'width'
p12
F1237.6500000000001
sS'contours'
p13
((dp14
S'points'
p15
((dp16
S'segmentType'
p17
S'line'
p18
sS'x'
F249
sS'smooth'
p19
I00
sS'y'
F0
s(dp20
g17
S'line'
p21
sS'x'
F249
sg19
I00
sS'y'
F919
s(dp22
g17
S'line'
p23
sS'x'
F68
sg19
I00
sS'y'
F919
s(dp24
g17
S'line'
p25
sS'x'
F68
sg19
I00
sS'y'
F1026
s(dp26
g17
S'line'
p27
sS'x'
F249
sg19
I00
sS'y'
F1026
s(dp28
g17
S'line'
p29
sS'x'
F249
sg19
I01
sS'y'
F1127
s(dp30
S'y'
F1378
sS'x'
F249
sg19
I00
s(dp31
S'y'
F1492
sS'x'
F295
sg19
I00
s(dp32
g17
S'curve'
p33
sS'x'
F630
sg19
I01
sS'y'
F1492
s(dp34
g17
S'line'
p35
sS'x'
F676
sg19
I00
sS'y'
F1492
s(dp36
g17
S'line'
p37
sS'x'
F676
sg19
I00
sS'y'
F1364
s(dp38
S'y'
F1364
sS'x'
F431
sg19
I00
s(dp39
S'y'
F1311
sS'x'
F413
sg19
I00
s(dp40
g17
S'curve'
p41
sS'x'
F413
sg19
I01
sS'y'
F1150
s(dp42
g17
S'line'
p43
sS'x'
F413
sg19
I00
sS'y'
F1026
s(dp44
g17
S'line'
p45
sS'x'
F662
sg19
I00
sS'y'
F1026
s(dp46
g17
S'line'
p47
sS'x'
F662
sg19
I00
sS'y'
F919
s(dp48
g17
S'line'
p49
sS'x'
F413
sg19
I00
sS'y'
F919
s(dp50
g17
S'line'
p51
sS'x'
F413
sg19
I00
sS'y'
F0
stp52
s(dp53
g15
((dp54
g17
S'line'
p55
sS'x'
F869
sg19
I00
sS'y'
F0
s(dp56
g17
S'line'
p57
sS'x'
F869
sg19
I00
sS'y'
F1026
s(dp58
g17
S'line'
p59
sS'x'
F1033
sg19
I00
sS'y'
F1026
s(dp60
g17
S'line'
p61
sS'x'
F1033
sg19
I00
sS'y'
F0
stp62
s(dp63
g15
((dp64
g17
S'line'
p65
sS'x'
F869
sg19
I00
sS'y'
F1307
s(dp66
g17
S'line'
p67
sS'x'
F869
sg19
I00
sS'y'
F1462
s(dp68
g17
S'line'
p69
sS'x'
F1033
sg19
I00
sS'y'
F1462
s(dp70
g17
S'line'
p71
sS'x'
F1033
sg19
I00
sS'y'
F1307
stp72
stp73
sS'components'
p74
(tsS'anchors'
p75
(tsss."
LayerCount: 2
Fore
SplineSet
242 0 m 257
 354 0 l 257
 354 954 l 257
 853 954 l 257
 853 0 l 257
 951 0 l 257
 951 1026 l 257
 354 1026 l 257
 354 1198 l 258
 354 1336 371 1407 638 1407 c 257
 632 1497 l 257
 590 1497 l 258
 296 1497 242 1391 242 1164 c 258
 242 1026 l 257
 67 1026 l 257
 67 954 l 257
 242 954 l 257
 242 0 l 257
853 1346 m 257
 853 1456 l 257
 951 1456 l 257
 951 1346 l 257
 853 1346 l 257
EndSplineSet
EndChar

StartChar: five
Encoding: 53 53 267
Width: 1177
VWidth: 0
GlyphClass: 2
Flags: W
PickledData: "(dp1
S'org.robofab.postScriptHintData'
p2
(dp3
s."
LayerCount: 2
Fore
SplineSet
557 -22 m 256
 419 -22 273 21 152 109 c 257
 188 187 l 257
 309 104 444 60 567 60 c 256
 775 60 946 184 946 449 c 256
 946 667 805 807 587 807 c 256
 457 807 337 748 280 656 c 257
 198 673 l 257
 218 1456 l 257
 951 1456 l 257
 951 1367 l 257
 315 1367 l 257
 287 771 l 257
 351 845 469 893 587 893 c 256
 872 893 1056 718 1056 447 c 256
 1056 135 819 -22 557 -22 c 256
EndSplineSet
EndChar

StartChar: fl
Encoding: 64258 64258 269
Width: 1229
VWidth: 0
GlyphClass: 2
Flags: W
PickledData: "(dp1
S'org.robofab.postScriptHintData'
p2
(dp3
sS'com.typemytype.robofont.layerData'
p4
(dp5
S'b'
(dp6
S'name'
p7
S'fl'
p8
sS'lib'
p9
(dp10
sS'unicodes'
p11
(tsS'width'
p12
F1252.7
sS'contours'
p13
(tsS'components'
p14
((dp15
S'transformation'
p16
(I1
I0
I0
I1
I20
I0
tp17
sS'baseGlyph'
p18
S'f'
s(dp19
g16
(I1
I0
I0
I1
I714
I0
tp20
sg18
S'l'
stp21
sS'anchors'
p22
(tsss."
LayerCount: 2
Fore
SplineSet
276 0 m 257
 276 961 l 257
 67 961 l 257
 67 1026 l 257
 276 1026 l 257
 276 1155 l 258
 276 1388 376 1468 785 1468 c 258
 1027 1468 l 257
 1027 0 l 257
 914 0 l 257
 914 1380 l 257
 753 1380 l 258
 434 1380 388 1332 388 1161 c 258
 388 1026 l 257
 648 1026 l 257
 648 961 l 257
 388 961 l 257
 388 0 l 257
 276 0 l 257
EndSplineSet
EndChar

StartChar: florin
Encoding: 402 402 270
Width: 1016
VWidth: 0
GlyphClass: 2
Flags: W
PickledData: "(dp1
S'org.robofab.postScriptHintData'
p2
(dp3
sS'com.typemytype.robofont.layerData'
p4
(dp5
S'b'
(dp6
S'name'
p7
S'florin'
p8
sS'lib'
p9
(dp10
sS'unicodes'
p11
(tsS'width'
p12
F1073.0999999999999
sS'contours'
p13
(tsS'components'
p14
(tsS'anchors'
p15
(tsss."
LayerCount: 2
Fore
SplineSet
197 -277 m 256
 150 -277 131 -271 97 -263 c 257
 106 -172 l 257
 106 -172 149 -185 171 -185 c 256
 305 -185 351 -92 363 -34 c 258
 555 1034 l 257
 382 1034 l 257
 385 1113 l 257
 567 1113 l 257
 572 1151 l 258
 599 1360 675 1492 878 1492 c 256
 909 1492 996 1473 996 1473 c 257
 981 1382 l 257
 981 1382 933 1401 882 1401 c 256
 716 1401 697 1316 684 1237 c 257
 655 1113 l 257
 899 1113 l 257
 883 1034 l 257
 650 1034 l 257
 492 137 l 258
 456 -73 467 -277 197 -277 c 256
EndSplineSet
EndChar

StartChar: foundryicon
Encoding: 65539 -1 271
Width: 1347
VWidth: 0
GlyphClass: 2
Flags: W
PickledData: "(dp1
S'org.robofab.postScriptHintData'
p2
(dp3
s."
LayerCount: 2
Fore
SplineSet
485 405 m 257
 591 405 l 257
 591 552 l 257
 761 405 l 257
 867 405 l 257
 867 672 l 257
 761 672 l 257
 761 523 l 257
 591 672 l 257
 485 672 l 257
 485 405 l 257
280 2 m 257
 423 461 l 257
 34 755 l 257
 519 755 l 257
 669 1215 l 257
 828 755 l 257
 1313 755 l 257
 922 461 l 257
 1066 2 l 257
 669 278 l 257
 280 2 l 257
EndSplineSet
EndChar

StartChar: four
Encoding: 52 52 272
Width: 1177
VWidth: 0
GlyphClass: 2
Flags: W
PickledData: "(dp1
S'org.robofab.postScriptHintData'
p2
(dp3
sS'com.typemytype.robofont.layerData'
p4
(dp5
S'b'
(dp6
S'name'
p7
S'four'
p8
sS'lib'
p9
(dp10
sS'unicodes'
p11
(tsS'width'
p12
F1234.0999999999999
sS'contours'
p13
(tsS'components'
p14
(tsS'anchors'
p15
(tsss."
LayerCount: 2
Fore
SplineSet
221 485 m 257
 765 485 l 257
 765 1387 l 257
 609 1126 l 257
 221 485 l 257
767 0 m 257
 767 391 l 257
 101 391 l 257
 101 475 l 257
 700 1456 l 257
 881 1456 l 257
 881 485 l 257
 1083 485 l 257
 1083 391 l 257
 877 391 l 257
 877 0 l 257
 767 0 l 257
EndSplineSet
EndChar

StartChar: foursuperior
Encoding: 8308 8308 273
Width: 897
VWidth: 0
GlyphClass: 2
Flags: W
PickledData: "(dp1
S'org.robofab.postScriptHintData'
p2
(dp3
s."
LayerCount: 2
Fore
SplineSet
223 926 m 257
 530 926 l 257
 530 1367 l 257
 223 926 l 257
532 670 m 257
 532 854 l 257
 137 854 l 257
 137 923 l 257
 511 1456 l 257
 610 1456 l 257
 610 926 l 257
 693 926 l 257
 692 854 l 257
 606 854 l 257
 606 670 l 257
 532 670 l 257
EndSplineSet
EndChar

StartChar: fraction
Encoding: 8260 8260 274
Width: 994
VWidth: 0
GlyphClass: 2
Flags: W
PickledData: "(dp1
S'org.robofab.postScriptHintData'
p2
(dp3
sS'com.typemytype.robofont.layerData'
p4
(dp5
S'b'
(dp6
S'name'
p7
S'fraction'
p8
sS'lib'
p9
(dp10
sS'unicodes'
p11
(tsS'width'
p12
F1077.8
sS'contours'
p13
(tsS'components'
p14
(tsS'anchors'
p15
(tsss."
LayerCount: 2
Fore
SplineSet
0 0 m 257
 920 1456 l 257
 994 1456 l 257
 77 0 l 257
 0 0 l 257
EndSplineSet
EndChar

StartChar: g
Encoding: 103 103 275
Width: 1268
VWidth: 0
GlyphClass: 2
Flags: W
PickledData: "(dp1
S'org.robofab.postScriptHintData'
p2
(dp3
sS'com.typemytype.robofont.layerData'
p4
(dp5
S'b'
(dp6
S'name'
p7
S'g'
sS'lib'
p8
(dp9
sS'unicodes'
p10
(tsS'width'
p11
I1254
sS'contours'
p12
((dp13
S'points'
p14
((dp15
S'segmentType'
p16
S'curve'
p17
sS'x'
F580
sS'smooth'
p18
I01
sS'y'
F134
s(dp19
S'y'
F134
sS'x'
F799
sg18
I00
s(dp20
S'y'
F295
sS'x'
F920
sg18
I00
s(dp21
g16
S'curve'
p22
sS'x'
F920
sg18
I01
sS'y'
F550
s(dp23
S'y'
F775
sS'x'
F920
sg18
I00
s(dp24
S'y'
F918
sS'x'
F796
sg18
I00
s(dp25
g16
S'curve'
p26
sS'x'
F600
sg18
I01
sS'y'
F918
s(dp27
S'y'
F918
sS'x'
F399
sg18
I00
s(dp28
S'y'
F762
sS'x'
F268
sg18
I00
s(dp29
g16
S'curve'
p30
sS'x'
F268
sg18
I01
sS'y'
F515
s(dp31
S'y'
F282
sS'x'
F268
sg18
I00
s(dp32
S'y'
F134
sS'x'
F389
sg18
I00
stp33
s(dp34
g14
((dp35
g16
S'curve'
p36
sS'x'
F534
sg18
I01
sS'y'
F-420
s(dp37
S'y'
F-420
sS'x'
F408
sg18
I00
s(dp38
S'y'
F-381
sS'x'
F289
sg18
I00
s(dp39
g16
S'curve'
p40
sS'x'
F189
sg18
I00
sS'y'
F-331
s(dp41
g16
S'line'
p42
sS'x'
F216
sg18
I00
sS'y'
F-187
s(dp43
S'y'
F-238
sS'x'
F300
sg18
I00
s(dp44
S'y'
F-282
sS'x'
F416
sg18
I00
s(dp45
g16
S'curve'
p46
sS'x'
F528
sg18
I01
sS'y'
F-282
s(dp47
S'y'
F-282
sS'x'
F790
sg18
I00
s(dp48
S'y'
F-183
sS'x'
F920
sg18
I00
s(dp49
g16
S'curve'
p50
sS'x'
F920
sg18
I01
sS'y'
F49
s(dp51
g16
S'line'
p52
sS'x'
F920
sg18
I00
sS'y'
F273
s(dp53
g16
S'line'
p54
sS'x'
F948
sg18
I00
sS'y'
F253
s(dp55
S'y'
F139
sS'x'
F905
sg18
I00
s(dp56
S'y'
F0
sS'x'
F802
sg18
I00
s(dp57
g16
S'curve'
p58
sS'x'
F579
sg18
I01
sS'y'
F0
s(dp59
S'y'
F0
sS'x'
F298
sg18
I00
s(dp60
S'y'
F201
sS'x'
F98
sg18
I00
s(dp61
g16
S'curve'
p62
sS'x'
F98
sg18
I01
sS'y'
F511
s(dp63
S'y'
F843
sS'x'
F98
sg18
I00
s(dp64
S'y'
F1052
sS'x'
F284
sg18
I00
s(dp65
g16
S'curve'
p66
sS'x'
F579
sg18
I01
sS'y'
F1052
s(dp67
S'y'
F1052
sS'x'
F820
sg18
I00
s(dp68
S'y'
F900
sS'x'
F903
sg18
I00
s(dp69
g16
S'curve'
p70
sS'x'
F958
sg18
I00
sS'y'
F798
s(dp71
g16
S'line'
p72
sS'x'
F919
sg18
I00
sS'y'
F787
s(dp73
g16
S'line'
p74
sS'x'
F926
sg18
I00
sS'y'
F1026
s(dp75
g16
S'line'
p76
sS'x'
F1090
sg18
I00
sS'y'
F1026
s(dp77
S'y'
F1026
sS'x'
F1090
sg18
I00
s(dp78
S'y'
F857
sS'x'
F1084
sg18
I00
s(dp79
g16
S'curve'
p80
sS'x'
F1084
sg18
I01
sS'y'
F773
s(dp81
g16
S'line'
p82
sS'x'
F1084
sg18
I01
sS'y'
F143
s(dp83
S'y'
F-255
sS'x'
F1084
sg18
I00
s(dp84
S'y'
F-420
sS'x'
F903
sg18
I00
stp85
stp86
sS'components'
p87
(tsS'anchors'
p88
(tsss."
AnchorPoint: "top" 580 1026 basechar 0
LayerCount: 2
Fore
SplineSet
564 66 m 256
 809 66 966 241 966 514 c 256
 966 792 815 970 580 970 c 256
 346 970 196 792 196 514 c 256
 196 241 340 66 564 66 c 256
556 -443 m 256
 444 -443 322 -424 207 -377 c 257
 219 -291 l 257
 334 -337 455 -359 556 -359 c 256
 794 -359 966 -230 966 114 c 258
 966 236 l 257
 904 72 747 -16 564 -16 c 256
 279 -16 96 191 96 514 c 256
 96 841 285 1052 580 1052 c 256
 760 1052 905 953 966 817 c 257
 976 1026 l 257
 1071 1026 l 257
 1064 837 l 257
 1064 114 l 258
 1064 -278 842 -443 556 -443 c 256
EndSplineSet
EndChar

StartChar: germandbls
Encoding: 223 223 282
Width: 1240
VWidth: 0
GlyphClass: 2
Flags: W
PickledData: "(dp1
S'org.robofab.postScriptHintData'
p2
(dp3
sS'com.typemytype.robofont.layerData'
p4
(dp5
S'b'
(dp6
S'name'
p7
S'germandbls'
p8
sS'lib'
p9
(dp10
sS'unicodes'
p11
(tsS'width'
p12
F1250.95
sS'contours'
p13
(tsS'components'
p14
(tsS'anchors'
p15
(tsss."
LayerCount: 2
Fore
SplineSet
745 -28 m 256
 658 -28 539 -3 441 37 c 257
 450 120 l 257
 552 80 668 54 745 54 c 256
 931 54 1050 162 1050 329 c 256
 1050 563 906 690 537 805 c 257
 537 889 l 257
 869 962 894 1059 894 1208 c 256
 894 1354 777 1448 595 1448 c 256
 398 1448 294 1315 294 1062 c 258
 294 0 l 257
 196 0 l 257
 199 1062 l 258
 200 1371 338 1534 597 1534 c 256
 834 1534 986 1406 986 1208 c 256
 986 999 890 916 661 857 c 258
 622 847 l 257
 660 837 l 258
 896 775 1150 629 1150 329 c 256
 1150 112 991 -28 745 -28 c 256
EndSplineSet
EndChar

StartChar: grave
Encoding: 96 96 283
Width: 581
VWidth: 0
GlyphClass: 4
Flags: W
PickledData: "(dp1
S'org.robofab.postScriptHintData'
p2
(dp3
s."
AnchorPoint: "top" 475 1026 mark 0
LayerCount: 2
Fore
SplineSet
445 1174 m 257
 127 1456 l 257
 262 1456 l 257
 499 1174 l 257
 445 1174 l 257
EndSplineSet
EndChar

StartChar: greater
Encoding: 62 62 284
Width: 1042
VWidth: 0
GlyphClass: 2
Flags: W
PickledData: "(dp1
S'org.robofab.postScriptHintData'
p2
(dp3
sS'com.typemytype.robofont.layerData'
p4
(dp5
S'b'
(dp6
S'name'
p7
S'greater'
p8
sS'lib'
p9
(dp10
sS'unicodes'
p11
(tsS'width'
p12
F1268.05
sS'contours'
p13
(tsS'components'
p14
(tsS'anchors'
p15
(tsss."
LayerCount: 2
Fore
SplineSet
214 105 m 257
 214 204 l 257
 887 542 l 257
 219 913 l 257
 219 1012 l 257
 996 573 l 257
 996 508 l 257
 214 105 l 257
EndSplineSet
EndChar

StartChar: greaterequal
Encoding: 8805 8805 285
Width: 1349
VWidth: 0
GlyphClass: 2
Flags: W
PickledData: "(dp1
S'org.robofab.postScriptHintData'
p2
(dp3
sS'com.typemytype.robofont.layerData'
p4
(dp5
S'b'
(dp6
S'name'
p7
S'greaterequal'
p8
sS'lib'
p9
(dp10
sS'unicodes'
p11
(tsS'width'
p12
F1350.3499999999999
sS'contours'
p13
(tsS'components'
p14
(tsS'anchors'
p15
(tsss."
LayerCount: 2
Fore
SplineSet
310 0 m 257
 310 77 l 257
 1159 77 l 257
 1159 0 l 257
 310 0 l 257
325 153 m 257
 325 256 l 257
 1004 580 l 257
 330 962 l 257
 330 1063 l 257
 1109 606 l 257
 1109 535 l 257
 325 153 l 257
EndSplineSet
EndChar

StartChar: guillemotleft
Encoding: 171 171 286
Width: 1040
VWidth: 0
GlyphClass: 2
Flags: W
PickledData: "(dp1
S'org.robofab.postScriptHintData'
p2
(dp3
sS'com.typemytype.robofont.layerData'
p4
(dp5
S'b'
(dp6
S'name'
p7
S'guillemotright'
p8
sS'lib'
p9
(dp10
sS'unicodes'
p11
(tsS'width'
p12
F1122.45
sS'contours'
p13
(tsS'components'
p14
(tsS'anchors'
p15
(tsss."
LayerCount: 2
Fore
SplineSet
789 186 m 257
 526 546 l 257
 793 914 l 257
 907 914 l 257
 646 547 l 257
 899 186 l 257
 789 186 l 257
374 186 m 257
 111 546 l 257
 379 914 l 257
 492 914 l 257
 232 547 l 257
 484 186 l 257
 374 186 l 257
EndSplineSet
EndChar

StartChar: guillemotright
Encoding: 187 187 287
Width: 1040
VWidth: 0
GlyphClass: 2
Flags: W
PickledData: "(dp1
S'org.robofab.postScriptHintData'
p2
(dp3
sS'com.typemytype.robofont.layerData'
p4
(dp5
S'b'
(dp6
S'name'
p7
S'guillemotright'
p8
sS'lib'
p9
(dp10
sS'unicodes'
p11
(tsS'width'
p12
F1122.45
sS'contours'
p13
(tsS'components'
p14
(tsS'anchors'
p15
(tsss."
LayerCount: 2
Fore
SplineSet
528 180 m 257
 789 546 l 257
 536 908 l 257
 646 908 l 257
 909 547 l 257
 642 180 l 257
 528 180 l 257
113 180 m 257
 374 546 l 257
 121 908 l 257
 231 908 l 257
 494 547 l 257
 227 180 l 257
 113 180 l 257
EndSplineSet
EndChar

StartChar: guilsinglleft
Encoding: 8249 8249 288
Width: 634
VWidth: 0
GlyphClass: 2
Flags: W
PickledData: "(dp1
S'org.robofab.postScriptHintData'
p2
(dp3
sS'com.typemytype.robofont.layerData'
p4
(dp5
S'b'
(dp6
S'name'
p7
S'guilsinglleft'
p8
sS'lib'
p9
(dp10
sS'unicodes'
p11
(tsS'width'
p12
F688.39999999999998
sS'contours'
p13
(tsS'components'
p14
(tsS'anchors'
p15
(tsss."
LayerCount: 2
Fore
SplineSet
401 180 m 257
 138 541 l 257
 405 908 l 257
 519 908 l 257
 258 542 l 257
 511 180 l 257
 401 180 l 257
EndSplineSet
EndChar

StartChar: guilsinglright
Encoding: 8250 8250 289
Width: 634
VWidth: 0
GlyphClass: 2
Flags: W
PickledData: "(dp1
S'org.robofab.postScriptHintData'
p2
(dp3
sS'com.typemytype.robofont.layerData'
p4
(dp5
S'b'
(dp6
S'name'
p7
S'guilsinglleft'
p8
sS'lib'
p9
(dp10
sS'unicodes'
p11
(tsS'width'
p12
F688.39999999999998
sS'contours'
p13
(tsS'components'
p14
(tsS'anchors'
p15
(tsss."
LayerCount: 2
Fore
SplineSet
115 181 m 257
 376 547 l 257
 123 909 l 257
 233 909 l 257
 496 548 l 257
 229 181 l 257
 115 181 l 257
EndSplineSet
EndChar

StartChar: h
Encoding: 104 104 290
Width: 1255
VWidth: 0
GlyphClass: 2
Flags: W
PickledData: "(dp1
S'org.robofab.postScriptHintData'
p2
(dp3
sS'com.typemytype.robofont.layerData'
p4
(dp5
S'b'
(dp6
S'name'
p7
S'h'
sS'lib'
p8
(dp9
sS'unicodes'
p10
(tsS'width'
p11
F1237.95
sS'contours'
p12
((dp13
S'points'
p14
((dp15
S'segmentType'
p16
S'line'
p17
sS'x'
F178
sS'smooth'
p18
I00
sS'y'
F0
s(dp19
g16
S'line'
p20
sS'x'
F178
sg18
I01
sS'y'
F779
s(dp21
S'y'
F902
sS'x'
F178
sg18
I00
s(dp22
S'y'
F1026
sS'x'
F172
sg18
I00
s(dp23
g16
S'curve'
p24
sS'x'
F172
sg18
I00
sS'y'
F1026
s(dp25
g16
S'line'
p26
sS'x'
F339
sg18
I00
sS'y'
F1026
s(dp27
g16
S'line'
p28
sS'x'
F343
sg18
I00
sS'y'
F864
s(dp29
S'y'
F976
sS'x'
F423
sg18
I00
s(dp30
S'y'
F1051
sS'x'
F548
sg18
I00
s(dp31
g16
S'curve'
p32
sS'x'
F700
sg18
I01
sS'y'
F1051
s(dp33
S'y'
F1051
sS'x'
F999
sg18
I00
s(dp34
S'y'
F844
sS'x'
F1082
sg18
I00
s(dp35
g16
S'curve'
p36
sS'x'
F1082
sg18
I01
sS'y'
F550
s(dp37
g16
S'line'
p38
sS'x'
F1082
sg18
I00
sS'y'
F0
s(dp39
g16
S'line'
p40
sS'x'
F917
sg18
I00
sS'y'
F0
s(dp41
g16
S'line'
p42
sS'x'
F917
sg18
I01
sS'y'
F531
s(dp43
S'y'
F764
sS'x'
F917
sg18
I00
s(dp44
S'y'
F917
sS'x'
F886
sg18
I00
s(dp45
g16
S'curve'
p46
sS'x'
F670
sg18
I01
sS'y'
F917
s(dp47
S'y'
F917
sS'x'
F471
sg18
I00
s(dp48
S'y'
F742
sS'x'
F344
sg18
I00
s(dp49
g16
S'curve'
p50
sS'x'
F343
sg18
I00
sS'y'
F652
s(dp51
g16
S'line'
p52
sS'x'
F343
sg18
I00
sS'y'
F0
stp53
stp54
sS'components'
p55
(tsS'anchors'
p56
(tsss."
AnchorPoint: "top" 704 1026 basechar 0
LayerCount: 2
Fore
SplineSet
196 0 m 257
 196 1516 l 257
 294 1516 l 257
 294 827 l 257
 366 955 502 1052 700 1052 c 256
 857 1052 1065 985 1065 682 c 258
 1065 0 l 257
 967 0 l 257
 967 659 l 258
 967 860 900 970 700 970 c 256
 484 970 294 803 294 628 c 258
 294 0 l 257
 196 0 l 257
EndSplineSet
EndChar

StartChar: hungarumlaut
Encoding: 733 733 293
Width: 969
VWidth: 0
GlyphClass: 4
Flags: W
PickledData: "(dp1
S'org.robofab.postScriptHintData'
p2
(dp3
s."
AnchorPoint: "top" 365 1026 mark 0
LayerCount: 2
Fore
SplineSet
417 1174 m 257
 607 1456 l 257
 721 1456 l 257
 487 1174 l 257
 417 1174 l 257
154 1174 m 257
 349 1456 l 257
 448 1456 l 257
 226 1174 l 257
 154 1174 l 257
EndSplineSet
EndChar

StartChar: hyphen
Encoding: 45 45 294
Width: 597
VWidth: 0
GlyphClass: 2
Flags: W
PickledData: "(dp1
S'org.robofab.postScriptHintData'
p2
(dp3
sS'com.typemytype.robofont.layerData'
p4
(dp5
S'b'
(dp6
S'name'
p7
S'hyphen'
p8
sS'lib'
p9
(dp10
sS'unicodes'
p11
(tsS'width'
p12
F683.5
sS'contours'
p13
(tsS'components'
p14
(tsS'anchors'
p15
(tsss."
LayerCount: 2
Fore
SplineSet
67 527 m 257
 67 600 l 257
 526 600 l 257
 526 527 l 257
 67 527 l 257
EndSplineSet
EndChar

StartChar: i
Encoding: 105 105 295
Width: 491
VWidth: 0
GlyphClass: 2
Flags: W
PickledData: "(dp1
S'org.robofab.postScriptHintData'
p2
(dp3
sS'com.typemytype.robofont.layerData'
p4
(dp5
S'b'
(dp6
S'name'
p7
S'i'
sS'lib'
p8
(dp9
sS'unicodes'
p10
(tsS'width'
p11
F521.10000000000002
sS'contours'
p12
(tsS'components'
p13
(tsS'anchors'
p14
(tsss."
LayerCount: 2
Fore
SplineSet
191 1346 m 257
 191 1456 l 257
 289 1456 l 257
 289 1346 l 257
 191 1346 l 257
191 0 m 257
 191 1026 l 257
 289 1026 l 257
 289 0 l 257
 191 0 l 257
EndSplineSet
EndChar

StartChar: increment
Encoding: 8710 8710 307
Width: 1319
VWidth: 0
GlyphClass: 2
Flags: W
PickledData: "(dp1
S'org.robofab.postScriptHintData'
p2
(dp3
sS'com.typemytype.robofont.layerData'
p4
(dp5
S'b'
(dp6
S'name'
p7
S'uni2206'
p8
sS'lib'
p9
(dp10
sS'unicodes'
p11
(tsS'width'
p12
F1312.25
sS'contours'
p13
(tsS'components'
p14
(tsS'anchors'
p15
(tsss."
LayerCount: 2
Fore
SplineSet
138 77 m 257
 1155 77 l 257
 646 1295 l 257
 138 77 l 257
41 0 m 257
 41 48 l 257
 634 1451 l 257
 665 1451 l 257
 1257 48 l 257
 1257 0 l 257
 41 0 l 257
EndSplineSet
EndChar

StartChar: infinity
Encoding: 8734 8734 308
Width: 1711
VWidth: 0
GlyphClass: 2
Flags: W
PickledData: "(dp1
S'org.robofab.postScriptHintData'
p2
(dp3
s."
LayerCount: 2
Fore
SplineSet
1250 334 m 256
 1403 334 1484 454 1484 611 c 256
 1484 733 1380 836 1245 836 c 256
 1108 836 993 713 908 585 c 257
 1030 420 1123 334 1250 334 c 256
447 334 m 256
 580 334 688 444 784 581 c 257
 688 724 580 836 437 836 c 256
 291 836 196 719 196 585 c 256
 196 456 301 334 447 334 c 256
455 239 m 256
 242 239 96 407 96 602 c 256
 96 782 264 923 450 923 c 256
 611 923 737 819 851 673 c 257
 962 815 1082 923 1247 923 c 256
 1463 923 1601 783 1601 587 c 256
 1601 381 1435 239 1245 239 c 256
 1099 239 980 327 849 490 c 257
 737 348 613 239 455 239 c 256
EndSplineSet
EndChar

StartChar: integral
Encoding: 8747 8747 309
Width: 655
VWidth: 0
GlyphClass: 2
Flags: W
PickledData: "(dp1
S'org.robofab.postScriptHintData'
p2
(dp3
sS'com.typemytype.robofont.layerData'
p4
(dp5
S'b'
(dp6
S'name'
p7
S'integral'
p8
sS'lib'
p9
(dp10
sS'unicodes'
p11
(tsS'width'
p12
F754
sS'contours'
p13
(tsS'components'
p14
(tsS'anchors'
p15
(tsss."
LayerCount: 2
Fore
SplineSet
107 -282 m 256
 39 -282 -2 -265 -2 -265 c 257
 -2 -177 l 257
 -2 -177 34 -191 79 -191 c 256
 253 -191 286 -103 286 62 c 258
 286 1230 l 258
 286 1443 331 1600 556 1600 c 256
 636 1600 648 1582 648 1582 c 257
 648 1500 l 257
 648 1500 631 1510 576 1510 c 256
 404 1510 385 1421 385 1256 c 258
 385 89 l 258
 385 -124 330 -282 107 -282 c 256
EndSplineSet
EndChar

StartChar: k
Encoding: 107 107 315
Width: 1045
VWidth: 0
GlyphClass: 2
Flags: W
PickledData: "(dp1
S'org.robofab.postScriptHintData'
p2
(dp3
sS'com.typemytype.robofont.layerData'
p4
(dp5
S'b'
(dp6
S'name'
p7
S'k'
sS'lib'
p8
(dp9
sS'unicodes'
p10
(tsS'width'
p11
F1078.6500000000001
sS'contours'
p12
(tsS'components'
p13
(tsS'anchors'
p14
(tsss."
AnchorPoint: "top" 660 1026 basechar 0
LayerCount: 2
Fore
SplineSet
196 0 m 257
 196 1516 l 257
 294 1516 l 257
 294 549 l 257
 842 1026 l 257
 971 1026 l 257
 413 543 l 257
 1013 0 l 257
 885 0 l 257
 294 535 l 257
 294 0 l 257
 196 0 l 257
EndSplineSet
EndChar

StartChar: kgreenlandic
Encoding: 312 312 318
Width: 1082
VWidth: 0
GlyphClass: 2
Flags: W
PickledData: "(dp1
S'org.robofab.postScriptHintData'
p2
(dp3
s."
LayerCount: 2
Fore
SplineSet
203 0 m 257
 203 1026 l 257
 306 1026 l 257
 306 525 l 257
 856 1026 l 257
 996 1026 l 257
 432 514 l 257
 1037 0 l 257
 901 0 l 257
 306 513 l 257
 306 0 l 257
 203 0 l 257
EndSplineSet
EndChar

StartChar: l
Encoding: 108 108 319
Width: 509
VWidth: 0
GlyphClass: 2
Flags: W
PickledData: "(dp1
S'org.robofab.postScriptHintData'
p2
(dp3
sS'com.typemytype.robofont.layerData'
p4
(dp5
S'b'
(dp6
S'name'
p7
S'l'
sS'lib'
p8
(dp9
sS'unicodes'
p10
(tsS'width'
p11
F521.79999999999995
sS'contours'
p12
(tsS'components'
p13
(tsS'anchors'
p14
(tsss."
AnchorPoint: "top" 250 1456 basechar 0
AnchorPoint: "caron.alt" 180 1026 basechar 0
LayerCount: 2
Fore
SplineSet
205 0 m 257
 205 1516 l 257
 303 1516 l 257
 303 0 l 257
 205 0 l 257
EndSplineSet
EndChar

StartChar: less
Encoding: 60 60 324
Width: 1044
VWidth: 0
GlyphClass: 2
Flags: W
PickledData: "(dp1
S'org.robofab.postScriptHintData'
p2
(dp3
sS'com.typemytype.robofont.layerData'
p4
(dp5
S'b'
(dp6
S'name'
p7
S'less'
p8
sS'lib'
p9
(dp10
sS'unicodes'
p11
(tsS'width'
p12
F1267.3499999999999
sS'contours'
p13
(tsS'components'
p14
(tsS'anchors'
p15
(tsss."
LayerCount: 2
Fore
SplineSet
824 108 m 257
 46 565 l 257
 46 636 l 257
 830 1018 l 257
 830 916 l 257
 150 591 l 257
 824 209 l 257
 824 108 l 257
EndSplineSet
EndChar

StartChar: lessequal
Encoding: 8804 8804 325
Width: 1349
VWidth: 0
GlyphClass: 2
Flags: W
PickledData: "(dp1
S'org.robofab.postScriptHintData'
p2
(dp3
sS'com.typemytype.robofont.layerData'
p4
(dp5
S'b'
(dp6
S'name'
p7
S'lessequal'
p8
sS'lib'
p9
(dp10
sS'unicodes'
p11
(tsS'width'
p12
F1350.3499999999999
sS'contours'
p13
(tsS'components'
p14
(tsS'anchors'
p15
(tsss."
LayerCount: 2
Fore
SplineSet
257 0 m 257
 257 77 l 257
 1106 77 l 257
 1106 0 l 257
 257 0 l 257
1081 153 m 257
 303 610 l 257
 303 681 l 257
 1087 1063 l 257
 1087 961 l 257
 407 636 l 257
 1081 254 l 257
 1081 153 l 257
EndSplineSet
EndChar

StartChar: logicalnot
Encoding: 172 172 327
Width: 1473
VWidth: 0
GlyphClass: 2
Flags: W
PickledData: "(dp1
S'org.robofab.postScriptHintData'
p2
(dp3
sS'com.typemytype.robofont.layerData'
p4
(dp5
S'b'
(dp6
S'name'
p7
S'logicalnot'
p8
sS'lib'
p9
(dp10
sS'unicodes'
p11
(tsS'width'
p12
F1463.2
sS'contours'
p13
(tsS'components'
p14
(tsS'anchors'
p15
(tsss."
LayerCount: 2
Fore
SplineSet
1190 250 m 257
 1190 694 l 257
 243 694 l 257
 243 786 l 257
 1277 786 l 257
 1277 250 l 257
 1190 250 l 257
EndSplineSet
EndChar

StartChar: lozenge
Encoding: 9674 9674 329
Width: 1248
VWidth: 0
GlyphClass: 2
Flags: W
PickledData: "(dp1
S'org.robofab.postScriptHintData'
p2
(dp3
s."
LayerCount: 2
Fore
SplineSet
632 8 m 257
 1057 720 l 257
 645 1444 l 257
 220 724 l 257
 632 8 l 257
601 -49 m 257
 143 720 l 257
 611 1493 l 257
 675 1493 l 257
 1136 721 l 257
 665 -49 l 257
 601 -49 l 257
EndSplineSet
EndChar

StartChar: lslash
Encoding: 322 322 330
Width: 503
VWidth: 0
GlyphClass: 2
Flags: W
PickledData: "(dp1
S'org.robofab.postScriptHintData'
p2
(dp3
s."
LayerCount: 2
Fore
SplineSet
206 0 m 257
 206 663 l 257
 -5 563 l 257
 -5 642 l 257
 207 742 l 257
 207 1516 l 257
 308 1516 l 257
 308 781 l 257
 531 885 l 257
 531 810 l 257
 307 706 l 257
 307 0 l 257
 206 0 l 257
EndSplineSet
EndChar

StartChar: m
Encoding: 109 109 331
Width: 1946
VWidth: 0
GlyphClass: 2
Flags: W
PickledData: "(dp1
S'org.robofab.postScriptHintData'
p2
(dp3
sS'com.typemytype.robofont.guides'
p4
(tsS'com.typemytype.robofont.layerData'
p5
(dp6
S'b'
(dp7
S'name'
p8
S'm'
sS'lib'
p9
(dp10
sS'unicodes'
p11
(tsS'width'
p12
F1873.95
sS'contours'
p13
(tsS'components'
p14
(tsS'anchors'
p15
(tsss."
AnchorPoint: "top" 999 1026 basechar 0
LayerCount: 2
Fore
SplineSet
204 0 m 257
 204 880 l 258
 204 918 198 1026 198 1026 c 257
 287 1026 l 257
 297 820 l 257
 367 972 500 1052 681 1052 c 256
 859 1052 971 962 1011 789 c 257
 1083 970 1240 1052 1408 1052 c 256
 1636 1052 1756 903 1756 622 c 258
 1756 0 l 257
 1658 0 l 257
 1658 622 l 258
 1658 850 1572 970 1408 970 c 256
 1197 970 1069 849 1029 622 c 257
 1029 0 l 257
 931 0 l 257
 931 622 l 258
 931 850 845 970 681 970 c 256
 485 970 354 869 302 678 c 257
 302 0 l 257
 204 0 l 257
EndSplineSet
EndChar

StartChar: macron
Encoding: 175 175 332
Width: 674
VWidth: 0
GlyphClass: 4
Flags: W
PickledData: "(dp1
S'org.robofab.postScriptHintData'
p2
(dp3
sS'com.typemytype.robofont.layerData'
p4
(dp5
S'b'
(dp6
S'name'
p7
S'macron'
p8
sS'lib'
p9
(dp10
sS'unicodes'
p11
(tsS'width'
p12
F723
sS'contours'
p13
(tsS'components'
p14
(tsS'anchors'
p15
(tsss."
AnchorPoint: "top" 345 1026 mark 0
LayerCount: 2
Fore
SplineSet
72 1235 m 257
 72 1310 l 257
 602 1310 l 257
 602 1235 l 257
 72 1235 l 257
EndSplineSet
EndChar

StartChar: minus
Encoding: 8722 8722 335
Width: 1008
VWidth: 0
GlyphClass: 2
Flags: W
PickledData: "(dp1
S'org.robofab.postScriptHintData'
p2
(dp3
s."
LayerCount: 2
Fore
SplineSet
138 645 m 257
 138 737 l 257
 870 737 l 257
 870 645 l 257
 138 645 l 257
EndSplineSet
EndChar

StartChar: mu
Encoding: 181 181 336
Width: 1285
VWidth: 0
GlyphClass: 2
Flags: W
AnchorPoint: "top" 652 1026 basechar 0
LayerCount: 2
Fore
SplineSet
296 -332 m 257
 198 -328 l 257
 198 1026 l 257
 296 1026 l 257
 296 408 l 258
 296 178 392 56 584 56 c 256
 839 56 972 260 972 355 c 258
 972 1026 l 257
 1070 1026 l 257
 1070 225 l 258
 1070 113 1072 53 1075 0 c 257
 986 0 l 257
 977 191 l 257
 891 55 761 -26 584 -26 c 256
 457 -26 360 11 296 84 c 257
 296 -332 l 257
EndSplineSet
EndChar

StartChar: multiply
Encoding: 215 215 337
Width: 1177
VWidth: 0
GlyphClass: 2
Flags: W
PickledData: "(dp1
S'org.robofab.postScriptHintData'
p2
(dp3
s."
LayerCount: 2
Fore
SplineSet
271 180 m 257
 212 242 l 257
 528 559 l 257
 212 876 l 257
 271 938 l 257
 589 621 l 257
 904 938 l 257
 966 873 l 257
 648 559 l 257
 966 245 l 257
 904 180 l 257
 589 495 l 257
 271 180 l 257
EndSplineSet
EndChar

StartChar: n
Encoding: 110 110 338
Width: 1257
VWidth: 0
GlyphClass: 2
Flags: W
PickledData: "(dp1
S'org.robofab.postScriptHintData'
p2
(dp3
sS'com.typemytype.robofont.layerData'
p4
(dp5
S'b'
(dp6
S'name'
p7
S'n'
sS'lib'
p8
(dp9
sS'unicodes'
p10
(tsS'width'
p11
F1240.05
sS'contours'
p12
(tsS'components'
p13
(tsS'anchors'
p14
(tsss."
AnchorPoint: "top" 664 1026 basechar 0
LayerCount: 2
Fore
SplineSet
202 0 m 257
 202 880 l 258
 202 918 196 1026 196 1026 c 257
 285 1026 l 257
 295 820 l 257
 365 972 518 1052 699 1052 c 256
 947 1052 1067 903 1067 622 c 258
 1067 0 l 257
 969 0 l 257
 969 622 l 258
 969 850 883 970 699 970 c 256
 503 970 352 869 300 678 c 257
 300 0 l 257
 202 0 l 257
EndSplineSet
EndChar

StartChar: nine
Encoding: 57 57 343
Width: 1182
VWidth: 0
GlyphClass: 2
Flags: W
PickledData: "(dp1
S'org.robofab.postScriptHintData'
p2
(dp3
sS'com.typemytype.robofont.layerData'
p4
(dp5
S'b'
(dp6
S'name'
p7
S'nine'
p8
sS'lib'
p9
(dp10
sS'unicodes'
p11
(tsS'width'
p12
F1235.4000000000001
sS'contours'
p13
((dp14
S'points'
p15
((dp16
S'segmentType'
p17
S'curve'
p18
sS'x'
F314
sS'smooth'
p19
I01
sS'y'
F1010
s(dp20
S'y'
F827
sS'x'
F314
sg19
I00
s(dp21
S'y'
F687
sS'x'
F393
sg19
I00
s(dp22
g17
S'curve'
p23
sS'x'
F604
sg19
I01
sS'y'
F687
s(dp24
S'y'
F687
sS'x'
F784
sg19
I00
s(dp25
S'y'
F803
sS'x'
F908
sg19
I00
s(dp26
g17
S'curve'
p27
sS'x'
F908
sg19
I01
sS'y'
F991
s(dp28
S'y'
F1166
sS'x'
F908
sg19
I00
s(dp29
S'y'
F1334
sS'x'
F815
sg19
I00
s(dp30
g17
S'curve'
p31
sS'x'
F605
sg19
I01
sS'y'
F1334
s(dp32
S'y'
F1334
sS'x'
F419
sg19
I00
s(dp33
S'y'
F1196
sS'x'
F314
sg19
I00
stp34
s(dp35
g15
((dp36
g17
S'curve'
p37
sS'x'
F555
sg19
I01
sS'y'
F-24
s(dp38
S'y'
F-24
sS'x'
F434
sg19
I00
s(dp39
S'y'
F13
sS'x'
F304
sg19
I00
s(dp40
g17
S'curve'
p41
sS'x'
F175
sg19
I00
sS'y'
F79
s(dp42
g17
S'line'
p43
sS'x'
F232
sg19
I00
sS'y'
F211
s(dp44
S'y'
F152
sS'x'
F346
sg19
I00
s(dp45
S'y'
F124
sS'x'
F450
sg19
I00
s(dp46
g17
S'curve'
p47
sS'x'
F542
sg19
I01
sS'y'
F124
s(dp48
S'y'
F124
sS'x'
F773
sg19
I00
s(dp49
S'y'
F308
sS'x'
F920
sg19
I00
s(dp50
g17
S'curve'
p51
sS'x'
F920
sg19
I01
sS'y'
F657
s(dp52
g17
S'line'
p53
sS'x'
F920
sg19
I00
sS'y'
F722
s(dp54
S'y'
F600
sS'x'
F856
sg19
I00
s(dp55
S'y'
F544
sS'x'
F742
sg19
I00
s(dp56
g17
S'curve'
p57
sS'x'
F577
sg19
I01
sS'y'
F544
s(dp58
S'y'
F544
sS'x'
F298
sg19
I00
s(dp59
S'y'
F735
sS'x'
F138
sg19
I00
s(dp60
g17
S'curve'
p61
sS'x'
F138
sg19
I01
sS'y'
F1004
s(dp62
S'y'
F1275
sS'x'
F138
sg19
I00
s(dp63
S'y'
F1483
sS'x'
F311
sg19
I00
s(dp64
g17
S'curve'
p65
sS'x'
F613
sg19
I01
sS'y'
F1483
s(dp66
S'y'
F1483
sS'x'
F939
sg19
I00
s(dp67
S'y'
F1231
sS'x'
F1095
sg19
I00
s(dp68
g17
S'curve'
p69
sS'x'
F1095
sg19
I01
sS'y'
F774
s(dp70
S'y'
F203
sS'x'
F1095
sg19
I00
s(dp71
S'y'
F-24
sS'x'
F855
sg19
I00
stp72
stp73
sS'components'
p74
(tsS'anchors'
p75
(tsss."
LayerCount: 2
Fore
SplineSet
559 634 m 256
 812 634 947 812 947 908 c 256
 947 1146 864 1397 578 1397 c 256
 354 1397 234 1228 234 1008 c 256
 234 802 329 634 559 634 c 256
531 -23 m 256
 391 -23 283 33 224 77 c 257
 267 153 l 257
 318 111 416 63 531 63 c 256
 899 63 953 479 959 683 c 256
 960 710 960 733 960 751 c 257
 923 674 777 548 559 548 c 256
 316 548 124 725 124 1008 c 256
 124 1277 298 1483 578 1483 c 256
 928 1483 1070 1191 1070 772 c 256
 1070 337 908 -23 531 -23 c 256
EndSplineSet
EndChar

StartChar: notequal
Encoding: 8800 8800 345
Width: 1326
VWidth: 0
GlyphClass: 2
Flags: W
PickledData: "(dp1
S'org.robofab.postScriptHintData'
p2
(dp3
sS'com.typemytype.robofont.layerData'
p4
(dp5
S'b'
(dp6
S'name'
p7
S'notequal'
p8
sS'lib'
p9
(dp10
sS'unicodes'
p11
(tsS'width'
p12
F1362.5
sS'contours'
p13
(tsS'components'
p14
(tsS'anchors'
p15
(tsss."
LayerCount: 2
Fore
SplineSet
427 53 m 257
 360 62 l 257
 501 342 l 257
 170 342 l 257
 170 415 l 257
 535 415 l 257
 720 767 l 257
 170 767 l 257
 170 840 l 257
 751 840 l 257
 895 1124 l 257
 962 1114 l 257
 826 840 l 257
 1156 840 l 257
 1156 767 l 257
 791 767 l 257
 607 415 l 257
 1156 415 l 257
 1156 342 l 257
 574 342 l 257
 427 53 l 257
EndSplineSet
EndChar

StartChar: numbersign
Encoding: 35 35 347
Width: 1397
VWidth: 0
GlyphClass: 2
Flags: W
PickledData: "(dp1
S'org.robofab.postScriptHintData'
p2
(dp3
s."
LayerCount: 2
Fore
SplineSet
482 603 m 257
 847 603 l 257
 911 938 l 257
 548 938 l 257
 482 603 l 257
313 109 m 257
 394 545 l 257
 131 545 l 257
 136 603 l 257
 406 603 l 257
 468 938 l 257
 212 938 l 257
 220 997 l 257
 477 997 l 257
 552 1390 l 257
 632 1390 l 257
 561 997 l 257
 922 997 l 257
 997 1390 l 257
 1070 1390 l 257
 995 997 l 257
 1255 997 l 257
 1243 938 l 257
 986 938 l 257
 922 603 l 257
 1178 603 l 257
 1166 545 l 257
 914 545 l 257
 830 109 l 257
 757 109 l 257
 836 545 l 257
 473 545 l 257
 386 109 l 257
 313 109 l 257
EndSplineSet
EndChar

StartChar: o
Encoding: 111 111 348
Width: 1230
VWidth: 0
GlyphClass: 2
Flags: W
PickledData: "(dp1
S'org.robofab.postScriptHintData'
p2
(dp3
sS'com.typemytype.robofont.layerData'
p4
(dp5
S'b'
(dp6
S'name'
p7
S'o'
sS'lib'
p8
(dp9
sS'unicodes'
p10
(tsS'width'
p11
F1259.2
sS'contours'
p12
(tsS'components'
p13
(tsS'anchors'
p14
(tsss."
AnchorPoint: "top" 617 1026 basechar 0
LayerCount: 2
Fore
SplineSet
615 -21 m 256
 299 -21 96 187 96 510 c 256
 96 840 299 1052 615 1052 c 256
 931 1052 1134 840 1134 510 c 256
 1134 187 931 -21 615 -21 c 256
615 61 m 256
 880 61 1034 237 1034 510 c 256
 1034 790 880 970 615 970 c 256
 350 970 196 790 196 510 c 256
 196 237 350 61 615 61 c 256
EndSplineSet
EndChar

StartChar: oe
Encoding: 339 339 355
Width: 1946
VWidth: 0
GlyphClass: 2
Flags: W
PickledData: "(dp1
S'org.robofab.postScriptHintData'
p2
(dp3
sS'com.typemytype.robofont.layerData'
p4
(dp5
S'b'
(dp6
S'name'
p7
S'oe'
p8
sS'lib'
p9
(dp10
sS'unicodes'
p11
(tsS'width'
p12
F1979.8
sS'contours'
p13
(tsS'components'
p14
((dp15
S'transformation'
p16
(I1
I0
I0
I1
I-6
I0
tp17
sS'baseGlyph'
p18
S'o'
s(dp19
g16
(I1
I0
I0
I1
I811
I0
tp20
sg18
S'e'
stp21
sS'anchors'
p22
(tsss."
LayerCount: 2
Fore
SplineSet
1069 578 m 257
 1788 578 l 257
 1788 601 1787 625 1786 640 c 256
 1766 841 1634 970 1440 970 c 256
 1221 970 1065 817 1069 578 c 257
598 61 m 256
 829 61 978 237 978 511 c 256
 978 790 831 970 603 970 c 256
 355 970 195 787 195 503 c 256
 195 234 353 61 598 61 c 256
598 -21 m 256
 286 -21 85 186 85 507 c 256
 85 839 288 1052 603 1052 c 256
 799 1052 955 944 1017 764 c 257
 1063 944 1234 1052 1440 1052 c 256
 1702 1052 1870 858 1870 557 c 258
 1870 507 l 257
 1069 507 l 257
 1069 478 l 258
 1069 225 1220 62 1456 62 c 256
 1560 62 1690 107 1787 177 c 257
 1823 108 l 257
 1720 29 1572 -21 1447 -21 c 256
 1254 -21 1083 87 1017 254 c 257
 956 87 795 -21 598 -21 c 256
EndSplineSet
EndChar

StartChar: ogonek
Encoding: 731 731 356
Width: 508
VWidth: 0
GlyphClass: 2
Flags: W
PickledData: "(dp1
S'org.robofab.postScriptHintData'
p2
(dp3
s."
LayerCount: 2
Fore
SplineSet
330 -448 m 256
 201 -448 97 -352 97 -235 c 256
 97 -157 144 -69 260 5 c 257
 342 4 l 257
 232 -77 198 -170 198 -227 c 256
 198 -301 247 -355 331 -355 c 256
 354 -355 380 -351 408 -342 c 257
 408 -437 l 257
 379 -446 355 -448 330 -448 c 256
EndSplineSet
EndChar

StartChar: one
Encoding: 49 49 361
Width: 1177
VWidth: 0
GlyphClass: 2
Flags: W
PickledData: "(dp1
S'org.robofab.postScriptHintData'
p2
(dp3
sS'com.typemytype.robofont.layerData'
p4
(dp5
S'b'
(dp6
S'name'
p7
S'one'
p8
sS'lib'
p9
(dp10
sS'unicodes'
p11
(tsS'width'
p12
F1234.0999999999999
sS'contours'
p13
(tsS'components'
p14
(tsS'anchors'
p15
(tsss."
LayerCount: 2
Fore
SplineSet
268 0 m 257
 268 87 l 257
 561 87 l 257
 561 1320 l 257
 457 1256 349 1218 256 1176 c 257
 256 1272 l 257
 355 1309 531 1397 620 1456 c 257
 669 1456 l 257
 669 87 l 257
 939 87 l 257
 939 0 l 257
 268 0 l 257
EndSplineSet
EndChar

StartChar: onehalf
Encoding: 189 189 362
Width: 1563
VWidth: 0
GlyphClass: 2
Flags: W
PickledData: "(dp1
S'org.robofab.postScriptHintData'
p2
(dp3
s."
LayerCount: 2
Fore
SplineSet
124 649 m 257
 124 710 l 257
 278 710 l 257
 278 1372 l 257
 129 1296 l 257
 131 1370 l 257
 284 1456 l 257
 352 1456 l 257
 352 710 l 257
 492 710 l 257
 492 649 l 257
 124 649 l 257
267 0 m 257
 1197 1456 l 257
 1265 1456 l 257
 350 0 l 257
 267 0 l 257
917 0 m 257
 917 70 l 257
 1210 375 l 258
 1328 498 1350 547 1350 617 c 256
 1350 686 1312 761 1184 761 c 256
 1096 761 1018 721 1013 591 c 257
 938 595 l 257
 941 740 1036 825 1184 825 c 256
 1346 825 1425 728 1425 620 c 256
 1425 515 1395 459 1260 321 c 258
 1014 69 l 257
 1430 69 l 257
 1430 0 l 257
 917 0 l 257
EndSplineSet
EndChar

StartChar: onequarter
Encoding: 188 188 363
Width: 1654
VWidth: 0
GlyphClass: 2
Flags: W
PickledData: "(dp1
S'org.robofab.postScriptHintData'
p2
(dp3
s."
LayerCount: 2
Fore
SplineSet
973 256 m 257
 1280 256 l 257
 1280 697 l 257
 973 256 l 257
321 0 m 257
 1251 1456 l 257
 1319 1456 l 257
 404 0 l 257
 321 0 l 257
1282 0 m 257
 1282 184 l 257
 887 184 l 257
 887 253 l 257
 1261 786 l 257
 1360 786 l 257
 1360 256 l 257
 1443 256 l 257
 1442 184 l 257
 1356 184 l 257
 1356 0 l 257
 1282 0 l 257
130 649 m 257
 130 710 l 257
 284 710 l 257
 284 1372 l 257
 135 1296 l 257
 137 1370 l 257
 290 1456 l 257
 358 1456 l 257
 358 710 l 257
 498 710 l 257
 498 649 l 257
 130 649 l 257
EndSplineSet
EndChar

StartChar: onesuperior
Encoding: 185 185 364
Width: 896
VWidth: 0
GlyphClass: 2
Flags: W
PickledData: "(dp1
S'org.robofab.postScriptHintData'
p2
(dp3
s."
LayerCount: 2
Fore
SplineSet
238 649 m 257
 238 710 l 257
 392 710 l 257
 392 1372 l 257
 243 1296 l 257
 245 1370 l 257
 398 1456 l 257
 466 1456 l 257
 466 710 l 257
 606 710 l 257
 606 649 l 257
 238 649 l 257
EndSplineSet
EndChar

StartChar: ordfeminine
Encoding: 170 170 366
Width: 691
VWidth: 0
GlyphClass: 2
Flags: W
PickledData: "(dp1
S'org.robofab.postScriptHintData'
p2
(dp3
sS'com.typemytype.robofont.layerData'
p4
(dp5
S'b'
(dp6
S'name'
p7
S'ordfeminine'
p8
sS'lib'
p9
(dp10
sS'unicodes'
p11
(tsS'width'
p12
F797.10000000000002
sS'contours'
p13
(tsS'components'
p14
(tsS'anchors'
p15
(tsss."
LayerCount: 2
Fore
SplineSet
329 880 m 256
 508 880 542 1007 542 1105 c 258
 542 1137 l 257
 313 1137 168 1147 168 1012 c 256
 168 923 221 880 329 880 c 256
313 802 m 256
 157 802 70 890 70 1003 c 256
 70 1121 169 1200 371 1200 c 258
 540 1200 l 257
 540 1216 l 258
 540 1347 520 1405 380 1405 c 256
 242 1405 134 1351 134 1351 c 257
 115 1413 l 257
 115 1413 232 1478 374 1478 c 256
 507 1478 614 1416 621 1284 c 256
 620 1241 616 877 616 919 c 258
 616 919 612 937 621 809 c 257
 529 809 l 257
 533 900 l 257
 481 824 389 802 313 802 c 256
EndSplineSet
EndChar

StartChar: ordmasculine
Encoding: 186 186 367
Width: 850
VWidth: 0
GlyphClass: 2
Flags: W
PickledData: "(dp1
S'org.robofab.postScriptHintData'
p2
(dp3
sS'com.typemytype.robofont.layerData'
p4
(dp5
S'b'
(dp6
S'name'
p7
S'ordmasculine'
p8
sS'lib'
p9
(dp10
sS'unicodes'
p11
(tsS'width'
p12
F887.85000000000002
sS'contours'
p13
(tsS'components'
p14
(tsS'anchors'
p15
(tsss."
LayerCount: 2
Fore
SplineSet
426 806 m 256
 199 806 81 960 81 1155 c 256
 81 1348 204 1500 427 1500 c 256
 653 1500 768 1350 768 1153 c 256
 768 962 647 806 426 806 c 256
430 892 m 256
 579 892 668 991 668 1147 c 256
 668 1309 579 1408 424 1408 c 256
 275 1408 189 1310 189 1152 c 256
 189 989 271 892 430 892 c 256
EndSplineSet
EndChar

StartChar: oslash
Encoding: 248 248 368
Width: 1230
VWidth: 0
GlyphClass: 2
Flags: W
PickledData: "(dp1
S'org.robofab.postScriptHintData'
p2
(dp3
sS'com.typemytype.robofont.layerData'
p4
(dp5
S'b'
(dp6
S'name'
p7
S'oslash'
p8
sS'lib'
p9
(dp10
sS'unicodes'
p11
(tsS'width'
p12
F1255
sS'contours'
p13
(tsS'components'
p14
(tsS'anchors'
p15
(tsss."
LayerCount: 2
Fore
SplineSet
615 -21 m 256
 931 -21 1134 187 1134 510 c 256
 1134 742.336 1033.38 916.181 863.537 998.731 c 257
 964 1228 l 257
 916 1249 l 257
 816.103 1018.75 l 257
 755.943 1040.52 688.531 1052 615 1052 c 256
 299 1052 96 840 96 510 c 256
 96 274.79 203.647 100.562 384.188 23.229 c 257
 283 -210 l 257
 326 -228 l 257
 428.791 6.58291 l 257
 485.116 -11.5033 547.478 -21 615 -21 c 256
829.044 920.013 m 257
 961.004 848.147 1034 702.774 1034 510 c 256
 1034 237 880 61 615 61 c 256
 559.13 61 508.194 68.823 462.595 83.7287 c 257
 829.044 920.013 l 257
782.524 941.351 m 257
 418.063 101.307 l 257
 275.319 168.109 196 314.074 196 510 c 256
 196 790 350 970 615 970 c 256
 677.127 970 733.153 960.107 782.524 941.351 c 257
EndSplineSet
EndChar

StartChar: p
Encoding: 112 112 371
Width: 1263
VWidth: 0
GlyphClass: 2
Flags: W
PickledData: "(dp1
S'org.robofab.postScriptHintData'
p2
(dp3
sS'com.typemytype.robofont.layerData'
p4
(dp5
S'b'
(dp6
S'name'
p7
S'p'
sS'lib'
p8
(dp9
sS'unicodes'
p10
(tsS'width'
p11
F1260.25
sS'contours'
p12
(tsS'components'
p13
(tsS'anchors'
p14
(tsss."
AnchorPoint: "top" 705 1026 basechar 0
LayerCount: 2
Fore
SplineSet
703 56 m 256
 937 56 1069 232 1069 506 c 256
 1069 785 937 965 703 965 c 256
 458 965 301 770 301 491 c 256
 301 217 458 56 703 56 c 256
203 -490 m 257
 203 758 l 258
 203 864 196 1024 196 1026 c 258
 295 1026 l 257
 300 779 l 257
 357 937 515 1047 703 1047 c 256
 985 1047 1167 835 1167 506 c 256
 1167 182 985 -26 703 -26 c 256
 522 -26 364 58 301 212 c 257
 301 -490 l 257
 203 -490 l 257
EndSplineSet
EndChar

StartChar: paragraph
Encoding: 182 182 372
Width: 1191
VWidth: 0
GlyphClass: 2
Flags: W
PickledData: "(dp1
S'org.robofab.postScriptHintData'
p2
(dp3
sS'com.typemytype.robofont.layerData'
p4
(dp5
S'b'
(dp6
S'name'
p7
S'paragraph'
p8
sS'lib'
p9
(dp10
sS'unicodes'
p11
(tsS'width'
p12
F1211.95
sS'contours'
p13
(tsS'components'
p14
(tsS'anchors'
p15
(tsss."
LayerCount: 2
Fore
SplineSet
525 -180 m 257
 525 843 l 257
 371 832 156 931 156 1139 c 256
 156 1383 337 1457 613 1457 c 258
 1005 1457 l 257
 1005 1381 l 257
 914 1381 l 257
 914 -180 l 257
 841 -180 l 257
 841 1381 l 257
 598 1381 l 257
 598 -180 l 257
 525 -180 l 257
EndSplineSet
EndChar

StartChar: parenleft
Encoding: 40 40 373
Width: 564
VWidth: 0
GlyphClass: 2
Flags: W
PickledData: "(dp1
S'org.robofab.postScriptHintData'
p2
(dp3
sS'com.typemytype.robofont.layerData'
p4
(dp5
S'b'
(dp6
S'name'
p7
S'parenleft'
p8
sS'lib'
p9
(dp10
sS'unicodes'
p11
(tsS'width'
p12
F639.35000000000002
sS'contours'
p13
(tsS'components'
p14
(tsS'anchors'
p15
(tsss."
LayerCount: 2
Fore
SplineSet
420 -176 m 257
 270 56 164 340 164 660 c 256
 164 990 254 1251 422 1516 c 257
 516 1516 l 257
 353 1253 262 986 262 667 c 256
 262 371 357 69 518 -176 c 257
 420 -176 l 257
EndSplineSet
EndChar

StartChar: parenright
Encoding: 41 41 374
Width: 564
VWidth: 0
GlyphClass: 2
Flags: W
PickledData: "(dp1
S'org.robofab.postScriptHintData'
p2
(dp3
sS'com.typemytype.robofont.layerData'
p4
(dp5
S'b'
(dp6
S'name'
p7
S'parenright'
p8
sS'lib'
p9
(dp10
sS'unicodes'
p11
(tsS'width'
p12
F639.35000000000002
sS'contours'
p13
(tsS'components'
p14
(tsS'anchors'
p15
(tsss."
LayerCount: 2
Fore
SplineSet
47 -196 m 257
 210 66 301 334 301 653 c 256
 301 949 206 1251 45 1496 c 257
 143 1496 l 257
 294 1264 400 979 400 660 c 256
 400 329 309 68 142 -196 c 257
 47 -196 l 257
EndSplineSet
EndChar

StartChar: partialdiff
Encoding: 8706 8706 375
Width: 1168
VWidth: 0
GlyphClass: 2
Flags: W
PickledData: "(dp1
S'org.robofab.postScriptHintData'
p2
(dp3
sS'com.typemytype.robofont.layerData'
p4
(dp5
S'b'
(dp6
S'name'
p7
S'partialdiff'
p8
sS'lib'
p9
(dp10
sS'unicodes'
p11
(tsS'width'
p12
F1163.95
sS'contours'
p13
(tsS'components'
p14
(tsS'anchors'
p15
(tsss."
LayerCount: 2
Fore
SplineSet
506 63 m 256
 808 63 932 410 954 662 c 257
 913 798 800 914 626 914 c 256
 395 914 214 682 214 412 c 256
 214 201 328 63 506 63 c 256
501 -24 m 256
 241 -24 108 169 108 414 c 256
 108 747 322 1002 595 1002 c 256
 824 1002 924 850 972 767 c 257
 972 799 974 825 975 868 c 256
 984 1247 836 1470 578 1470 c 256
 518 1470 422 1456 325 1384 c 257
 317 1478 l 257
 391 1523 493 1559 607 1559 c 256
 898 1559 1081 1343 1081 872 c 256
 1081 429 884 -24 501 -24 c 256
EndSplineSet
EndChar

StartChar: percent
Encoding: 37 37 377
Width: 2123
VWidth: 0
GlyphClass: 2
Flags: W
PickledData: "(dp1
S'org.robofab.postScriptHintData'
p2
(dp3
sS'com.typemytype.robofont.layerData'
p4
(dp5
S'b'
(dp6
S'name'
p7
S'percent'
p8
sS'lib'
p9
(dp10
sS'unicodes'
p11
(tsS'width'
p12
F1769.3
sS'contours'
p13
(tsS'components'
p14
(tsS'anchors'
p15
(tsss."
LayerCount: 2
Fore
SplineSet
1631 0 m 256
 1413 0 1298 157 1298 453 c 256
 1298 757 1413 918 1631 918 c 256
 1840 918 1951 757 1951 453 c 256
 1951 157 1840 0 1631 0 c 256
1631 76 m 256
 1780 76 1859 207 1859 454 c 256
 1859 708 1780 842 1631 842 c 256
 1473 842 1390 708 1390 454 c 256
 1390 207 1473 76 1631 76 c 256
755 0 m 257
 1294 1456 l 257
 1376 1456 l 257
 835 0 l 257
 755 0 l 257
505 538 m 256
 287 538 172 695 172 991 c 256
 172 1295 287 1456 505 1456 c 256
 714 1456 825 1295 825 991 c 256
 825 695 714 538 505 538 c 256
505 614 m 256
 654 614 733 745 733 992 c 256
 733 1246 654 1380 505 1380 c 256
 347 1380 264 1246 264 992 c 256
 264 745 347 614 505 614 c 256
EndSplineSet
EndChar

StartChar: period
Encoding: 46 46 378
Width: 550
VWidth: 0
GlyphClass: 2
Flags: W
PickledData: "(dp1
S'org.robofab.postScriptHintData'
p2
(dp3
s."
LayerCount: 2
Fore
SplineSet
204 0 m 257
 204 167 l 257
 366 167 l 257
 366 0 l 257
 204 0 l 257
EndSplineSet
EndChar

StartChar: periodcentered
Encoding: 183 183 379
Width: 509
VWidth: 0
GlyphClass: 2
Flags: W
PickledData: "(dp1
S'org.robofab.postScriptHintData'
p2
(dp3
sS'com.typemytype.robofont.layerData'
p4
(dp5
S'b'
(dp6
S'name'
p7
S'middot'
p8
sS'lib'
p9
(dp10
sS'unicodes'
p11
(tsS'width'
p12
I509
sS'contours'
p13
(tsS'components'
p14
(tsS'anchors'
p15
(tsss."
LayerCount: 2
Fore
SplineSet
245 533 m 257
 245 693 l 257
 373 693 l 257
 373 533 l 257
 245 533 l 257
EndSplineSet
EndChar

StartChar: perthousand
Encoding: 8240 8240 380
Width: 2988
VWidth: 0
GlyphClass: 2
Flags: W
PickledData: "(dp1
S'org.robofab.postScriptHintData'
p2
(dp3
sS'com.typemytype.robofont.layerData'
p4
(dp5
S'b'
(dp6
S'name'
p7
S'perthousand'
p8
sS'lib'
p9
(dp10
sS'unicodes'
p11
(tsS'width'
p12
F2581.1999999999998
sS'contours'
p13
(tsS'components'
p14
(tsS'anchors'
p15
(tsss."
LayerCount: 2
Fore
SplineSet
2496 0 m 256
 2278 0 2163 157 2163 453 c 256
 2163 757 2278 918 2496 918 c 256
 2705 918 2816 757 2816 453 c 256
 2816 157 2705 0 2496 0 c 256
2496 76 m 256
 2645 76 2724 207 2724 454 c 256
 2724 708 2645 842 2496 842 c 256
 2338 842 2255 708 2255 454 c 256
 2255 207 2338 76 2496 76 c 256
EndSplineSet
Refer: 377 37 N 1 0 0 1 0 0 2
EndChar

StartChar: pi
Encoding: 960 960 381
Width: 1288
VWidth: 0
GlyphClass: 2
Flags: W
PickledData: "(dp1
S'org.robofab.postScriptHintData'
p2
(dp3
sS'com.typemytype.robofont.layerData'
p4
(dp5
S'b'
(dp6
S'name'
p7
S'pi'
p8
sS'lib'
p9
(dp10
sS'unicodes'
p11
(tsS'width'
p12
F1288
sS'contours'
p13
(tsS'components'
p14
(tsS'anchors'
p15
(tsss."
LayerCount: 2
Fore
SplineSet
181 0 m 257
 378 259 360 480 384 941 c 257
 329 941 264 936 168 882 c 257
 151 963 l 257
 241 1010 307 1026 387 1026 c 258
 1134 1026 l 257
 1134 941 l 257
 960 941 l 257
 960 249 l 258
 960 140 983 72 1087 72 c 256
 1100 72 1114 73 1130 75 c 257
 1138 -1 l 257
 1109 -5 1079 -9 1051 -9 c 256
 949 -9 863 36 863 249 c 258
 863 941 l 257
 483 941 l 257
 463 467 458 218 304 0 c 257
 181 0 l 257
EndSplineSet
EndChar

StartChar: plus
Encoding: 43 43 382
Width: 1116
VWidth: 0
GlyphClass: 2
Flags: W
PickledData: "(dp1
S'org.robofab.postScriptHintData'
p2
(dp3
sS'com.typemytype.robofont.layerData'
p4
(dp5
S'b'
(dp6
S'name'
p7
S'plus'
p8
sS'lib'
p9
(dp10
sS'unicodes'
p11
(tsS'width'
p12
F1206.9000000000001
sS'contours'
p13
(tsS'components'
p14
(tsS'anchors'
p15
(tsss."
LayerCount: 2
Fore
SplineSet
512 137 m 257
 512 581 l 257
 121 581 l 257
 121 672 l 257
 511 672 l 257
 511 1081 l 257
 600 1081 l 257
 600 672 l 257
 995 672 l 257
 995 581 l 257
 603 581 l 257
 603 137 l 257
 512 137 l 257
EndSplineSet
EndChar

StartChar: plusminus
Encoding: 177 177 383
Width: 1180
VWidth: 0
GlyphClass: 2
Flags: W
PickledData: "(dp1
S'org.robofab.postScriptHintData'
p2
(dp3
sS'com.typemytype.robofont.layerData'
p4
(dp5
S'b'
(dp6
S'name'
p7
S'plusminus'
p8
sS'lib'
p9
(dp10
sS'unicodes'
p11
(tsS'width'
p12
F1234.75
sS'contours'
p13
(tsS'components'
p14
(tsS'anchors'
p15
(tsss."
LayerCount: 2
Fore
SplineSet
174 0 m 257
 174 92 l 257
 1027 92 l 257
 1027 0 l 257
 174 0 l 257
556 209 m 257
 556 597 l 257
 198 597 l 257
 198 691 l 257
 556 691 l 257
 556 1079 l 257
 639 1079 l 257
 639 691 l 257
 976 691 l 257
 976 597 l 257
 639 597 l 257
 639 209 l 257
 556 209 l 257
EndSplineSet
EndChar

StartChar: product
Encoding: 8719 8719 384
Width: 1521
VWidth: 0
GlyphClass: 2
Flags: W
PickledData: "(dp1
S'org.robofab.postScriptHintData'
p2
(dp3
sS'com.typemytype.robofont.layerData'
p4
(dp5
S'b'
(dp6
S'name'
p7
S'product'
p8
sS'lib'
p9
(dp10
sS'unicodes'
p11
(tsS'width'
p12
F1568
sS'contours'
p13
(tsS'components'
p14
(tsS'anchors'
p15
(tsss."
LayerCount: 2
Fore
SplineSet
294 -43 m 257
 294 1370 l 257
 110 1370 l 257
 110 1456 l 257
 1411 1456 l 257
 1411 1370 l 257
 1227 1370 l 257
 1227 -43 l 257
 1127 -43 l 257
 1127 1370 l 257
 394 1370 l 257
 394 -43 l 257
 294 -43 l 257
EndSplineSet
EndChar

StartChar: q
Encoding: 113 113 385
Width: 1256
VWidth: 0
GlyphClass: 2
Flags: W
PickledData: "(dp1
S'org.robofab.postScriptHintData'
p2
(dp3
sS'com.typemytype.robofont.layerData'
p4
(dp5
S'b'
(dp6
S'name'
p7
S'q'
sS'lib'
p8
(dp9
sS'unicodes'
p10
(tsS'width'
p11
F1254.3
sS'contours'
p12
(tsS'components'
p13
(tsS'anchors'
p14
(tsss."
LayerCount: 2
Fore
SplineSet
558 66 m 256
 773 66 927 224 927 557 c 256
 927 818 774 965 579 965 c 256
 365 965 203 802 203 500 c 256
 203 209 362 66 558 66 c 256
938 -449 m 257
 938 237 l 257
 924 136 805 -21 554 -21 c 256
 317 -21 92 132 92 490 c 256
 92 867 296 1052 569 1052 c 256
 771 1052 897 953 936 843 c 257
 936 1026 l 257
 1045 1026 l 257
 1051 1102 1041 801 1041 872 c 258
 1041 -449 l 257
 938 -449 l 257
EndSplineSet
EndChar

StartChar: question
Encoding: 63 63 386
Width: 1113
VWidth: 0
GlyphClass: 2
Flags: W
PickledData: "(dp1
S'org.robofab.postScriptHintData'
p2
(dp3
sS'com.typemytype.robofont.layerData'
p4
(dp5
S'b'
(dp6
S'name'
p7
S'question'
p8
sS'lib'
p9
(dp10
sS'unicodes'
p11
(tsS'width'
p12
F1055.9000000000001
sS'contours'
p13
(tsS'components'
p14
(tsS'anchors'
p15
(tsss."
LayerCount: 2
Fore
SplineSet
353 -20 m 257
 353 147 l 257
 516 147 l 257
 516 -20 l 257
 353 -20 l 257
390 338 m 257
 390 486 l 258
 390 716 799 860 799 1131 c 256
 799 1310 658 1384 485 1384 c 256
 358 1384 260 1332 213 1303 c 257
 213 1408 l 257
 369 1483 501 1473 503 1473 c 256
 758 1473 901 1362 901 1140 c 256
 901 843 470 673 470 480 c 258
 470 338 l 257
 390 338 l 257
EndSplineSet
EndChar

StartChar: quotedbl
Encoding: 34 34 388
Width: 911
VWidth: 0
GlyphClass: 2
Flags: W
PickledData: "(dp1
S'org.robofab.postScriptHintData'
p2
(dp3
sS'com.typemytype.robofont.layerData'
p4
(dp5
S'b'
(dp6
S'name'
p7
S'quotedbl'
p8
sS'lib'
p9
(dp10
sS'unicodes'
p11
(tsS'width'
p12
F785.64999999999998
sS'contours'
p13
(tsS'components'
p14
(tsS'anchors'
p15
(tsss."
LayerCount: 2
Fore
SplineSet
284 929 m 257
 254 1456 l 257
 364 1456 l 257
 348 929 l 257
 284 929 l 257
585 929 m 257
 555 1456 l 257
 665 1456 l 257
 649 929 l 257
 585 929 l 257
EndSplineSet
EndChar

StartChar: quotedblbase
Encoding: 8222 8222 389
Width: 1024
VWidth: 0
GlyphClass: 2
Flags: W
PickledData: "(dp1
S'org.robofab.postScriptHintData'
p2
(dp3
s."
LayerCount: 2
Fore
SplineSet
314 -369 m 257
 284 158 l 257
 394 158 l 257
 378 -369 l 257
 314 -369 l 257
615 -369 m 257
 585 158 l 257
 695 158 l 257
 679 -369 l 257
 615 -369 l 257
EndSplineSet
EndChar

StartChar: quotedblleft
Encoding: 8220 8220 390
Width: 1024
VWidth: 0
GlyphClass: 2
Flags: W
PickledData: "(dp1
S'org.robofab.postScriptHintData'
p2
(dp3
sS'com.typemytype.robofont.layerData'
p4
(dp5
S'b'
(dp6
S'name'
p7
S'quotedblleft'
p8
sS'lib'
p9
(dp10
sS'unicodes'
p11
(tsS'width'
p12
F1024
sS'contours'
p13
(tsS'components'
p14
(tsS'anchors'
p15
(tsss."
LayerCount: 2
Fore
SplineSet
551 904 m 257
 631 1456 l 257
 698 1456 l 257
 670 904 l 257
 551 904 l 257
212 904 m 257
 292 1456 l 257
 359 1456 l 257
 331 904 l 257
 212 904 l 257
EndSplineSet
EndChar

StartChar: quotedblright
Encoding: 8221 8221 391
Width: 1024
VWidth: 0
GlyphClass: 2
Flags: W
PickledData: "(dp1
S'org.robofab.postScriptHintData'
p2
(dp3
sS'com.typemytype.robofont.layerData'
p4
(dp5
S'b'
(dp6
S'name'
p7
S'quotedblright'
p8
sS'lib'
p9
(dp10
sS'unicodes'
p11
(tsS'width'
p12
F1024
sS'contours'
p13
(tsS'components'
p14
(tsS'anchors'
p15
(tsss."
LayerCount: 2
Fore
SplineSet
551 904 m 257
 579 1456 l 257
 698 1456 l 257
 618 904 l 257
 551 904 l 257
212 904 m 257
 240 1456 l 257
 359 1456 l 257
 279 904 l 257
 212 904 l 257
EndSplineSet
EndChar

StartChar: quoteleft
Encoding: 8216 8216 392
Width: 432
VWidth: 0
GlyphClass: 2
Flags: W
PickledData: "(dp1
S'org.robofab.postScriptHintData'
p2
(dp3
sS'com.typemytype.robofont.layerData'
p4
(dp5
S'b'
(dp6
S'name'
p7
S'quoteleft'
p8
sS'lib'
p9
(dp10
sS'unicodes'
p11
(tsS'width'
p12
F518.5
sS'contours'
p13
(tsS'components'
p14
(tsS'anchors'
p15
(tsss."
LayerCount: 2
Fore
SplineSet
222 904 m 257
 103 904 l 257
 183 1456 l 257
 250 1456 l 257
 222 904 l 257
EndSplineSet
EndChar

StartChar: quoteright
Encoding: 8217 8217 393
Width: 395
VWidth: 0
GlyphClass: 2
Flags: W
PickledData: "(dp1
S'org.robofab.postScriptHintData'
p2
(dp3
sS'com.typemytype.robofont.layerData'
p4
(dp5
S'b'
(dp6
S'name'
p7
S'quoteright'
p8
sS'lib'
p9
(dp10
g4
(dp11
S'b'
(dp12
g7
S'quoteleft'
p13
sg9
(dp14
sS'unicodes'
p15
(tsS'width'
p16
I494
sS'contours'
p17
(tsS'components'
p18
(tsS'anchors'
p19
(tssssg15
(tsg16
F537.25
sg17
((dp20
S'points'
p21
((dp22
S'segmentType'
p23
S'line'
p24
sS'x'
F416
sS'smooth'
p25
I00
sS'y'
F888
s(dp26
g23
S'line'
p27
sS'x'
F300
sg25
I00
sS'y'
F888
s(dp28
g23
S'line'
p29
sS'x'
F150
sg25
I00
sS'y'
F1456
s(dp30
g23
S'line'
p31
sS'x'
F360
sg25
I00
sS'y'
F1456
stp32
stp33
sg18
(tsg19
(tsss."
LayerCount: 2
Fore
SplineSet
143 904 m 257
 171 1456 l 257
 290 1456 l 257
 210 904 l 257
 143 904 l 257
EndSplineSet
EndChar

StartChar: quotesinglbase
Encoding: 8218 8218 394
Width: 445
VWidth: 0
GlyphClass: 2
Flags: W
PickledData: "(dp1
S'org.robofab.postScriptHintData'
p2
(dp3
sS'com.typemytype.robofont.layerData'
p4
(dp5
S'b'
(dp6
S'name'
p7
S'quotesinglbase'
p8
sS'lib'
p9
(dp10
sS'unicodes'
p11
(tsS'width'
p12
F595.70000000000005
sS'contours'
p13
(tsS'components'
p14
(tsS'anchors'
p15
(tsss."
LayerCount: 2
Fore
SplineSet
207 -369 m 257
 177 158 l 257
 287 158 l 257
 271 -369 l 257
 207 -369 l 257
EndSplineSet
EndChar

StartChar: quotesingle
Encoding: 39 39 395
Width: 544
VWidth: 0
GlyphClass: 2
Flags: W
PickledData: "(dp1
S'org.robofab.postScriptHintData'
p2
(dp3
sS'com.typemytype.robofont.layerData'
p4
(dp5
S'b'
(dp6
S'name'
p7
S'quotesingle'
p8
sS'lib'
p9
(dp10
sS'unicodes'
p11
(tsS'width'
p12
F507.85000000000002
sS'contours'
p13
(tsS'components'
p14
(tsS'anchors'
p15
(tsss."
LayerCount: 2
Fore
SplineSet
237 929 m 257
 207 1456 l 257
 317 1456 l 257
 301 929 l 257
 237 929 l 257
EndSplineSet
EndChar

StartChar: r
Encoding: 114 114 396
Width: 769
VWidth: 0
GlyphClass: 2
Flags: W
PickledData: "(dp1
S'org.robofab.postScriptHintData'
p2
(dp3
sS'com.typemytype.robofont.layerData'
p4
(dp5
S'b'
(dp6
S'name'
p7
S'r'
sS'lib'
p8
(dp9
sS'unicodes'
p10
(tsS'width'
p11
F818.89999999999998
sS'contours'
p12
(tsS'components'
p13
(tsS'anchors'
p14
(tsss."
AnchorPoint: "top" 480 1026 basechar 0
LayerCount: 2
Fore
SplineSet
205 0 m 257
 205 776 l 258
 205 904 196 1026 196 1026 c 257
 296 1026 l 257
 306 835 l 257
 352 994 475 1048 608 1048 c 256
 641 1048 675 1045 709 1039 c 257
 704 949 l 257
 672 955 640 958 610 958 c 256
 434 958 303 849 303 559 c 258
 303 0 l 257
 205 0 l 257
EndSplineSet
EndChar

StartChar: radical
Encoding: 8730 8730 398
Width: 1314
VWidth: 0
GlyphClass: 2
Flags: W
PickledData: "(dp1
S'org.robofab.postScriptHintData'
p2
(dp3
s."
LayerCount: 2
Fore
SplineSet
655 -160 m 257
 303 729 l 257
 122 702 l 257
 120 767 l 257
 359 812 l 257
 697 -116 l 257
 1158 1626 l 257
 1214 1626 l 257
 737 -160 l 257
 655 -160 l 257
EndSplineSet
EndChar

StartChar: registered
Encoding: 174 174 402
Width: 1748
VWidth: 0
GlyphClass: 2
Flags: W
PickledData: "(dp1
S'org.robofab.postScriptHintData'
p2
(dp3
sS'com.typemytype.robofont.layerData'
p4
(dp5
S'b'
(dp6
S'name'
p7
S'registered'
p8
sS'lib'
p9
(dp10
sS'unicodes'
p11
(tsS'width'
p12
F1727.05
sS'contours'
p13
(tsS'components'
p14
(tsS'anchors'
p15
(tsss."
LayerCount: 2
Fore
SplineSet
873 -38 m 256
 454 -38 110 304 110 724 c 256
 110 1143 454 1487 873 1487 c 256
 1293 1487 1638 1143 1638 724 c 256
 1638 304 1293 -38 873 -38 c 256
876 46 m 256
 1242 46 1541 354 1541 719 c 256
 1541 1086 1242 1393 876 1393 c 256
 508 1393 209 1086 209 719 c 256
 209 354 508 46 876 46 c 256
669 762 m 257
 821 762 l 258
 1033 762 1123 791 1123 937 c 256
 1123 1095 1051 1121 794 1121 c 258
 669 1121 l 257
 669 762 l 257
575 261 m 257
 575 1207 l 257
 816 1207 l 258
 1119 1207 1233 1115 1233 955 c 256
 1233 815 1186 733 984 703 c 257
 1223 261 l 257
 1105 261 l 257
 878 698 l 257
 672 698 l 257
 672 261 l 257
 575 261 l 257
EndSplineSet
EndChar

StartChar: ring
Encoding: 730 730 403
Width: 534
VWidth: 0
GlyphClass: 4
Flags: W
PickledData: "(dp1
S'org.robofab.postScriptHintData'
p2
(dp3
sS'com.typemytype.robofont.layerData'
p4
(dp5
S'b'
(dp6
S'name'
p7
S'ring'
p8
sS'lib'
p9
(dp10
sS'unicodes'
p11
(tsS'width'
p12
F633.35000000000002
sS'contours'
p13
(tsS'components'
p14
(tsS'anchors'
p15
(tsss."
AnchorPoint: "top" 267 1456 basechar 0
AnchorPoint: "top" 269 1026 mark 0
LayerCount: 2
Fore
SplineSet
268 1146 m 256
 167 1146 93 1217 93 1314 c 256
 93 1411 167 1482 268 1482 c 256
 369 1482 443 1411 443 1314 c 256
 443 1217 369 1146 268 1146 c 256
268 1202 m 256
 329 1202 373 1249 373 1314 c 256
 373 1379 329 1426 268 1426 c 256
 207 1426 163 1379 163 1314 c 256
 163 1249 207 1202 268 1202 c 256
EndSplineSet
EndChar

StartChar: s
Encoding: 115 115 405
Width: 935
VWidth: 0
GlyphClass: 2
Flags: W
PickledData: "(dp1
S'org.robofab.postScriptHintData'
p2
(dp3
sS'com.typemytype.robofont.layerData'
p4
(dp5
S'b'
(dp6
S'name'
p7
S's'
sS'lib'
p8
(dp9
sS'unicodes'
p10
(tsS'width'
p11
F981.89999999999998
sS'contours'
p12
((dp13
S'points'
p14
((dp15
S'segmentType'
p16
S'curve'
p17
sS'x'
F498
sS'smooth'
p18
I01
sS'y'
F-23
s(dp19
S'y'
F-23
sS'x'
F282
sg18
I00
s(dp20
S'y'
F70
sS'x'
F145
sg18
I00
s(dp21
g16
S'curve'
p22
sS'x'
F116
sg18
I00
sS'y'
F94
s(dp23
g16
S'line'
p24
sS'x'
F160
sg18
I00
sS'y'
F222
s(dp25
S'y'
F189
sS'x'
F208
sg18
I00
s(dp26
S'y'
F109
sS'x'
F348
sg18
I00
s(dp27
g16
S'curve'
p28
sS'x'
F484
sg18
I01
sS'y'
F109
s(dp29
S'y'
F109
sS'x'
F589
sg18
I00
s(dp30
S'y'
F141
sS'x'
F711
sg18
I00
s(dp31
g16
S'curve'
p32
sS'x'
F711
sg18
I01
sS'y'
F272
s(dp33
S'y'
F395
sS'x'
F711
sg18
I00
s(dp34
S'y'
F426
sS'x'
F561
sg18
I00
s(dp35
g16
S'curve'
p36
sS'x'
F412
sg18
I00
sS'y'
F474
s(dp37
S'y'
F521
sS'x'
F262
sg18
I00
s(dp38
S'y'
F585
sS'x'
F112
sg18
I00
s(dp39
g16
S'curve'
p40
sS'x'
F112
sg18
I01
sS'y'
F771
s(dp41
S'y'
F970
sS'x'
F112
sg18
I00
s(dp42
S'y'
F1051
sS'x'
F318
sg18
I00
s(dp43
g16
S'curve'
p44
sS'x'
F488
sg18
I01
sS'y'
F1051
s(dp45
S'y'
F1051
sS'x'
F715
sg18
I00
s(dp46
S'y'
F991
sS'x'
F792
sg18
I00
s(dp47
g16
S'curve'
p48
sS'x'
F832
sg18
I00
sS'y'
F966
s(dp49
g16
S'line'
p50
sS'x'
F785
sg18
I00
sS'y'
F851
s(dp51
S'y'
F858
sS'x'
F772
sg18
I00
s(dp52
S'y'
F917
sS'x'
F667
sg18
I00
s(dp53
g16
S'curve'
p54
sS'x'
F504
sg18
I01
sS'y'
F917
s(dp55
S'y'
F917
sS'x'
F355
sg18
I00
s(dp56
S'y'
F882
sS'x'
F283
sg18
I00
s(dp57
g16
S'curve'
p58
sS'x'
F283
sg18
I01
sS'y'
F774
s(dp59
S'y'
F660
sS'x'
F283
sg18
I00
s(dp60
S'y'
F629
sS'x'
F433
sg18
I00
s(dp61
g16
S'curve'
p62
sS'x'
F582
sg18
I01
sS'y'
F581
s(dp63
S'y'
F533
sS'x'
F732
sg18
I00
s(dp64
S'y'
F468
sS'x'
F881
sg18
I00
s(dp65
g16
S'curve'
p66
sS'x'
F881
sg18
I01
sS'y'
F284
s(dp67
S'y'
F62
sS'x'
F881
sg18
I00
s(dp68
S'y'
F-23
sS'x'
F685
sg18
I00
stp69
stp70
sS'components'
p71
(tsS'anchors'
p72
(tsss."
AnchorPoint: "top" 466 1026 basechar 0
LayerCount: 2
Fore
SplineSet
477 -21 m 256
 282 -21 155 72 122 96 c 257
 159 172 l 257
 192 151 305 65 473 65 c 256
 594 65 744 95 744 262 c 256
 744 375 690 419 559 459 c 258
 353 522 l 258
 204 568 117 629 117 783 c 256
 117 971 268 1052 492 1052 c 256
 675 1052 762 999 798 977 c 257
 766 904 l 257
 733 922 644 970 492 970 c 256
 299 970 215 903 214 791 c 256
 214 683 254 651 390 609 c 258
 591 546 l 258
 756 494 838 428 838 280 c 256
 838 69 678 -21 477 -21 c 256
EndSplineSet
EndChar

StartChar: section
Encoding: 167 167 412
Width: 1024
VWidth: 0
GlyphClass: 2
Flags: W
PickledData: "(dp1
S'org.robofab.postScriptHintData'
p2
(dp3
sS'com.typemytype.robofont.layerData'
p4
(dp5
S'b'
(dp6
S'name'
p7
S'section'
p8
sS'lib'
p9
(dp10
sS'unicodes'
p11
(tsS'width'
p12
F1071.6500000000001
sS'contours'
p13
(tsS'components'
p14
(tsS'anchors'
p15
(tsss."
LayerCount: 2
Fore
SplineSet
573 476 m 257
 698 532 776 614 776 723 c 256
 776 809 712 837 522 930 c 257
 370 878 277 818 277 719 c 256
 277 604 388 557 573 476 c 257
497 -91 m 256
 410 -91 314 -74 219 -41 c 257
 219 33 l 257
 318 -5 414 -25 497 -25 c 256
 648 -25 756 41 756 179 c 257
 760 311 628 357 448 447 c 256
 291 526 201 571 201 716 c 256
 201 844 329 932 462 960 c 257
 292 1049 232 1102 232 1230 c 256
 232 1420 412 1500 586 1500 c 256
 657 1500 727 1486 784 1462 c 257
 784 1391 l 257
 726 1415 656 1429 587 1429 c 256
 448 1429 316 1372 316 1230 c 256
 316 1136 346 1107 547 1002 c 256
 752 895 861 860 861 720 c 256
 861 590 739 496 629 447 c 257
 762 381 839 310 839 190 c 256
 839 -5 690 -91 497 -91 c 256
EndSplineSet
EndChar

StartChar: semicolon
Encoding: 59 59 413
Width: 550
VWidth: 0
GlyphClass: 2
Flags: W
PickledData: "(dp1
S'org.robofab.postScriptHintData'
p2
(dp3
s."
LayerCount: 2
Fore
SplineSet
142 833 m 257
 142 1001 l 257
 333 1001 l 257
 333 833 l 257
 142 833 l 257
126 -256 m 257
 229 164 l 257
 348 164 l 257
 197 -256 l 257
 126 -256 l 257
EndSplineSet
EndChar

StartChar: seven
Encoding: 55 55 414
Width: 1177
VWidth: 0
GlyphClass: 2
Flags: W
PickledData: "(dp1
S'org.robofab.postScriptHintData'
p2
(dp3
s."
LayerCount: 2
Fore
SplineSet
392 0 m 257
 938 1356 l 257
 190 1356 l 257
 190 1456 l 257
 1054 1456 l 257
 1054 1376 l 257
 513 0 l 257
 392 0 l 257
EndSplineSet
EndChar

StartChar: six
Encoding: 54 54 415
Width: 1177
VWidth: 0
GlyphClass: 2
Flags: W
PickledData: "(dp1
S'org.robofab.postScriptHintData'
p2
(dp3
s."
LayerCount: 2
Fore
SplineSet
616 63 m 256
 840 63 960 232 960 452 c 256
 960 658 865 826 635 826 c 256
 382 826 247 648 247 552 c 256
 247 314 330 63 616 63 c 256
616 -23 m 256
 266 -23 124 269 124 688 c 256
 124 1123 286 1483 663 1483 c 256
 803 1483 911 1427 970 1383 c 257
 927 1307 l 257
 876 1349 778 1397 663 1397 c 256
 295 1397 241 981 235 777 c 256
 234 750 234 727 234 709 c 257
 271 786 417 912 635 912 c 256
 878 912 1070 735 1070 452 c 256
 1070 183 896 -23 616 -23 c 256
EndSplineSet
EndChar

StartChar: slash
Encoding: 47 47 416
Width: 732
VWidth: 0
GlyphClass: 2
Flags: W
PickledData: "(dp1
S'org.robofab.postScriptHintData'
p2
(dp3
s."
LayerCount: 2
Fore
SplineSet
143 0 m 257
 570 1456 l 257
 652 1456 l 257
 223 0 l 257
 143 0 l 257
EndSplineSet
EndChar

StartChar: softhyphen
Encoding: 173 173 418
Width: 593
VWidth: 0
GlyphClass: 2
Flags: W
PickledData: "(dp1
S'org.robofab.postScriptHintData'
p2
(dp3
s."
LayerCount: 2
Fore
SplineSet
67 527 m 257
 67 600 l 257
 526 600 l 257
 526 527 l 257
 67 527 l 257
EndSplineSet
EndChar

StartChar: sterling
Encoding: 163 163 420
Width: 1136
VWidth: 0
GlyphClass: 2
Flags: W
PickledData: "(dp1
S'org.robofab.postScriptHintData'
p2
(dp3
sS'com.typemytype.robofont.layerData'
p4
(dp5
S'b'
(dp6
S'name'
p7
S'sterling'
p8
sS'lib'
p9
(dp10
sS'unicodes'
p11
(tsS'width'
p12
F1207.3
sS'contours'
p13
(tsS'components'
p14
(tsS'anchors'
p15
(tsss."
LayerCount: 2
Fore
SplineSet
145 0 m 257
 145 104 l 257
 296 192 324 450 324 550 c 258
 324 714 l 257
 125 714 l 257
 125 791 l 257
 325 791 l 257
 325 1001 l 258
 325 1277 433 1474 721 1474 c 256
 869 1474 953 1427 960 1399 c 257
 925 1327 l 257
 925 1339 826 1383 711 1376 c 256
 497 1363 434 1206 434 1026 c 258
 434 791 l 257
 826 791 l 257
 826 714 l 257
 438 714 l 257
 438 552 l 258
 438 269 318 113 279 96 c 257
 985 96 l 257
 985 0 l 257
 145 0 l 257
EndSplineSet
EndChar

StartChar: summation
Encoding: 8721 8721 421
Width: 1102
VWidth: 0
GlyphClass: 2
Flags: W
PickledData: "(dp1
S'org.robofab.postScriptHintData'
p2
(dp3
sS'com.typemytype.robofont.layerData'
p4
(dp5
S'b'
(dp6
S'name'
p7
S'summation'
p8
sS'lib'
p9
(dp10
sS'unicodes'
p11
(tsS'width'
p12
F1198.3
sS'contours'
p13
(tsS'components'
p14
(tsS'anchors'
p15
(tsss."
LayerCount: 2
Fore
SplineSet
102 -99 m 257
 102 -50 l 257
 614 694 l 257
 120 1392 l 257
 120 1452 l 257
 1019 1452 l 257
 1019 1378 l 257
 251 1378 l 257
 716 706 l 257
 211 -27 l 257
 1061 -27 l 257
 1061 -99 l 257
 102 -99 l 257
EndSplineSet
EndChar

StartChar: t
Encoding: 116 116 422
Width: 687
VWidth: 0
GlyphClass: 2
Flags: W
PickledData: "(dp1
S'org.robofab.postScriptHintData'
p2
(dp3
sS'com.typemytype.robofont.layerData'
p4
(dp5
S'b'
(dp6
S'name'
p7
S't'
sS'lib'
p8
(dp9
sS'unicodes'
p10
(tsS'width'
p11
F763.89999999999998
sS'contours'
p12
(tsS'components'
p13
(tsS'anchors'
p14
(tsss."
AnchorPoint: "caron.alt" 299 1264 basechar 0
AnchorPoint: "top" 294 1311 basechar 0
LayerCount: 2
Fore
SplineSet
592 -1 m 257
 576 -1 560 0 546 0 c 256
 239 15 258 149 258 326 c 258
 258 961 l 257
 56 961 l 257
 56 1026 l 257
 258 1026 l 257
 258 1320 l 257
 356 1349 l 257
 356 1026 l 257
 589 1026 l 257
 589 961 l 257
 356 961 l 257
 356 323 l 258
 356 122 358 83 592 83 c 257
 592 -1 l 257
EndSplineSet
EndChar

StartChar: thorn
Encoding: 254 254 427
Width: 1247
VWidth: 0
GlyphClass: 2
Flags: W
PickledData: "(dp1
S'org.robofab.postScriptHintData'
p2
(dp3
s."
LayerCount: 2
Fore
SplineSet
669 61 m 256
 892 61 1035 231 1035 512 c 256
 1035 801 892 965 669 965 c 256
 380 965 285 740 285 512 c 256
 285 246 419 61 669 61 c 256
171 -449 m 257
 171 1450 l 257
 285 1450 l 257
 287 831 l 257
 361 972 494 1051 669 1051 c 256
 960 1051 1147 857 1147 512 c 256
 1147 183 960 -23 669 -23 c 256
 497 -23 355 62 285 201 c 257
 286 -449 l 257
 171 -449 l 257
EndSplineSet
EndChar

StartChar: three
Encoding: 51 51 428
Width: 1177
VWidth: 0
GlyphClass: 2
Flags: W
PickledData: "(dp1
S'org.robofab.postScriptHintData'
p2
(dp3
sS'com.typemytype.robofont.layerData'
p4
(dp5
S'b'
(dp6
S'name'
p7
S'three'
p8
sS'lib'
p9
(dp10
sS'unicodes'
p11
(tsS'width'
p12
F1234.0999999999999
sS'contours'
p13
((dp14
S'points'
p15
((dp16
S'segmentType'
p17
S'curve'
p18
sS'x'
F344
sS'smooth'
p19
I01
sS'y'
F1010
s(dp20
S'y'
F827
sS'x'
F344
sg19
I00
s(dp21
S'y'
F687
sS'x'
F423
sg19
I00
s(dp22
g17
S'curve'
p23
sS'x'
F634
sg19
I01
sS'y'
F687
s(dp24
S'y'
F687
sS'x'
F814
sg19
I00
s(dp25
S'y'
F803
sS'x'
F938
sg19
I00
s(dp26
g17
S'curve'
p27
sS'x'
F938
sg19
I01
sS'y'
F991
s(dp28
S'y'
F1166
sS'x'
F938
sg19
I00
s(dp29
S'y'
F1334
sS'x'
F845
sg19
I00
s(dp30
g17
S'curve'
p31
sS'x'
F635
sg19
I01
sS'y'
F1334
s(dp32
S'y'
F1334
sS'x'
F449
sg19
I00
s(dp33
S'y'
F1196
sS'x'
F344
sg19
I00
stp34
s(dp35
g15
((dp36
g17
S'curve'
p37
sS'x'
F594
sg19
I01
sS'y'
F-24
s(dp38
S'y'
F-24
sS'x'
F473
sg19
I00
s(dp39
S'y'
F-1
sS'x'
F367
sg19
I00
s(dp40
g17
S'curve'
p41
sS'x'
F238
sg19
I00
sS'y'
F65
s(dp42
g17
S'line'
p43
sS'x'
F287
sg19
I00
sS'y'
F197
s(dp44
S'y'
F138
sS'x'
F401
sg19
I00
s(dp45
S'y'
F124
sS'x'
F489
sg19
I00
s(dp46
g17
S'curve'
p47
sS'x'
F581
sg19
I01
sS'y'
F124
s(dp48
S'y'
F124
sS'x'
F812
sg19
I00
s(dp49
S'y'
F308
sS'x'
F950
sg19
I00
s(dp50
g17
S'curve'
p51
sS'x'
F950
sg19
I01
sS'y'
F657
s(dp52
g17
S'line'
p53
sS'x'
F950
sg19
I00
sS'y'
F722
s(dp54
S'y'
F600
sS'x'
F886
sg19
I00
s(dp55
S'y'
F544
sS'x'
F772
sg19
I00
s(dp56
g17
S'curve'
p57
sS'x'
F607
sg19
I01
sS'y'
F544
s(dp58
S'y'
F544
sS'x'
F328
sg19
I00
s(dp59
S'y'
F735
sS'x'
F168
sg19
I00
s(dp60
g17
S'curve'
p61
sS'x'
F168
sg19
I01
sS'y'
F1004
s(dp62
S'y'
F1275
sS'x'
F168
sg19
I00
s(dp63
S'y'
F1483
sS'x'
F341
sg19
I00
s(dp64
g17
S'curve'
p65
sS'x'
F643
sg19
I01
sS'y'
F1483
s(dp66
S'y'
F1483
sS'x'
F969
sg19
I00
s(dp67
S'y'
F1231
sS'x'
F1125
sg19
I00
s(dp68
g17
S'curve'
p69
sS'x'
F1125
sg19
I01
sS'y'
F774
s(dp70
S'y'
F203
sS'x'
F1125
sg19
I00
s(dp71
S'y'
F-24
sS'x'
F894
sg19
I00
stp72
stp73
sS'components'
p74
(tsS'anchors'
p75
(tsss."
LayerCount: 2
Fore
SplineSet
538 -23 m 256
 411 -23 277 8 195 56 c 257
 216 137 l 257
 328 80 454 63 538 63 c 256
 771 63 922 192 922 392 c 256
 922 590 804 719 559 724 c 258
 452 726 l 257
 450 820 l 257
 559 820 l 258
 787 820 894 937 894 1118 c 256
 894 1288 761 1397 554 1397 c 256
 412 1397 255 1343 169 1224 c 257
 112 1283 l 257
 190 1406 364 1483 554 1483 c 256
 821 1483 992 1340 992 1118 c 256
 992 971 893 808 710 772 c 257
 908 741 1032 578 1032 392 c 256
 1032 139 839 -23 538 -23 c 256
EndSplineSet
EndChar

StartChar: threequarters
Encoding: 190 190 429
Width: 1601
VWidth: 0
GlyphClass: 2
Flags: W
PickledData: "(dp1
S'org.robofab.postScriptHintData'
p2
(dp3
s."
LayerCount: 2
Fore
SplineSet
1029 256 m 257
 1336 256 l 257
 1336 697 l 257
 1029 256 l 257
410 0 m 257
 1340 1456 l 257
 1408 1456 l 257
 493 0 l 257
 410 0 l 257
1338 0 m 257
 1338 184 l 257
 943 184 l 257
 943 253 l 257
 1317 786 l 257
 1416 786 l 257
 1416 256 l 257
 1499 256 l 257
 1498 184 l 257
 1412 184 l 257
 1412 0 l 257
 1338 0 l 257
398 605 m 256
 302 605 204 640 148 695 c 257
 187 757 l 257
 237 708 319 674 398 674 c 256
 500 674 570 741 570 840 c 256
 570 939 505 1007 375 1007 c 258
 278 1007 l 257
 278 1078 l 257
 375 1078 l 258
 497 1078 556 1139 556 1228 c 256
 556 1322 487 1386 384 1386 c 256
 309 1386 247 1363 203 1302 c 257
 156 1346 l 257
 191 1413 280 1456 383 1456 c 256
 536 1456 634 1367 634 1228 c 256
 634 1143 581 1072 498 1047 c 257
 589 1021 648 940 648 840 c 256
 648 697 550 605 398 605 c 256
EndSplineSet
EndChar

StartChar: threesuperior
Encoding: 179 179 430
Width: 878
VWidth: 0
GlyphClass: 2
Flags: W
PickledData: "(dp1
S'org.robofab.postScriptHintData'
p2
(dp3
s."
LayerCount: 2
Fore
SplineSet
398 605 m 256
 302 605 204 640 148 695 c 257
 187 757 l 257
 237 708 319 674 398 674 c 256
 500 674 570 741 570 840 c 256
 570 939 505 1007 375 1007 c 258
 278 1007 l 257
 278 1078 l 257
 375 1078 l 258
 497 1078 556 1139 556 1228 c 256
 556 1322 487 1386 384 1386 c 256
 309 1386 247 1363 203 1302 c 257
 156 1346 l 257
 191 1413 280 1456 383 1456 c 256
 536 1456 634 1367 634 1228 c 256
 634 1143 581 1072 498 1047 c 257
 589 1021 648 940 648 840 c 256
 648 697 550 605 398 605 c 256
EndSplineSet
EndChar

StartChar: tilde
Encoding: 732 732 431
Width: 573
VWidth: 0
GlyphClass: 4
Flags: W
PickledData: "(dp1
S'org.robofab.postScriptHintData'
p2
(dp3
sS'com.typemytype.robofont.layerData'
p4
(dp5
S'b'
(dp6
S'name'
p7
S'tilde'
p8
sS'lib'
p9
(dp10
sS'unicodes'
p11
(tsS'width'
p12
F672.35000000000002
sS'contours'
p13
(tsS'components'
p14
(tsS'anchors'
p15
(tsss."
AnchorPoint: "top" 297 1026 mark 0
LayerCount: 2
Fore
SplineSet
452 1233 m 256
 360 1233 216 1330 143 1330 c 256
 98 1330 81 1300 81 1250 c 257
 19 1250 l 257
 19 1345 62 1394 138 1394 c 256
 232 1394 372 1297 445 1297 c 256
 485 1297 487 1330 487 1383 c 257
 553 1383 l 257
 553 1307 535 1233 452 1233 c 256
EndSplineSet
EndChar

StartChar: trademark
Encoding: 8482 8482 432
Width: 1869
VWidth: 0
GlyphClass: 2
Flags: W
PickledData: "(dp1
S'org.robofab.postScriptHintData'
p2
(dp3
sS'com.typemytype.robofont.layerData'
p4
(dp5
S'b'
(dp6
S'name'
p7
S'trademark'
p8
sS'lib'
p9
(dp10
sS'unicodes'
p11
(tsS'width'
p12
F1869
sS'contours'
p13
(tsS'components'
p14
(tsS'anchors'
p15
(tsss."
LayerCount: 2
Fore
SplineSet
347 731 m 257
 347 1430 l 257
 67 1430 l 257
 67 1482 l 257
 709 1482 l 257
 709 1430 l 257
 418 1430 l 257
 418 731 l 257
 347 731 l 257
825 731 m 257
 825 1482 l 257
 933 1482 l 257
 1233 825 l 257
 1563 1482 l 257
 1651 1482 l 257
 1651 731 l 257
 1591 731 l 257
 1591 1419 l 257
 1252 731 l 257
 1209 731 l 257
 887 1425 l 257
 887 731 l 257
 825 731 l 257
EndSplineSet
EndChar

StartChar: two
Encoding: 50 50 433
Width: 1212
VWidth: 0
GlyphClass: 2
Flags: W
PickledData: "(dp1
S'org.robofab.postScriptHintData'
p2
(dp3
sS'com.typemytype.robofont.layerData'
p4
(dp5
S'b'
(dp6
S'name'
p7
S'two'
p8
sS'lib'
p9
(dp10
sS'unicodes'
p11
(tsS'width'
p12
F1244.5
sS'contours'
p13
(tsS'components'
p14
(tsS'anchors'
p15
(tsss."
LayerCount: 2
Fore
SplineSet
218 0 m 257
 218 90 l 257
 709 649 l 258
 867 829 931 920 931 1068 c 256
 931 1244 849 1394 586 1394 c 256
 467 1394 335 1358 223 1294 c 257
 185 1373 l 257
 307 1445 451 1483 585 1483 c 256
 923 1483 1032 1276 1032 1084 c 256
 1032 896 932 771 772 590 c 258
 328 86 l 257
 1027 86 l 257
 1027 0 l 257
 218 0 l 257
EndSplineSet
EndChar

StartChar: twosuperior
Encoding: 178 178 434
Width: 942
VWidth: 0
GlyphClass: 2
Flags: W
PickledData: "(dp1
S'org.robofab.postScriptHintData'
p2
(dp3
s."
LayerCount: 2
Fore
SplineSet
192 631 m 257
 192 701 l 257
 485 1006 l 258
 603 1129 625 1178 625 1248 c 256
 625 1317 587 1392 459 1392 c 256
 371 1392 293 1352 288 1222 c 257
 213 1226 l 257
 216 1371 311 1456 459 1456 c 256
 621 1456 700 1359 700 1251 c 256
 700 1146 670 1090 535 952 c 258
 289 700 l 257
 705 700 l 257
 705 631 l 257
 192 631 l 257
EndSplineSet
EndChar

StartChar: u
Encoding: 117 117 435
Width: 1285
VWidth: 0
GlyphClass: 2
Flags: W
PickledData: "(dp1
S'org.robofab.postScriptHintData'
p2
(dp3
sS'com.typemytype.robofont.layerData'
p4
(dp5
S'b'
(dp6
S'name'
p7
S'u'
sS'lib'
p8
(dp9
sS'unicodes'
p10
(tsS'width'
p11
F1227.2
sS'contours'
p12
(tsS'components'
p13
(tsS'anchors'
p14
(tsss."
AnchorPoint: "top" 652 1026 basechar 0
LayerCount: 2
Fore
SplineSet
584 -26 m 256
 328 -26 198 125 198 412 c 258
 198 1026 l 257
 296 1026 l 257
 296 408 l 258
 296 178 392 56 584 56 c 256
 839 56 972 260 972 355 c 258
 972 1026 l 257
 1070 1026 l 257
 1070 225 l 258
 1070 113 1072 53 1075 0 c 257
 986 0 l 257
 977 191 l 257
 891 55 761 -26 584 -26 c 256
EndSplineSet
EndChar

StartChar: underscore
Encoding: 95 95 446
Width: 847
VWidth: 0
GlyphClass: 2
Flags: W
PickledData: "(dp1
S'org.robofab.postScriptHintData'
p2
(dp3
s."
LayerCount: 2
Fore
SplineSet
7 -286 m 257
 7 -206 l 257
 840 -206 l 257
 840 -286 l 257
 7 -286 l 257
EndSplineSet
EndChar

StartChar: uni0307
Encoding: 775 775 459
Width: 524
VWidth: 0
GlyphClass: 4
Flags: W
PickledData: "(dp1
S'org.robofab.postScriptHintData'
p2
(dp3
s."
AnchorPoint: "top" 264 1026 mark 0
LayerCount: 2
Fore
SplineSet
184 1246 m 257
 182 1409 l 257
 339 1409 l 257
 342 1246 l 257
 184 1246 l 257
EndSplineSet
EndChar

StartChar: uni030F
Encoding: 783 783 460
Width: 969
VWidth: 0
GlyphClass: 4
Flags: W
PickledData: "(dp1
S'org.robofab.postScriptHintData'
p2
(dp3
s."
AnchorPoint: "top" 635 1026 mark 0
LayerCount: 2
Fore
SplineSet
758 1174 m 257
 483 1487 l 257
 599 1487 l 257
 816 1174 l 257
 758 1174 l 257
489 1174 m 257
 213 1487 l 257
 329 1487 l 257
 549 1174 l 257
 489 1174 l 257
EndSplineSet
EndChar

StartChar: uni0311
Encoding: 785 785 461
Width: 629
VWidth: 0
GlyphClass: 4
Flags: W
PickledData: "(dp1
S'org.robofab.postScriptHintData'
p2
(dp3
s."
AnchorPoint: "top" 314 1026 mark 0
LayerCount: 2
Fore
SplineSet
50 1225 m 257
 55 1370 183 1442 311 1442 c 256
 441 1442 571 1369 579 1225 c 257
 508 1225 l 257
 496 1317 402 1364 310 1364 c 256
 220 1364 131 1319 123 1225 c 257
 50 1225 l 257
EndSplineSet
EndChar

StartChar: uni0312
Encoding: 786 786 462
Width: 600
VWidth: 0
GlyphClass: 4
Flags: W
PickledData: "(dp1
S'org.robofab.postScriptHintData'
p2
(dp3
s."
AnchorPoint: "top" 277 1026 mark 0
LayerCount: 2
Fore
SplineSet
443 1683 m 257
 340 1250 l 257
 223 1250 l 257
 373 1683 l 257
 443 1683 l 257
EndSplineSet
EndChar

StartChar: uni0326
Encoding: 806 806 463
Width: 540
VWidth: 0
GlyphClass: 2
Flags: W
PickledData: "(dp1
S'org.robofab.postScriptHintData'
p2
(dp3
s."
LayerCount: 2
Fore
SplineSet
160 -557 m 257
 263 -124 l 257
 380 -124 l 257
 230 -557 l 257
 160 -557 l 257
EndSplineSet
EndChar

StartChar: uni2015
Encoding: 8213 8213 464
Width: 4095
VWidth: 0
GlyphClass: 2
Flags: W
PickledData: "(dp1
S'org.robofab.postScriptHintData'
p2
(dp3
s."
LayerCount: 2
Fore
SplineSet
71 515 m 257
 71 615 l 257
 4024 615 l 257
 4024 515 l 257
 71 515 l 257
EndSplineSet
EndChar

StartChar: v
Encoding: 118 118 469
Width: 949
VWidth: 0
GlyphClass: 2
Flags: W
PickledData: "(dp1
S'org.robofab.postScriptHintData'
p2
(dp3
sS'com.typemytype.robofont.layerData'
p4
(dp5
S'b'
(dp6
S'name'
p7
S'v'
sS'lib'
p8
(dp9
sS'unicodes'
p10
(tsS'width'
p11
F1056.8
sS'contours'
p12
(tsS'components'
p13
(tsS'anchors'
p14
(tsss."
LayerCount: 2
Fore
SplineSet
424 0 m 257
 1 1026 l 257
 102 1026 l 257
 431 210 l 257
 479 78 l 257
 527 210 l 257
 856 1026 l 257
 957 1026 l 257
 534 0 l 257
 424 0 l 257
EndSplineSet
EndChar

StartChar: w
Encoding: 119 119 470
Width: 1553
VWidth: 0
GlyphClass: 2
Flags: W
PickledData: "(dp1
S'org.robofab.postScriptHintData'
p2
(dp3
sS'com.typemytype.robofont.layerData'
p4
(dp5
S'b'
(dp6
S'name'
p7
S'w'
sS'lib'
p8
(dp9
sS'unicodes'
p10
(tsS'width'
p11
F1634.0999999999999
sS'contours'
p12
(tsS'components'
p13
(tsS'anchors'
p14
(tsss."
AnchorPoint: "top" 793 1026 basechar 0
LayerCount: 2
Fore
SplineSet
342 0 m 257
 44 1026 l 257
 150 1026 l 257
 389 182 l 257
 411 102 l 257
 438 182 l 257
 727 1026 l 257
 855 1026 l 257
 1138 182 l 257
 1163 102 l 257
 1184 182 l 257
 1399 1026 l 257
 1508 1026 l 257
 1230 0 l 257
 1102 0 l 257
 840 800 l 257
 795 939 l 257
 749 800 l 257
 470 0 l 257
 342 0 l 257
EndSplineSet
EndChar

StartChar: x
Encoding: 120 120 475
Width: 1114
VWidth: 0
GlyphClass: 2
Flags: W
PickledData: "(dp1
S'org.robofab.postScriptHintData'
p2
(dp3
sS'com.typemytype.robofont.layerData'
p4
(dp5
S'b'
(dp6
S'name'
p7
S'x'
sS'lib'
p8
(dp9
sS'unicodes'
p10
(tsS'width'
p11
F1062.8499999999999
sS'contours'
p12
(tsS'components'
p13
(tsS'anchors'
p14
(tsss."
LayerCount: 2
Fore
SplineSet
58 0 m 257
 502 526 l 257
 91 1030 l 257
 202 1026 l 257
 555 582 l 257
 919 1026 l 257
 1034 1026 l 257
 614 511 l 257
 1052 0 l 257
 945 0 l 257
 559 460 l 257
 170 0 l 257
 58 0 l 257
EndSplineSet
EndChar

StartChar: y
Encoding: 121 121 476
Width: 983
VWidth: 0
GlyphClass: 2
Flags: W
PickledData: "(dp1
S'org.robofab.postScriptHintData'
p2
(dp3
sS'com.typemytype.robofont.layerData'
p4
(dp5
S'b'
(dp6
S'name'
p7
S'y'
sS'lib'
p8
(dp9
sS'unicodes'
p10
(tsS'width'
p11
F1065.05
sS'contours'
p12
(tsS'components'
p13
(tsS'anchors'
p14
(tsss."
AnchorPoint: "top" 520 1026 basechar 0
LayerCount: 2
Fore
SplineSet
157 -417 m 257
 124 -345 l 257
 335 -290 400 -167 437 -79 c 258
 461 -21 l 257
 62 1026 l 257
 168 1026 l 257
 510 97 l 257
 863 1026 l 257
 959 1026 l 257
 547 -52 l 258
 493 -199 387 -375 157 -417 c 257
EndSplineSet
EndChar

StartChar: yen
Encoding: 165 165 480
Width: 1143
VWidth: 0
GlyphClass: 2
Flags: W
PickledData: "(dp1
S'org.robofab.postScriptHintData'
p2
(dp3
sS'com.typemytype.robofont.layerData'
p4
(dp5
S'b'
(dp6
S'name'
p7
S'yen'
p8
sS'lib'
p9
(dp10
sS'unicodes'
p11
(tsS'width'
p12
F1225.45
sS'contours'
p13
(tsS'components'
p14
(tsS'anchors'
p15
(tsss."
LayerCount: 2
Fore
SplineSet
514 0 m 257
 622 0 l 257
 622 349 l 257
 897 349 l 257
 897 415 l 257
 622 415 l 257
 622 533 l 257
 899 533 l 257
 899 599 l 257
 624.825 599 l 257
 1109 1456 l 257
 1004 1456 l 257
 570 683 l 257
 143 1456 l 257
 34 1456 l 257
 509.561 599 l 257
 232 599 l 257
 232 533 l 257
 514 533 l 257
 514 415 l 257
 232 415 l 257
 232 349 l 257
 514 349 l 257
 514 0 l 257
EndSplineSet
EndChar

StartChar: z
Encoding: 122 122 484
Width: 934
VWidth: 0
GlyphClass: 2
Flags: W
PickledData: "(dp1
S'org.robofab.postScriptHintData'
p2
(dp3
sS'com.typemytype.robofont.layerData'
p4
(dp5
S'b'
(dp6
S'name'
p7
S'z'
sS'lib'
p8
(dp9
sS'unicodes'
p10
(tsS'width'
p11
F971.85000000000002
sS'contours'
p12
(tsS'components'
p13
(tsS'anchors'
p14
(tsss."
AnchorPoint: "top" 460 1026 basechar 0
LayerCount: 2
Fore
SplineSet
90 0 m 257
 90 59 l 257
 730 944 l 257
 115 944 l 257
 115 1026 l 257
 855 1026 l 257
 855 969 l 257
 220 82 l 257
 843 82 l 257
 843 0 l 257
 90 0 l 257
EndSplineSet
EndChar

StartChar: zero
Encoding: 48 48 488
Width: 1177
VWidth: 0
GlyphClass: 2
Flags: W
PickledData: "(dp1
S'org.robofab.postScriptHintData'
p2
(dp3
s."
LayerCount: 2
Fore
SplineSet
598 -23 m 256
 288 -23 124 235 124 722 c 256
 124 1220 288 1483 598 1483 c 256
 896 1483 1053 1220 1053 722 c 256
 1053 235 896 -23 598 -23 c 256
598 63 m 256
 824 63 943 291 943 722 c 256
 943 1164 824 1397 598 1397 c 256
 360 1397 234 1164 234 722 c 256
 234 291 360 63 598 63 c 256
EndSplineSet
EndChar

StartChar: mu
Encoding: 181 181 489
Width: 1285
VWidth: 0
Flags: W
AnchorPoint: "top" 652 1026 basechar 0
LayerCount: 2
Fore
SplineSet
296 -332 m 257
 198 -328 l 257
 198 1026 l 257
 296 1026 l 257
 296 408 l 258
 296 178 392 56 584 56 c 256
 839 56 972 260 972 355 c 258
 972 1026 l 257
 1070 1026 l 257
 1070 225 l 258
 1070 113 1072 53 1075 0 c 257
 986 0 l 257
 977 191 l 257
 891 55 761 -26 584 -26 c 256
 457 -26 360 11 296 84 c 257
 296 -332 l 257
EndSplineSet
EndChar
